G04 EAGLE Gerber RS-274X export*
G75*
%MOMM*%
%FSLAX34Y34*%
%LPD*%
%INBottom Copper*%
%IPPOS*%
%AMOC8*
5,1,8,0,0,1.08239X$1,22.5*%
G01*
%ADD10C,1.930400*%
%ADD11P,1.429621X8X292.500000*%
%ADD12C,1.524000*%
%ADD13C,1.790700*%
%ADD14C,1.778000*%
%ADD15C,0.152400*%
%ADD16C,2.000000*%

G36*
X389847Y10165D02*
X389847Y10165D01*
X389916Y10162D01*
X390192Y10185D01*
X390469Y10201D01*
X390538Y10213D01*
X390607Y10218D01*
X390878Y10272D01*
X391151Y10320D01*
X391218Y10340D01*
X391286Y10353D01*
X391549Y10438D01*
X391815Y10517D01*
X391879Y10544D01*
X391945Y10566D01*
X392197Y10681D01*
X392452Y10790D01*
X392512Y10824D01*
X392575Y10853D01*
X392812Y10996D01*
X393053Y11134D01*
X393109Y11175D01*
X393168Y11210D01*
X393387Y11380D01*
X393610Y11544D01*
X393661Y11592D01*
X393716Y11634D01*
X393914Y11828D01*
X394117Y12017D01*
X394162Y12070D01*
X394211Y12118D01*
X394386Y12333D01*
X394565Y12544D01*
X394604Y12602D01*
X394647Y12656D01*
X394796Y12890D01*
X394950Y13120D01*
X394982Y13182D01*
X395019Y13240D01*
X395140Y13491D01*
X395266Y13736D01*
X395290Y13801D01*
X395320Y13864D01*
X395411Y14125D01*
X395509Y14385D01*
X395525Y14452D01*
X395548Y14518D01*
X395608Y14787D01*
X395675Y15057D01*
X395684Y15126D01*
X395699Y15193D01*
X395728Y15469D01*
X395763Y15744D01*
X395764Y15813D01*
X395771Y15882D01*
X395768Y16159D01*
X395771Y16437D01*
X395764Y16505D01*
X395763Y16575D01*
X395728Y16849D01*
X395699Y17125D01*
X395684Y17193D01*
X395675Y17262D01*
X395609Y17530D01*
X395548Y17801D01*
X395526Y17867D01*
X395509Y17934D01*
X395412Y18193D01*
X395321Y18455D01*
X395291Y18518D01*
X395266Y18582D01*
X395140Y18829D01*
X395019Y19079D01*
X394982Y19137D01*
X394951Y19199D01*
X394797Y19430D01*
X394648Y19663D01*
X394605Y19717D01*
X394566Y19775D01*
X394445Y19913D01*
X394212Y20201D01*
X394098Y20312D01*
X394020Y20402D01*
X343563Y70859D01*
X343356Y71044D01*
X343154Y71232D01*
X343098Y71274D01*
X343046Y71320D01*
X342819Y71479D01*
X342596Y71643D01*
X342536Y71678D01*
X342479Y71718D01*
X342236Y71850D01*
X341995Y71987D01*
X341931Y72015D01*
X341870Y72048D01*
X341613Y72151D01*
X341359Y72260D01*
X341292Y72280D01*
X341227Y72305D01*
X340960Y72378D01*
X340695Y72457D01*
X340626Y72469D01*
X340559Y72487D01*
X340286Y72529D01*
X340013Y72576D01*
X339943Y72580D01*
X339875Y72591D01*
X339598Y72600D01*
X339321Y72616D01*
X339252Y72612D01*
X339182Y72615D01*
X338906Y72592D01*
X338630Y72577D01*
X338562Y72565D01*
X338492Y72559D01*
X338221Y72505D01*
X337948Y72457D01*
X337881Y72437D01*
X337813Y72424D01*
X337550Y72339D01*
X337284Y72260D01*
X337220Y72233D01*
X337154Y72211D01*
X336902Y72097D01*
X336647Y71988D01*
X336587Y71953D01*
X336524Y71924D01*
X336286Y71781D01*
X336046Y71644D01*
X335990Y71603D01*
X335931Y71567D01*
X335712Y71398D01*
X335489Y71233D01*
X335438Y71186D01*
X335383Y71143D01*
X335185Y70950D01*
X334982Y70761D01*
X334937Y70708D01*
X334888Y70659D01*
X334714Y70445D01*
X334534Y70233D01*
X334495Y70175D01*
X334451Y70121D01*
X334303Y69888D01*
X334149Y69658D01*
X334122Y69602D01*
X334080Y69537D01*
X333778Y68914D01*
X333778Y68913D01*
X332021Y64671D01*
X328729Y61379D01*
X324428Y59597D01*
X319772Y59597D01*
X315471Y61379D01*
X312179Y64671D01*
X310397Y68972D01*
X310397Y73628D01*
X312179Y77929D01*
X313808Y79558D01*
X313900Y79661D01*
X313999Y79758D01*
X314130Y79919D01*
X314268Y80075D01*
X314348Y80188D01*
X314435Y80296D01*
X314547Y80472D01*
X314666Y80642D01*
X314732Y80763D01*
X314806Y80880D01*
X314897Y81068D01*
X314996Y81251D01*
X315048Y81379D01*
X315108Y81504D01*
X315176Y81700D01*
X315254Y81893D01*
X315290Y82027D01*
X315336Y82158D01*
X315381Y82361D01*
X315436Y82562D01*
X315456Y82698D01*
X315486Y82833D01*
X315508Y83040D01*
X315539Y83246D01*
X315544Y83384D01*
X315558Y83522D01*
X315556Y83730D01*
X315563Y83938D01*
X315552Y84076D01*
X315551Y84215D01*
X315524Y84421D01*
X315507Y84629D01*
X315480Y84764D01*
X315463Y84902D01*
X315413Y85104D01*
X315372Y85308D01*
X315330Y85439D01*
X315297Y85574D01*
X315224Y85769D01*
X315160Y85967D01*
X315103Y86093D01*
X315054Y86222D01*
X314959Y86408D01*
X314873Y86597D01*
X314801Y86716D01*
X314738Y86839D01*
X314623Y87012D01*
X314515Y87190D01*
X314431Y87299D01*
X314354Y87415D01*
X314244Y87540D01*
X314092Y87738D01*
X313917Y87917D01*
X313808Y88042D01*
X312179Y89671D01*
X310397Y93972D01*
X310397Y98628D01*
X312179Y102929D01*
X313808Y104558D01*
X313900Y104661D01*
X313999Y104758D01*
X314130Y104919D01*
X314268Y105075D01*
X314348Y105188D01*
X314435Y105296D01*
X314547Y105472D01*
X314666Y105642D01*
X314732Y105763D01*
X314806Y105880D01*
X314897Y106068D01*
X314996Y106251D01*
X315048Y106379D01*
X315108Y106504D01*
X315176Y106700D01*
X315254Y106893D01*
X315290Y107027D01*
X315336Y107158D01*
X315381Y107361D01*
X315436Y107562D01*
X315456Y107698D01*
X315486Y107833D01*
X315508Y108040D01*
X315539Y108246D01*
X315544Y108384D01*
X315558Y108522D01*
X315556Y108730D01*
X315563Y108938D01*
X315552Y109076D01*
X315551Y109215D01*
X315524Y109421D01*
X315507Y109629D01*
X315480Y109764D01*
X315463Y109902D01*
X315413Y110104D01*
X315372Y110308D01*
X315330Y110439D01*
X315297Y110574D01*
X315224Y110769D01*
X315160Y110967D01*
X315103Y111093D01*
X315054Y111222D01*
X314959Y111408D01*
X314873Y111597D01*
X314801Y111716D01*
X314738Y111839D01*
X314623Y112012D01*
X314515Y112190D01*
X314431Y112299D01*
X314354Y112415D01*
X314244Y112540D01*
X314092Y112738D01*
X313917Y112917D01*
X313808Y113042D01*
X312179Y114671D01*
X310397Y118972D01*
X310397Y123628D01*
X312179Y127929D01*
X313808Y129558D01*
X313900Y129661D01*
X313999Y129758D01*
X314130Y129919D01*
X314268Y130075D01*
X314348Y130188D01*
X314435Y130296D01*
X314547Y130472D01*
X314666Y130642D01*
X314732Y130763D01*
X314806Y130880D01*
X314897Y131068D01*
X314996Y131251D01*
X315048Y131379D01*
X315108Y131504D01*
X315176Y131700D01*
X315254Y131893D01*
X315290Y132027D01*
X315336Y132158D01*
X315381Y132361D01*
X315436Y132562D01*
X315456Y132698D01*
X315486Y132833D01*
X315508Y133040D01*
X315539Y133246D01*
X315544Y133384D01*
X315558Y133522D01*
X315556Y133730D01*
X315563Y133938D01*
X315552Y134076D01*
X315551Y134215D01*
X315524Y134421D01*
X315507Y134629D01*
X315480Y134764D01*
X315463Y134902D01*
X315413Y135104D01*
X315372Y135308D01*
X315330Y135439D01*
X315297Y135574D01*
X315224Y135769D01*
X315160Y135967D01*
X315103Y136093D01*
X315054Y136222D01*
X314959Y136408D01*
X314873Y136597D01*
X314801Y136716D01*
X314738Y136839D01*
X314623Y137012D01*
X314515Y137190D01*
X314431Y137299D01*
X314354Y137415D01*
X314244Y137540D01*
X314092Y137738D01*
X313917Y137917D01*
X313808Y138042D01*
X312179Y139671D01*
X310397Y143972D01*
X310397Y148628D01*
X312179Y152929D01*
X313808Y154558D01*
X313900Y154661D01*
X313999Y154758D01*
X314130Y154919D01*
X314268Y155075D01*
X314348Y155188D01*
X314435Y155296D01*
X314547Y155472D01*
X314666Y155642D01*
X314732Y155763D01*
X314806Y155880D01*
X314897Y156068D01*
X314996Y156251D01*
X315048Y156379D01*
X315108Y156504D01*
X315176Y156700D01*
X315254Y156893D01*
X315290Y157027D01*
X315336Y157158D01*
X315381Y157361D01*
X315436Y157562D01*
X315456Y157698D01*
X315486Y157833D01*
X315508Y158040D01*
X315539Y158246D01*
X315544Y158384D01*
X315558Y158522D01*
X315556Y158730D01*
X315563Y158938D01*
X315552Y159076D01*
X315551Y159215D01*
X315524Y159421D01*
X315507Y159629D01*
X315480Y159764D01*
X315463Y159902D01*
X315413Y160104D01*
X315372Y160308D01*
X315330Y160439D01*
X315297Y160574D01*
X315224Y160769D01*
X315160Y160967D01*
X315103Y161093D01*
X315054Y161222D01*
X314959Y161408D01*
X314873Y161597D01*
X314801Y161716D01*
X314738Y161839D01*
X314623Y162012D01*
X314515Y162190D01*
X314431Y162299D01*
X314354Y162415D01*
X314244Y162540D01*
X314092Y162738D01*
X313917Y162917D01*
X313808Y163042D01*
X312179Y164671D01*
X310397Y168972D01*
X310397Y173628D01*
X312179Y177929D01*
X313808Y179558D01*
X313900Y179661D01*
X313999Y179758D01*
X314130Y179919D01*
X314268Y180075D01*
X314348Y180188D01*
X314435Y180296D01*
X314547Y180472D01*
X314666Y180642D01*
X314732Y180763D01*
X314806Y180880D01*
X314897Y181068D01*
X314996Y181251D01*
X315048Y181379D01*
X315108Y181504D01*
X315176Y181700D01*
X315254Y181893D01*
X315290Y182027D01*
X315336Y182158D01*
X315381Y182361D01*
X315436Y182562D01*
X315456Y182698D01*
X315486Y182833D01*
X315508Y183040D01*
X315539Y183246D01*
X315544Y183384D01*
X315558Y183522D01*
X315556Y183730D01*
X315563Y183938D01*
X315552Y184076D01*
X315551Y184215D01*
X315524Y184421D01*
X315507Y184629D01*
X315480Y184764D01*
X315463Y184902D01*
X315413Y185104D01*
X315372Y185308D01*
X315330Y185439D01*
X315297Y185574D01*
X315224Y185769D01*
X315160Y185967D01*
X315103Y186093D01*
X315054Y186222D01*
X314959Y186408D01*
X314873Y186597D01*
X314801Y186716D01*
X314738Y186839D01*
X314623Y187012D01*
X314515Y187190D01*
X314431Y187299D01*
X314354Y187415D01*
X314244Y187540D01*
X314092Y187738D01*
X313917Y187917D01*
X313808Y188042D01*
X312179Y189671D01*
X310397Y193972D01*
X310397Y198628D01*
X312179Y202929D01*
X313808Y204558D01*
X313900Y204661D01*
X313999Y204758D01*
X314130Y204919D01*
X314268Y205075D01*
X314348Y205188D01*
X314435Y205296D01*
X314547Y205472D01*
X314666Y205642D01*
X314732Y205763D01*
X314806Y205880D01*
X314897Y206068D01*
X314996Y206251D01*
X315048Y206379D01*
X315108Y206504D01*
X315176Y206700D01*
X315254Y206893D01*
X315290Y207027D01*
X315336Y207158D01*
X315381Y207361D01*
X315436Y207562D01*
X315456Y207698D01*
X315486Y207833D01*
X315508Y208040D01*
X315539Y208246D01*
X315544Y208384D01*
X315558Y208522D01*
X315556Y208730D01*
X315563Y208938D01*
X315552Y209076D01*
X315551Y209215D01*
X315524Y209421D01*
X315507Y209629D01*
X315480Y209764D01*
X315463Y209902D01*
X315413Y210104D01*
X315372Y210308D01*
X315330Y210439D01*
X315297Y210574D01*
X315224Y210769D01*
X315160Y210967D01*
X315103Y211093D01*
X315054Y211222D01*
X314959Y211408D01*
X314873Y211597D01*
X314801Y211716D01*
X314738Y211839D01*
X314623Y212012D01*
X314515Y212190D01*
X314431Y212299D01*
X314354Y212415D01*
X314244Y212540D01*
X314092Y212738D01*
X313917Y212917D01*
X313808Y213042D01*
X312179Y214671D01*
X310397Y218972D01*
X310397Y223628D01*
X312179Y227929D01*
X314347Y230097D01*
X314439Y230200D01*
X314538Y230297D01*
X314668Y230458D01*
X314807Y230614D01*
X314887Y230727D01*
X314974Y230835D01*
X315086Y231010D01*
X315205Y231181D01*
X315271Y231302D01*
X315345Y231419D01*
X315436Y231606D01*
X315535Y231789D01*
X315587Y231918D01*
X315647Y232042D01*
X315715Y232239D01*
X315793Y232432D01*
X315829Y232566D01*
X315875Y232696D01*
X315920Y232899D01*
X315974Y233100D01*
X315995Y233237D01*
X316025Y233372D01*
X316047Y233579D01*
X316078Y233785D01*
X316083Y233923D01*
X316097Y234061D01*
X316095Y234269D01*
X316102Y234477D01*
X316091Y234615D01*
X316089Y234753D01*
X316063Y234960D01*
X316046Y235167D01*
X316019Y235303D01*
X316002Y235440D01*
X315952Y235642D01*
X315911Y235847D01*
X315869Y235978D01*
X315835Y236113D01*
X315763Y236308D01*
X315699Y236506D01*
X315641Y236631D01*
X315593Y236761D01*
X315498Y236946D01*
X315412Y237136D01*
X315340Y237254D01*
X315277Y237378D01*
X315162Y237551D01*
X315054Y237729D01*
X314969Y237838D01*
X314893Y237953D01*
X314783Y238079D01*
X314630Y238277D01*
X314456Y238456D01*
X314347Y238581D01*
X312825Y240103D01*
X311159Y244124D01*
X311159Y248476D01*
X312825Y252497D01*
X315903Y255575D01*
X319924Y257241D01*
X324276Y257241D01*
X328297Y255575D01*
X331375Y252497D01*
X333041Y248476D01*
X333041Y244124D01*
X331375Y240103D01*
X329853Y238581D01*
X329761Y238478D01*
X329662Y238381D01*
X329532Y238220D01*
X329393Y238064D01*
X329313Y237950D01*
X329226Y237843D01*
X329115Y237668D01*
X328995Y237497D01*
X328929Y237375D01*
X328855Y237259D01*
X328764Y237071D01*
X328665Y236888D01*
X328614Y236760D01*
X328553Y236635D01*
X328485Y236439D01*
X328407Y236246D01*
X328371Y236112D01*
X328325Y235981D01*
X328280Y235778D01*
X328226Y235577D01*
X328205Y235440D01*
X328175Y235305D01*
X328153Y235098D01*
X328122Y234893D01*
X328117Y234754D01*
X328103Y234617D01*
X328105Y234408D01*
X328098Y234201D01*
X328109Y234063D01*
X328111Y233924D01*
X328137Y233718D01*
X328154Y233510D01*
X328181Y233374D01*
X328198Y233237D01*
X328248Y233035D01*
X328289Y232831D01*
X328331Y232699D01*
X328365Y232565D01*
X328437Y232370D01*
X328501Y232172D01*
X328559Y232046D01*
X328607Y231916D01*
X328702Y231731D01*
X328788Y231542D01*
X328860Y231423D01*
X328923Y231300D01*
X329038Y231127D01*
X329146Y230949D01*
X329230Y230839D01*
X329307Y230724D01*
X329417Y230599D01*
X329570Y230401D01*
X329744Y230222D01*
X329853Y230097D01*
X332021Y227929D01*
X333803Y223628D01*
X333803Y218972D01*
X332021Y214671D01*
X330392Y213042D01*
X330300Y212939D01*
X330201Y212842D01*
X330070Y212681D01*
X329932Y212525D01*
X329852Y212412D01*
X329765Y212304D01*
X329653Y212128D01*
X329534Y211958D01*
X329468Y211837D01*
X329394Y211720D01*
X329303Y211532D01*
X329204Y211349D01*
X329152Y211221D01*
X329092Y211096D01*
X329024Y210900D01*
X328946Y210707D01*
X328910Y210573D01*
X328864Y210442D01*
X328819Y210240D01*
X328764Y210039D01*
X328744Y209902D01*
X328714Y209767D01*
X328692Y209560D01*
X328661Y209354D01*
X328656Y209216D01*
X328642Y209078D01*
X328644Y208870D01*
X328637Y208662D01*
X328648Y208524D01*
X328649Y208385D01*
X328676Y208179D01*
X328693Y207972D01*
X328720Y207836D01*
X328737Y207698D01*
X328787Y207497D01*
X328828Y207292D01*
X328870Y207161D01*
X328903Y207026D01*
X328976Y206831D01*
X329040Y206633D01*
X329097Y206507D01*
X329146Y206378D01*
X329241Y206192D01*
X329327Y206003D01*
X329398Y205885D01*
X329462Y205761D01*
X329577Y205588D01*
X329685Y205410D01*
X329769Y205301D01*
X329846Y205185D01*
X329955Y205060D01*
X330108Y204862D01*
X330283Y204683D01*
X330392Y204558D01*
X332021Y202929D01*
X333803Y198628D01*
X333803Y193972D01*
X332021Y189671D01*
X330392Y188042D01*
X330300Y187939D01*
X330201Y187842D01*
X330070Y187681D01*
X329932Y187525D01*
X329852Y187412D01*
X329765Y187304D01*
X329653Y187128D01*
X329534Y186958D01*
X329468Y186837D01*
X329394Y186720D01*
X329303Y186532D01*
X329204Y186349D01*
X329152Y186221D01*
X329092Y186096D01*
X329024Y185900D01*
X328946Y185707D01*
X328910Y185573D01*
X328864Y185442D01*
X328819Y185240D01*
X328764Y185039D01*
X328744Y184902D01*
X328714Y184767D01*
X328692Y184560D01*
X328661Y184354D01*
X328656Y184216D01*
X328642Y184078D01*
X328644Y183870D01*
X328637Y183662D01*
X328648Y183524D01*
X328649Y183385D01*
X328676Y183179D01*
X328693Y182972D01*
X328720Y182836D01*
X328737Y182698D01*
X328787Y182497D01*
X328828Y182292D01*
X328870Y182161D01*
X328903Y182026D01*
X328976Y181831D01*
X329040Y181633D01*
X329097Y181507D01*
X329146Y181378D01*
X329241Y181192D01*
X329327Y181003D01*
X329398Y180885D01*
X329462Y180761D01*
X329577Y180588D01*
X329685Y180410D01*
X329769Y180301D01*
X329846Y180185D01*
X329955Y180060D01*
X330108Y179862D01*
X330283Y179683D01*
X330392Y179558D01*
X332021Y177929D01*
X333803Y173628D01*
X333803Y168972D01*
X332021Y164671D01*
X330392Y163042D01*
X330300Y162939D01*
X330201Y162842D01*
X330070Y162681D01*
X329932Y162525D01*
X329852Y162412D01*
X329765Y162304D01*
X329653Y162128D01*
X329534Y161958D01*
X329468Y161837D01*
X329394Y161720D01*
X329303Y161532D01*
X329204Y161349D01*
X329152Y161221D01*
X329092Y161096D01*
X329024Y160900D01*
X328946Y160707D01*
X328910Y160573D01*
X328864Y160442D01*
X328819Y160240D01*
X328764Y160039D01*
X328744Y159902D01*
X328714Y159767D01*
X328692Y159560D01*
X328661Y159354D01*
X328656Y159216D01*
X328642Y159078D01*
X328644Y158870D01*
X328637Y158662D01*
X328648Y158524D01*
X328649Y158385D01*
X328676Y158179D01*
X328693Y157972D01*
X328720Y157836D01*
X328737Y157698D01*
X328787Y157497D01*
X328828Y157292D01*
X328870Y157161D01*
X328903Y157026D01*
X328976Y156831D01*
X329040Y156633D01*
X329097Y156507D01*
X329146Y156378D01*
X329241Y156192D01*
X329327Y156003D01*
X329398Y155885D01*
X329462Y155761D01*
X329577Y155588D01*
X329685Y155410D01*
X329769Y155301D01*
X329846Y155185D01*
X329955Y155060D01*
X330108Y154862D01*
X330283Y154683D01*
X330392Y154558D01*
X332021Y152929D01*
X333803Y148628D01*
X333803Y143972D01*
X332021Y139671D01*
X330392Y138042D01*
X330300Y137939D01*
X330201Y137842D01*
X330070Y137681D01*
X329932Y137525D01*
X329852Y137412D01*
X329765Y137304D01*
X329653Y137128D01*
X329534Y136958D01*
X329468Y136837D01*
X329394Y136720D01*
X329303Y136532D01*
X329204Y136349D01*
X329152Y136221D01*
X329092Y136096D01*
X329024Y135900D01*
X328946Y135707D01*
X328910Y135573D01*
X328864Y135442D01*
X328819Y135240D01*
X328764Y135039D01*
X328744Y134902D01*
X328714Y134767D01*
X328692Y134560D01*
X328661Y134354D01*
X328656Y134216D01*
X328642Y134078D01*
X328644Y133870D01*
X328637Y133662D01*
X328648Y133524D01*
X328649Y133385D01*
X328676Y133179D01*
X328693Y132972D01*
X328720Y132836D01*
X328737Y132698D01*
X328787Y132497D01*
X328828Y132292D01*
X328870Y132161D01*
X328903Y132026D01*
X328976Y131831D01*
X329040Y131633D01*
X329097Y131507D01*
X329146Y131378D01*
X329241Y131192D01*
X329327Y131003D01*
X329398Y130885D01*
X329462Y130761D01*
X329577Y130588D01*
X329685Y130410D01*
X329769Y130301D01*
X329846Y130185D01*
X329955Y130060D01*
X330108Y129862D01*
X330283Y129683D01*
X330392Y129558D01*
X332021Y127929D01*
X333803Y123628D01*
X333803Y118972D01*
X332021Y114671D01*
X330392Y113042D01*
X330300Y112939D01*
X330201Y112842D01*
X330070Y112681D01*
X329932Y112525D01*
X329852Y112412D01*
X329765Y112304D01*
X329653Y112128D01*
X329534Y111958D01*
X329468Y111837D01*
X329394Y111720D01*
X329303Y111532D01*
X329204Y111349D01*
X329152Y111221D01*
X329092Y111096D01*
X329024Y110900D01*
X328946Y110707D01*
X328910Y110573D01*
X328864Y110442D01*
X328819Y110240D01*
X328764Y110039D01*
X328744Y109902D01*
X328714Y109767D01*
X328692Y109560D01*
X328661Y109354D01*
X328656Y109216D01*
X328642Y109078D01*
X328644Y108870D01*
X328637Y108662D01*
X328648Y108524D01*
X328649Y108385D01*
X328676Y108179D01*
X328693Y107972D01*
X328720Y107836D01*
X328737Y107698D01*
X328787Y107497D01*
X328828Y107292D01*
X328870Y107161D01*
X328903Y107026D01*
X328976Y106831D01*
X329040Y106633D01*
X329097Y106507D01*
X329146Y106378D01*
X329241Y106192D01*
X329327Y106003D01*
X329398Y105885D01*
X329462Y105761D01*
X329577Y105588D01*
X329685Y105410D01*
X329769Y105301D01*
X329846Y105185D01*
X329955Y105060D01*
X330108Y104862D01*
X330283Y104683D01*
X330392Y104558D01*
X332021Y102929D01*
X333803Y98628D01*
X333803Y93972D01*
X333756Y93859D01*
X333540Y93238D01*
X333529Y93206D01*
X333528Y93205D01*
X333424Y92736D01*
X333378Y92530D01*
X333378Y92529D01*
X333331Y92088D01*
X333306Y91841D01*
X333311Y91351D01*
X333314Y91149D01*
X333314Y91148D01*
X333382Y90611D01*
X333401Y90462D01*
X333401Y90461D01*
X333510Y90024D01*
X333568Y89790D01*
X333568Y89789D01*
X333799Y89172D01*
X333810Y89141D01*
X334001Y88768D01*
X334126Y88525D01*
X334126Y88524D01*
X334304Y88258D01*
X334510Y87949D01*
X334511Y87949D01*
X334511Y87948D01*
X334959Y87421D01*
X335016Y87368D01*
X335056Y87321D01*
X406886Y15492D01*
X407041Y15354D01*
X407189Y15209D01*
X407299Y15124D01*
X407403Y15031D01*
X407573Y14912D01*
X407737Y14785D01*
X407856Y14713D01*
X407970Y14633D01*
X408152Y14534D01*
X408330Y14427D01*
X408456Y14370D01*
X408579Y14303D01*
X408771Y14226D01*
X408960Y14140D01*
X409092Y14098D01*
X409221Y14046D01*
X409422Y13991D01*
X409619Y13928D01*
X409755Y13900D01*
X409890Y13864D01*
X410095Y13833D01*
X410298Y13792D01*
X410417Y13784D01*
X410574Y13760D01*
X410944Y13748D01*
X411128Y13735D01*
X611630Y13735D01*
X611768Y13743D01*
X611907Y13741D01*
X612114Y13763D01*
X612321Y13775D01*
X612458Y13799D01*
X612595Y13813D01*
X612799Y13858D01*
X613003Y13894D01*
X613136Y13933D01*
X613271Y13964D01*
X613468Y14032D01*
X613667Y14091D01*
X613795Y14146D01*
X613925Y14191D01*
X614113Y14282D01*
X614304Y14364D01*
X614424Y14432D01*
X614549Y14493D01*
X614724Y14604D01*
X614905Y14708D01*
X615016Y14790D01*
X615133Y14864D01*
X615295Y14995D01*
X615462Y15118D01*
X615564Y15213D01*
X615671Y15300D01*
X615817Y15449D01*
X615969Y15591D01*
X616059Y15696D01*
X616155Y15795D01*
X616282Y15960D01*
X616417Y16118D01*
X616494Y16233D01*
X616579Y16343D01*
X616686Y16521D01*
X616802Y16694D01*
X616865Y16817D01*
X616937Y16936D01*
X617023Y17126D01*
X617118Y17310D01*
X617166Y17440D01*
X617224Y17566D01*
X617288Y17764D01*
X617361Y17959D01*
X617394Y18093D01*
X617436Y18225D01*
X617477Y18429D01*
X617527Y18631D01*
X617545Y18768D01*
X617572Y18904D01*
X617583Y19070D01*
X617615Y19318D01*
X617618Y19568D01*
X617629Y19734D01*
X617629Y39544D01*
X619102Y43098D01*
X622378Y46375D01*
X622529Y46497D01*
X622530Y46498D01*
X622787Y46761D01*
X623013Y46992D01*
X623014Y46993D01*
X623269Y47323D01*
X623437Y47540D01*
X623437Y47541D01*
X623634Y47866D01*
X623795Y48133D01*
X623795Y48134D01*
X623927Y48424D01*
X624082Y48763D01*
X624082Y48764D01*
X624156Y48994D01*
X624294Y49422D01*
X624294Y49423D01*
X624295Y49423D01*
X624351Y49707D01*
X624430Y50101D01*
X624430Y50102D01*
X624486Y50792D01*
X624483Y50870D01*
X624487Y50931D01*
X624487Y277050D01*
X624475Y277257D01*
X624473Y277465D01*
X624455Y277602D01*
X624447Y277741D01*
X624412Y277946D01*
X624385Y278151D01*
X624352Y278286D01*
X624328Y278423D01*
X624269Y278622D01*
X624219Y278824D01*
X624170Y278954D01*
X624131Y279087D01*
X624049Y279278D01*
X623976Y279472D01*
X623913Y279596D01*
X623858Y279724D01*
X623755Y279904D01*
X623661Y280089D01*
X623583Y280204D01*
X623514Y280325D01*
X623392Y280492D01*
X623276Y280664D01*
X623198Y280754D01*
X623104Y280882D01*
X622851Y281153D01*
X622730Y281292D01*
X596780Y307242D01*
X596573Y307426D01*
X596371Y307615D01*
X596315Y307656D01*
X596263Y307703D01*
X596037Y307862D01*
X595814Y308026D01*
X595753Y308061D01*
X595696Y308101D01*
X595453Y308232D01*
X595212Y308370D01*
X595149Y308397D01*
X595087Y308431D01*
X594831Y308533D01*
X594576Y308643D01*
X594509Y308662D01*
X594445Y308688D01*
X594178Y308761D01*
X593912Y308840D01*
X593843Y308852D01*
X593776Y308870D01*
X593503Y308911D01*
X593230Y308959D01*
X593160Y308963D01*
X593092Y308974D01*
X592815Y308983D01*
X592539Y308999D01*
X592469Y308995D01*
X592400Y308998D01*
X592123Y308975D01*
X591847Y308959D01*
X591779Y308947D01*
X591709Y308942D01*
X591438Y308888D01*
X591165Y308840D01*
X591098Y308820D01*
X591030Y308807D01*
X590767Y308722D01*
X590501Y308643D01*
X590437Y308616D01*
X590371Y308594D01*
X590119Y308479D01*
X589865Y308371D01*
X589804Y308336D01*
X589741Y308307D01*
X589504Y308164D01*
X589263Y308027D01*
X589207Y307986D01*
X589148Y307950D01*
X588929Y307781D01*
X588706Y307616D01*
X588655Y307568D01*
X588600Y307526D01*
X588403Y307333D01*
X588200Y307144D01*
X588154Y307091D01*
X588105Y307042D01*
X587931Y306828D01*
X587751Y306616D01*
X587712Y306558D01*
X587669Y306504D01*
X587520Y306271D01*
X587366Y306040D01*
X587339Y305985D01*
X587297Y305920D01*
X586996Y305296D01*
X586995Y305296D01*
X585121Y300771D01*
X583292Y298942D01*
X583200Y298839D01*
X583101Y298742D01*
X582970Y298581D01*
X582832Y298425D01*
X582752Y298312D01*
X582665Y298204D01*
X582553Y298029D01*
X582434Y297858D01*
X582368Y297737D01*
X582294Y297620D01*
X582203Y297432D01*
X582104Y297249D01*
X582052Y297121D01*
X581992Y296996D01*
X581924Y296800D01*
X581846Y296607D01*
X581810Y296473D01*
X581764Y296342D01*
X581719Y296139D01*
X581664Y295938D01*
X581644Y295802D01*
X581614Y295667D01*
X581592Y295459D01*
X581561Y295254D01*
X581556Y295116D01*
X581542Y294978D01*
X581544Y294770D01*
X581537Y294562D01*
X581548Y294424D01*
X581549Y294285D01*
X581576Y294079D01*
X581593Y293871D01*
X581620Y293736D01*
X581637Y293598D01*
X581687Y293396D01*
X581728Y293192D01*
X581770Y293061D01*
X581803Y292926D01*
X581876Y292731D01*
X581940Y292533D01*
X581997Y292407D01*
X582046Y292278D01*
X582141Y292092D01*
X582227Y291903D01*
X582299Y291784D01*
X582362Y291661D01*
X582477Y291488D01*
X582585Y291310D01*
X582669Y291201D01*
X582746Y291085D01*
X582856Y290960D01*
X583008Y290762D01*
X583183Y290583D01*
X583292Y290458D01*
X585121Y288629D01*
X586903Y284328D01*
X586903Y279672D01*
X585121Y275371D01*
X583639Y273889D01*
X583546Y273785D01*
X583448Y273688D01*
X583317Y273527D01*
X583178Y273371D01*
X583099Y273258D01*
X583011Y273151D01*
X582900Y272975D01*
X582780Y272805D01*
X582714Y272683D01*
X582640Y272566D01*
X582549Y272379D01*
X582450Y272196D01*
X582399Y272067D01*
X582338Y271943D01*
X582270Y271746D01*
X582193Y271553D01*
X582156Y271419D01*
X582111Y271289D01*
X582066Y271086D01*
X582011Y270885D01*
X581990Y270748D01*
X581960Y270613D01*
X581938Y270406D01*
X581907Y270200D01*
X581902Y270062D01*
X581888Y269924D01*
X581890Y269716D01*
X581883Y269508D01*
X581894Y269370D01*
X581896Y269232D01*
X581922Y269025D01*
X581939Y268818D01*
X581966Y268682D01*
X581984Y268545D01*
X582034Y268342D01*
X582074Y268139D01*
X582117Y268007D01*
X582150Y267873D01*
X582223Y267678D01*
X582287Y267480D01*
X582344Y267354D01*
X582392Y267224D01*
X582487Y267039D01*
X582574Y266849D01*
X582645Y266731D01*
X582708Y266608D01*
X582824Y266435D01*
X582931Y266256D01*
X583016Y266147D01*
X583093Y266032D01*
X583202Y265906D01*
X583355Y265709D01*
X583530Y265530D01*
X583639Y265404D01*
X584387Y264656D01*
X585360Y263388D01*
X585815Y262599D01*
X575200Y262599D01*
X564585Y262599D01*
X565040Y263388D01*
X566013Y264656D01*
X566761Y265404D01*
X566853Y265508D01*
X566952Y265604D01*
X567083Y265766D01*
X567222Y265921D01*
X567301Y266034D01*
X567389Y266142D01*
X567500Y266318D01*
X567620Y266488D01*
X567686Y266610D01*
X567760Y266727D01*
X567851Y266914D01*
X567950Y267097D01*
X568001Y267226D01*
X568061Y267350D01*
X568130Y267546D01*
X568207Y267740D01*
X568244Y267874D01*
X568289Y268004D01*
X568334Y268207D01*
X568389Y268408D01*
X568410Y268545D01*
X568440Y268680D01*
X568462Y268887D01*
X568493Y269093D01*
X568498Y269231D01*
X568512Y269369D01*
X568510Y269577D01*
X568517Y269785D01*
X568506Y269923D01*
X568504Y270061D01*
X568478Y270267D01*
X568461Y270475D01*
X568434Y270611D01*
X568416Y270748D01*
X568366Y270950D01*
X568326Y271154D01*
X568283Y271286D01*
X568250Y271420D01*
X568177Y271615D01*
X568113Y271813D01*
X568056Y271939D01*
X568008Y272069D01*
X567913Y272254D01*
X567826Y272443D01*
X567755Y272562D01*
X567692Y272685D01*
X567576Y272858D01*
X567469Y273036D01*
X567384Y273146D01*
X567307Y273261D01*
X567198Y273386D01*
X567045Y273584D01*
X566871Y273763D01*
X566761Y273889D01*
X565279Y275371D01*
X563497Y279672D01*
X563497Y284328D01*
X565279Y288629D01*
X567108Y290458D01*
X567200Y290561D01*
X567299Y290658D01*
X567430Y290819D01*
X567568Y290975D01*
X567648Y291088D01*
X567735Y291196D01*
X567847Y291372D01*
X567966Y291542D01*
X568032Y291663D01*
X568106Y291780D01*
X568197Y291968D01*
X568296Y292151D01*
X568348Y292279D01*
X568408Y292404D01*
X568476Y292600D01*
X568554Y292793D01*
X568590Y292927D01*
X568636Y293058D01*
X568681Y293260D01*
X568736Y293461D01*
X568756Y293598D01*
X568786Y293733D01*
X568808Y293940D01*
X568839Y294146D01*
X568844Y294284D01*
X568858Y294422D01*
X568856Y294630D01*
X568863Y294838D01*
X568852Y294976D01*
X568851Y295115D01*
X568824Y295321D01*
X568807Y295528D01*
X568780Y295664D01*
X568763Y295802D01*
X568713Y296003D01*
X568672Y296208D01*
X568630Y296339D01*
X568597Y296474D01*
X568524Y296669D01*
X568460Y296867D01*
X568403Y296993D01*
X568354Y297122D01*
X568259Y297308D01*
X568173Y297497D01*
X568102Y297615D01*
X568038Y297739D01*
X567923Y297912D01*
X567815Y298090D01*
X567730Y298200D01*
X567654Y298315D01*
X567545Y298440D01*
X567392Y298638D01*
X567217Y298817D01*
X567108Y298942D01*
X565279Y300771D01*
X563497Y305072D01*
X563497Y309728D01*
X563544Y309841D01*
X563772Y310495D01*
X563843Y310816D01*
X563922Y311170D01*
X563922Y311171D01*
X563951Y311442D01*
X563994Y311859D01*
X563991Y312187D01*
X563986Y312551D01*
X563986Y312552D01*
X563926Y313024D01*
X563899Y313238D01*
X563899Y313239D01*
X563837Y313490D01*
X563732Y313910D01*
X563732Y313911D01*
X563637Y314164D01*
X563510Y314506D01*
X563490Y314559D01*
X563336Y314859D01*
X563174Y315175D01*
X563174Y315176D01*
X563083Y315312D01*
X562790Y315751D01*
X562789Y315751D01*
X562789Y315752D01*
X562341Y316279D01*
X562284Y316332D01*
X562244Y316379D01*
X522816Y355807D01*
X522797Y355851D01*
X522767Y355913D01*
X522743Y355978D01*
X522616Y356225D01*
X522496Y356475D01*
X522459Y356533D01*
X522427Y356594D01*
X522273Y356825D01*
X522124Y357059D01*
X522081Y357113D01*
X522042Y357170D01*
X521922Y357309D01*
X521688Y357597D01*
X521575Y357708D01*
X521497Y357798D01*
X369449Y509845D01*
X369294Y509984D01*
X369145Y510128D01*
X369036Y510213D01*
X368932Y510306D01*
X368762Y510425D01*
X368598Y510552D01*
X368479Y510624D01*
X368365Y510703D01*
X368183Y510802D01*
X368005Y510910D01*
X367879Y510967D01*
X367757Y511033D01*
X367564Y511111D01*
X367375Y511197D01*
X367243Y511239D01*
X367114Y511291D01*
X366913Y511346D01*
X366715Y511409D01*
X366580Y511436D01*
X366446Y511473D01*
X366240Y511504D01*
X366036Y511545D01*
X365898Y511556D01*
X365761Y511576D01*
X365554Y511584D01*
X365346Y511601D01*
X365207Y511596D01*
X365069Y511601D01*
X364862Y511584D01*
X364654Y511577D01*
X364517Y511556D01*
X364379Y511545D01*
X364175Y511504D01*
X363969Y511473D01*
X363835Y511437D01*
X363699Y511410D01*
X363502Y511346D01*
X363301Y511291D01*
X363172Y511240D01*
X363040Y511197D01*
X362851Y511111D01*
X362658Y511034D01*
X362536Y510968D01*
X362410Y510910D01*
X362232Y510803D01*
X362049Y510704D01*
X361936Y510624D01*
X361817Y510552D01*
X361653Y510425D01*
X361483Y510306D01*
X361379Y510214D01*
X361269Y510129D01*
X361121Y509984D01*
X360965Y509845D01*
X360873Y509742D01*
X360774Y509645D01*
X360643Y509483D01*
X360505Y509328D01*
X360425Y509215D01*
X360338Y509107D01*
X360226Y508931D01*
X360107Y508762D01*
X360041Y508640D01*
X359966Y508523D01*
X359876Y508335D01*
X359777Y508153D01*
X359725Y508024D01*
X359665Y507899D01*
X359596Y507703D01*
X359519Y507510D01*
X359483Y507376D01*
X359437Y507245D01*
X359392Y507043D01*
X359337Y506842D01*
X359316Y506705D01*
X359286Y506569D01*
X359265Y506363D01*
X359234Y506157D01*
X359229Y506019D01*
X359214Y505881D01*
X359217Y505673D01*
X359209Y505465D01*
X359221Y505327D01*
X359222Y505188D01*
X359249Y504982D01*
X359265Y504775D01*
X359292Y504639D01*
X359310Y504501D01*
X359360Y504300D01*
X359400Y504096D01*
X359438Y503983D01*
X359476Y503829D01*
X359606Y503482D01*
X359665Y503307D01*
X361603Y498628D01*
X361603Y493972D01*
X359821Y489671D01*
X358192Y488042D01*
X358100Y487939D01*
X358001Y487842D01*
X357870Y487681D01*
X357732Y487525D01*
X357652Y487412D01*
X357565Y487304D01*
X357453Y487128D01*
X357334Y486958D01*
X357268Y486837D01*
X357194Y486720D01*
X357103Y486532D01*
X357004Y486349D01*
X356952Y486221D01*
X356892Y486096D01*
X356824Y485900D01*
X356746Y485707D01*
X356710Y485573D01*
X356664Y485442D01*
X356619Y485240D01*
X356564Y485039D01*
X356544Y484902D01*
X356514Y484767D01*
X356492Y484560D01*
X356461Y484354D01*
X356456Y484216D01*
X356442Y484078D01*
X356444Y483870D01*
X356437Y483662D01*
X356448Y483524D01*
X356449Y483385D01*
X356476Y483179D01*
X356493Y482972D01*
X356520Y482836D01*
X356537Y482698D01*
X356587Y482497D01*
X356628Y482292D01*
X356670Y482161D01*
X356703Y482026D01*
X356776Y481831D01*
X356840Y481633D01*
X356897Y481507D01*
X356946Y481378D01*
X357041Y481192D01*
X357127Y481003D01*
X357198Y480885D01*
X357262Y480761D01*
X357377Y480588D01*
X357485Y480410D01*
X357569Y480301D01*
X357646Y480185D01*
X357755Y480060D01*
X357908Y479862D01*
X358083Y479683D01*
X358192Y479558D01*
X359821Y477929D01*
X361603Y473628D01*
X361603Y468972D01*
X359821Y464671D01*
X358192Y463042D01*
X358100Y462939D01*
X358001Y462842D01*
X357870Y462681D01*
X357732Y462525D01*
X357652Y462412D01*
X357565Y462304D01*
X357453Y462128D01*
X357334Y461958D01*
X357268Y461837D01*
X357194Y461720D01*
X357103Y461532D01*
X357004Y461349D01*
X356952Y461221D01*
X356892Y461096D01*
X356824Y460900D01*
X356746Y460707D01*
X356710Y460573D01*
X356664Y460442D01*
X356619Y460240D01*
X356564Y460039D01*
X356544Y459902D01*
X356514Y459767D01*
X356492Y459560D01*
X356461Y459354D01*
X356456Y459216D01*
X356442Y459078D01*
X356444Y458870D01*
X356437Y458662D01*
X356448Y458524D01*
X356449Y458385D01*
X356476Y458179D01*
X356493Y457972D01*
X356520Y457836D01*
X356537Y457698D01*
X356587Y457497D01*
X356628Y457292D01*
X356670Y457161D01*
X356703Y457026D01*
X356776Y456831D01*
X356840Y456633D01*
X356897Y456507D01*
X356946Y456378D01*
X357041Y456192D01*
X357127Y456003D01*
X357198Y455885D01*
X357262Y455761D01*
X357377Y455588D01*
X357485Y455410D01*
X357569Y455301D01*
X357646Y455185D01*
X357755Y455060D01*
X357908Y454862D01*
X358083Y454683D01*
X358192Y454558D01*
X359821Y452929D01*
X361603Y448628D01*
X361603Y443972D01*
X359821Y439671D01*
X358192Y438042D01*
X358100Y437939D01*
X358001Y437842D01*
X357870Y437681D01*
X357732Y437525D01*
X357652Y437412D01*
X357565Y437304D01*
X357453Y437128D01*
X357334Y436958D01*
X357268Y436837D01*
X357194Y436720D01*
X357103Y436532D01*
X357004Y436349D01*
X356952Y436221D01*
X356892Y436096D01*
X356824Y435900D01*
X356746Y435707D01*
X356710Y435573D01*
X356664Y435442D01*
X356619Y435240D01*
X356564Y435039D01*
X356544Y434902D01*
X356514Y434767D01*
X356492Y434560D01*
X356461Y434354D01*
X356456Y434216D01*
X356442Y434078D01*
X356444Y433870D01*
X356437Y433662D01*
X356448Y433524D01*
X356449Y433385D01*
X356476Y433179D01*
X356493Y432972D01*
X356520Y432836D01*
X356537Y432698D01*
X356587Y432497D01*
X356628Y432292D01*
X356670Y432161D01*
X356703Y432026D01*
X356776Y431831D01*
X356840Y431633D01*
X356897Y431507D01*
X356946Y431378D01*
X357041Y431192D01*
X357127Y431003D01*
X357198Y430885D01*
X357262Y430761D01*
X357377Y430588D01*
X357485Y430410D01*
X357569Y430301D01*
X357646Y430185D01*
X357755Y430060D01*
X357908Y429862D01*
X358083Y429683D01*
X358192Y429558D01*
X359821Y427929D01*
X361603Y423628D01*
X361603Y418972D01*
X359821Y414671D01*
X358192Y413042D01*
X358100Y412939D01*
X358001Y412842D01*
X357870Y412681D01*
X357732Y412525D01*
X357652Y412412D01*
X357565Y412304D01*
X357453Y412128D01*
X357334Y411958D01*
X357268Y411837D01*
X357194Y411720D01*
X357103Y411532D01*
X357004Y411349D01*
X356952Y411221D01*
X356892Y411096D01*
X356824Y410900D01*
X356746Y410707D01*
X356710Y410573D01*
X356664Y410442D01*
X356619Y410240D01*
X356564Y410039D01*
X356544Y409902D01*
X356514Y409767D01*
X356492Y409560D01*
X356461Y409354D01*
X356456Y409216D01*
X356442Y409078D01*
X356444Y408870D01*
X356437Y408662D01*
X356448Y408524D01*
X356449Y408385D01*
X356476Y408179D01*
X356493Y407972D01*
X356520Y407836D01*
X356537Y407698D01*
X356587Y407497D01*
X356628Y407292D01*
X356670Y407161D01*
X356703Y407026D01*
X356776Y406831D01*
X356840Y406633D01*
X356897Y406507D01*
X356946Y406378D01*
X357041Y406192D01*
X357127Y406003D01*
X357198Y405885D01*
X357262Y405761D01*
X357377Y405588D01*
X357485Y405410D01*
X357569Y405301D01*
X357646Y405185D01*
X357755Y405060D01*
X357908Y404862D01*
X358083Y404683D01*
X358192Y404558D01*
X359821Y402929D01*
X361603Y398628D01*
X361603Y393972D01*
X359821Y389671D01*
X358192Y388042D01*
X358100Y387939D01*
X358001Y387842D01*
X357870Y387681D01*
X357732Y387525D01*
X357652Y387412D01*
X357565Y387304D01*
X357453Y387128D01*
X357334Y386958D01*
X357268Y386837D01*
X357194Y386720D01*
X357103Y386532D01*
X357004Y386349D01*
X356952Y386221D01*
X356892Y386096D01*
X356824Y385900D01*
X356746Y385707D01*
X356710Y385573D01*
X356664Y385442D01*
X356619Y385240D01*
X356564Y385039D01*
X356544Y384902D01*
X356514Y384767D01*
X356492Y384560D01*
X356461Y384354D01*
X356456Y384216D01*
X356442Y384078D01*
X356444Y383870D01*
X356437Y383662D01*
X356448Y383524D01*
X356449Y383385D01*
X356476Y383179D01*
X356493Y382972D01*
X356520Y382836D01*
X356537Y382698D01*
X356587Y382497D01*
X356628Y382292D01*
X356670Y382161D01*
X356703Y382026D01*
X356776Y381831D01*
X356840Y381633D01*
X356897Y381507D01*
X356946Y381378D01*
X357041Y381192D01*
X357127Y381003D01*
X357198Y380885D01*
X357262Y380761D01*
X357377Y380588D01*
X357485Y380410D01*
X357569Y380301D01*
X357646Y380185D01*
X357755Y380060D01*
X357908Y379862D01*
X358083Y379683D01*
X358192Y379558D01*
X359821Y377929D01*
X361603Y373628D01*
X361603Y368972D01*
X359821Y364671D01*
X356529Y361379D01*
X352228Y359597D01*
X347572Y359597D01*
X343271Y361379D01*
X339979Y364671D01*
X338197Y368972D01*
X338197Y373628D01*
X339979Y377929D01*
X341608Y379558D01*
X341700Y379661D01*
X341799Y379758D01*
X341930Y379919D01*
X342068Y380075D01*
X342148Y380188D01*
X342235Y380296D01*
X342347Y380472D01*
X342466Y380642D01*
X342532Y380763D01*
X342606Y380880D01*
X342697Y381068D01*
X342796Y381251D01*
X342848Y381379D01*
X342908Y381504D01*
X342976Y381700D01*
X343054Y381893D01*
X343090Y382027D01*
X343136Y382158D01*
X343181Y382361D01*
X343236Y382562D01*
X343256Y382698D01*
X343286Y382833D01*
X343308Y383040D01*
X343339Y383246D01*
X343344Y383384D01*
X343358Y383522D01*
X343356Y383730D01*
X343363Y383938D01*
X343352Y384076D01*
X343351Y384215D01*
X343324Y384421D01*
X343307Y384629D01*
X343280Y384764D01*
X343263Y384902D01*
X343213Y385104D01*
X343172Y385308D01*
X343130Y385439D01*
X343097Y385574D01*
X343024Y385769D01*
X342960Y385967D01*
X342903Y386093D01*
X342854Y386222D01*
X342759Y386408D01*
X342673Y386597D01*
X342601Y386716D01*
X342538Y386839D01*
X342423Y387012D01*
X342315Y387190D01*
X342231Y387299D01*
X342154Y387415D01*
X342044Y387540D01*
X341892Y387738D01*
X341717Y387917D01*
X341608Y388042D01*
X339979Y389671D01*
X338197Y393972D01*
X338197Y398628D01*
X339979Y402929D01*
X341608Y404558D01*
X341700Y404661D01*
X341799Y404758D01*
X341930Y404919D01*
X342068Y405075D01*
X342148Y405188D01*
X342235Y405296D01*
X342347Y405472D01*
X342466Y405642D01*
X342532Y405763D01*
X342606Y405880D01*
X342697Y406068D01*
X342796Y406251D01*
X342848Y406379D01*
X342908Y406504D01*
X342976Y406700D01*
X343054Y406893D01*
X343090Y407027D01*
X343136Y407158D01*
X343181Y407361D01*
X343236Y407562D01*
X343256Y407698D01*
X343286Y407833D01*
X343308Y408040D01*
X343339Y408246D01*
X343344Y408384D01*
X343358Y408522D01*
X343356Y408730D01*
X343363Y408938D01*
X343352Y409076D01*
X343351Y409215D01*
X343324Y409421D01*
X343307Y409629D01*
X343280Y409764D01*
X343263Y409902D01*
X343213Y410104D01*
X343172Y410308D01*
X343130Y410439D01*
X343097Y410574D01*
X343024Y410769D01*
X342960Y410967D01*
X342903Y411093D01*
X342854Y411222D01*
X342759Y411408D01*
X342673Y411597D01*
X342601Y411716D01*
X342538Y411839D01*
X342423Y412012D01*
X342315Y412190D01*
X342231Y412299D01*
X342154Y412415D01*
X342044Y412540D01*
X341892Y412738D01*
X341717Y412917D01*
X341608Y413042D01*
X339979Y414671D01*
X338197Y418972D01*
X338197Y423628D01*
X339979Y427929D01*
X341608Y429558D01*
X341700Y429661D01*
X341799Y429758D01*
X341930Y429919D01*
X342068Y430075D01*
X342148Y430188D01*
X342235Y430296D01*
X342347Y430472D01*
X342466Y430642D01*
X342532Y430763D01*
X342606Y430880D01*
X342697Y431068D01*
X342796Y431251D01*
X342848Y431379D01*
X342908Y431504D01*
X342976Y431700D01*
X343054Y431893D01*
X343090Y432027D01*
X343136Y432158D01*
X343181Y432361D01*
X343236Y432562D01*
X343256Y432698D01*
X343286Y432833D01*
X343308Y433040D01*
X343339Y433246D01*
X343344Y433384D01*
X343358Y433522D01*
X343356Y433730D01*
X343363Y433938D01*
X343352Y434076D01*
X343351Y434215D01*
X343324Y434421D01*
X343307Y434629D01*
X343280Y434764D01*
X343263Y434902D01*
X343213Y435104D01*
X343172Y435308D01*
X343130Y435439D01*
X343097Y435574D01*
X343024Y435769D01*
X342960Y435967D01*
X342903Y436093D01*
X342854Y436222D01*
X342759Y436408D01*
X342673Y436597D01*
X342601Y436716D01*
X342538Y436839D01*
X342423Y437012D01*
X342315Y437190D01*
X342231Y437299D01*
X342154Y437415D01*
X342044Y437540D01*
X341892Y437738D01*
X341717Y437917D01*
X341608Y438042D01*
X339979Y439671D01*
X338197Y443972D01*
X338197Y448628D01*
X339979Y452929D01*
X341608Y454558D01*
X341700Y454661D01*
X341799Y454758D01*
X341930Y454919D01*
X342068Y455075D01*
X342148Y455188D01*
X342235Y455296D01*
X342347Y455472D01*
X342466Y455642D01*
X342532Y455763D01*
X342606Y455880D01*
X342697Y456068D01*
X342796Y456251D01*
X342848Y456379D01*
X342908Y456504D01*
X342976Y456700D01*
X343054Y456893D01*
X343090Y457027D01*
X343136Y457158D01*
X343181Y457361D01*
X343236Y457562D01*
X343256Y457698D01*
X343286Y457833D01*
X343308Y458040D01*
X343339Y458246D01*
X343344Y458384D01*
X343358Y458522D01*
X343356Y458730D01*
X343363Y458938D01*
X343352Y459076D01*
X343351Y459215D01*
X343324Y459421D01*
X343307Y459629D01*
X343280Y459764D01*
X343263Y459902D01*
X343213Y460104D01*
X343172Y460308D01*
X343130Y460439D01*
X343097Y460574D01*
X343024Y460769D01*
X342960Y460967D01*
X342903Y461093D01*
X342854Y461222D01*
X342759Y461408D01*
X342673Y461597D01*
X342601Y461716D01*
X342538Y461839D01*
X342423Y462012D01*
X342315Y462190D01*
X342231Y462299D01*
X342154Y462415D01*
X342044Y462540D01*
X341892Y462738D01*
X341717Y462917D01*
X341608Y463042D01*
X339979Y464671D01*
X338197Y468972D01*
X338197Y473628D01*
X339979Y477929D01*
X341608Y479558D01*
X341700Y479661D01*
X341799Y479758D01*
X341930Y479919D01*
X342068Y480075D01*
X342148Y480188D01*
X342235Y480296D01*
X342347Y480472D01*
X342466Y480642D01*
X342532Y480763D01*
X342606Y480880D01*
X342697Y481068D01*
X342796Y481251D01*
X342848Y481379D01*
X342908Y481504D01*
X342976Y481700D01*
X343054Y481893D01*
X343090Y482027D01*
X343136Y482158D01*
X343181Y482361D01*
X343236Y482562D01*
X343256Y482698D01*
X343286Y482833D01*
X343308Y483040D01*
X343339Y483246D01*
X343344Y483384D01*
X343358Y483522D01*
X343356Y483730D01*
X343363Y483938D01*
X343352Y484076D01*
X343351Y484215D01*
X343324Y484421D01*
X343307Y484629D01*
X343280Y484764D01*
X343263Y484902D01*
X343213Y485104D01*
X343172Y485308D01*
X343130Y485439D01*
X343097Y485574D01*
X343024Y485769D01*
X342960Y485967D01*
X342903Y486093D01*
X342854Y486222D01*
X342759Y486408D01*
X342673Y486597D01*
X342601Y486716D01*
X342538Y486839D01*
X342423Y487012D01*
X342315Y487190D01*
X342231Y487299D01*
X342154Y487415D01*
X342044Y487540D01*
X341892Y487738D01*
X341717Y487917D01*
X341608Y488042D01*
X339979Y489671D01*
X338197Y493972D01*
X338197Y498628D01*
X339979Y502929D01*
X341608Y504558D01*
X341700Y504661D01*
X341799Y504758D01*
X341930Y504919D01*
X342068Y505075D01*
X342148Y505188D01*
X342235Y505296D01*
X342347Y505472D01*
X342466Y505642D01*
X342532Y505763D01*
X342606Y505880D01*
X342697Y506068D01*
X342796Y506251D01*
X342848Y506379D01*
X342908Y506504D01*
X342976Y506700D01*
X343054Y506893D01*
X343090Y507027D01*
X343136Y507158D01*
X343181Y507361D01*
X343236Y507562D01*
X343256Y507698D01*
X343286Y507833D01*
X343308Y508040D01*
X343339Y508246D01*
X343344Y508384D01*
X343358Y508522D01*
X343356Y508730D01*
X343363Y508938D01*
X343352Y509076D01*
X343351Y509215D01*
X343324Y509421D01*
X343307Y509629D01*
X343280Y509764D01*
X343263Y509902D01*
X343213Y510104D01*
X343172Y510308D01*
X343130Y510439D01*
X343097Y510574D01*
X343024Y510769D01*
X342960Y510967D01*
X342903Y511093D01*
X342854Y511222D01*
X342759Y511408D01*
X342673Y511597D01*
X342601Y511716D01*
X342538Y511839D01*
X342423Y512012D01*
X342315Y512190D01*
X342231Y512299D01*
X342154Y512415D01*
X342044Y512540D01*
X341892Y512738D01*
X341717Y512917D01*
X341608Y513042D01*
X339979Y514671D01*
X338197Y518972D01*
X338197Y523628D01*
X339979Y527929D01*
X342147Y530097D01*
X342239Y530200D01*
X342338Y530297D01*
X342468Y530458D01*
X342607Y530614D01*
X342687Y530727D01*
X342774Y530835D01*
X342886Y531010D01*
X343005Y531181D01*
X343071Y531302D01*
X343145Y531419D01*
X343236Y531606D01*
X343335Y531789D01*
X343387Y531918D01*
X343447Y532042D01*
X343515Y532239D01*
X343593Y532432D01*
X343629Y532566D01*
X343675Y532696D01*
X343720Y532899D01*
X343774Y533100D01*
X343795Y533237D01*
X343825Y533372D01*
X343847Y533579D01*
X343878Y533785D01*
X343883Y533923D01*
X343897Y534061D01*
X343895Y534269D01*
X343902Y534477D01*
X343891Y534615D01*
X343889Y534753D01*
X343863Y534960D01*
X343846Y535167D01*
X343819Y535303D01*
X343802Y535440D01*
X343752Y535642D01*
X343711Y535847D01*
X343669Y535978D01*
X343635Y536113D01*
X343563Y536308D01*
X343499Y536506D01*
X343441Y536631D01*
X343393Y536761D01*
X343298Y536947D01*
X343212Y537136D01*
X343140Y537254D01*
X343077Y537378D01*
X342962Y537551D01*
X342854Y537729D01*
X342769Y537838D01*
X342693Y537953D01*
X342583Y538079D01*
X342430Y538277D01*
X342256Y538456D01*
X342147Y538581D01*
X340625Y540103D01*
X338959Y544124D01*
X338959Y548476D01*
X340625Y552497D01*
X343703Y555575D01*
X347724Y557241D01*
X352076Y557241D01*
X356097Y555575D01*
X359175Y552497D01*
X359225Y552376D01*
X359316Y552189D01*
X359397Y551998D01*
X359466Y551878D01*
X359527Y551753D01*
X359638Y551577D01*
X359741Y551397D01*
X359824Y551286D01*
X359898Y551168D01*
X360029Y551007D01*
X360152Y550840D01*
X360247Y550738D01*
X360334Y550630D01*
X360483Y550485D01*
X360624Y550334D01*
X360730Y550243D01*
X360830Y550146D01*
X360994Y550019D01*
X361152Y549885D01*
X361267Y549808D01*
X361377Y549723D01*
X361555Y549615D01*
X361728Y549500D01*
X361834Y549447D01*
X361970Y549365D01*
X362307Y549211D01*
X362472Y549129D01*
X363845Y548561D01*
X553745Y358661D01*
X553953Y358476D01*
X554155Y358287D01*
X554210Y358246D01*
X554262Y358200D01*
X554489Y358041D01*
X554712Y357877D01*
X554772Y357842D01*
X554829Y357802D01*
X555072Y357670D01*
X555313Y357533D01*
X555377Y357505D01*
X555438Y357472D01*
X555695Y357369D01*
X555950Y357260D01*
X556016Y357240D01*
X556081Y357214D01*
X556348Y357142D01*
X556613Y357063D01*
X556682Y357051D01*
X556749Y357033D01*
X557022Y356991D01*
X557295Y356943D01*
X557365Y356939D01*
X557434Y356929D01*
X557710Y356919D01*
X557987Y356903D01*
X558056Y356907D01*
X558126Y356905D01*
X558402Y356927D01*
X558678Y356943D01*
X558747Y356955D01*
X558816Y356961D01*
X559087Y357015D01*
X559360Y357063D01*
X559427Y357082D01*
X559495Y357096D01*
X559758Y357181D01*
X560024Y357260D01*
X560088Y357287D01*
X560154Y357308D01*
X560406Y357423D01*
X560661Y357532D01*
X560721Y357566D01*
X560784Y357595D01*
X561022Y357738D01*
X561262Y357876D01*
X561318Y357917D01*
X561377Y357953D01*
X561596Y358122D01*
X561819Y358287D01*
X561870Y358334D01*
X561925Y358377D01*
X562123Y358570D01*
X562326Y358759D01*
X562371Y358812D01*
X562421Y358861D01*
X562595Y359076D01*
X562774Y359287D01*
X562813Y359344D01*
X562857Y359398D01*
X563006Y359633D01*
X563159Y359862D01*
X563187Y359917D01*
X563228Y359983D01*
X563530Y360606D01*
X563530Y360607D01*
X565279Y364829D01*
X567108Y366658D01*
X567200Y366761D01*
X567299Y366858D01*
X567430Y367019D01*
X567568Y367175D01*
X567648Y367288D01*
X567735Y367396D01*
X567847Y367571D01*
X567966Y367742D01*
X568032Y367863D01*
X568106Y367980D01*
X568197Y368168D01*
X568296Y368351D01*
X568348Y368479D01*
X568408Y368604D01*
X568476Y368800D01*
X568554Y368993D01*
X568590Y369127D01*
X568636Y369258D01*
X568681Y369461D01*
X568736Y369662D01*
X568756Y369798D01*
X568786Y369933D01*
X568808Y370141D01*
X568839Y370346D01*
X568844Y370484D01*
X568858Y370622D01*
X568856Y370830D01*
X568863Y371038D01*
X568852Y371176D01*
X568851Y371315D01*
X568824Y371521D01*
X568807Y371729D01*
X568780Y371864D01*
X568763Y372002D01*
X568713Y372204D01*
X568672Y372408D01*
X568630Y372539D01*
X568597Y372674D01*
X568524Y372869D01*
X568460Y373067D01*
X568403Y373193D01*
X568354Y373322D01*
X568259Y373508D01*
X568173Y373697D01*
X568101Y373816D01*
X568038Y373939D01*
X567923Y374112D01*
X567815Y374290D01*
X567731Y374399D01*
X567654Y374515D01*
X567544Y374640D01*
X567392Y374838D01*
X567217Y375017D01*
X567108Y375142D01*
X565279Y376971D01*
X563497Y381272D01*
X563497Y385928D01*
X565279Y390229D01*
X567108Y392058D01*
X567200Y392161D01*
X567299Y392258D01*
X567430Y392419D01*
X567568Y392575D01*
X567648Y392688D01*
X567735Y392796D01*
X567847Y392972D01*
X567966Y393142D01*
X568032Y393263D01*
X568106Y393380D01*
X568197Y393568D01*
X568296Y393751D01*
X568348Y393879D01*
X568408Y394004D01*
X568476Y394200D01*
X568554Y394393D01*
X568590Y394527D01*
X568636Y394658D01*
X568681Y394860D01*
X568736Y395061D01*
X568756Y395198D01*
X568786Y395333D01*
X568808Y395540D01*
X568839Y395746D01*
X568844Y395884D01*
X568858Y396022D01*
X568856Y396230D01*
X568863Y396438D01*
X568852Y396576D01*
X568851Y396715D01*
X568824Y396921D01*
X568807Y397128D01*
X568780Y397264D01*
X568763Y397402D01*
X568713Y397603D01*
X568672Y397808D01*
X568630Y397939D01*
X568597Y398074D01*
X568524Y398269D01*
X568460Y398467D01*
X568403Y398593D01*
X568354Y398722D01*
X568259Y398908D01*
X568173Y399097D01*
X568102Y399215D01*
X568038Y399339D01*
X567923Y399512D01*
X567815Y399690D01*
X567730Y399800D01*
X567654Y399915D01*
X567545Y400040D01*
X567392Y400238D01*
X567217Y400417D01*
X567108Y400542D01*
X565279Y402371D01*
X563497Y406672D01*
X563497Y411328D01*
X565279Y415629D01*
X567108Y417458D01*
X567200Y417561D01*
X567299Y417658D01*
X567430Y417819D01*
X567568Y417975D01*
X567648Y418088D01*
X567735Y418196D01*
X567847Y418372D01*
X567966Y418542D01*
X568032Y418663D01*
X568106Y418780D01*
X568197Y418968D01*
X568296Y419151D01*
X568348Y419279D01*
X568408Y419404D01*
X568476Y419600D01*
X568554Y419793D01*
X568590Y419927D01*
X568636Y420058D01*
X568681Y420260D01*
X568736Y420461D01*
X568756Y420598D01*
X568786Y420733D01*
X568808Y420940D01*
X568839Y421146D01*
X568844Y421284D01*
X568858Y421422D01*
X568856Y421630D01*
X568863Y421838D01*
X568852Y421976D01*
X568851Y422115D01*
X568824Y422321D01*
X568807Y422528D01*
X568780Y422664D01*
X568763Y422802D01*
X568713Y423003D01*
X568672Y423208D01*
X568630Y423339D01*
X568597Y423474D01*
X568524Y423669D01*
X568460Y423867D01*
X568403Y423993D01*
X568354Y424122D01*
X568259Y424308D01*
X568173Y424497D01*
X568102Y424615D01*
X568038Y424739D01*
X567923Y424912D01*
X567815Y425090D01*
X567730Y425200D01*
X567654Y425315D01*
X567545Y425440D01*
X567392Y425638D01*
X567217Y425817D01*
X567108Y425942D01*
X565279Y427771D01*
X563497Y432072D01*
X563497Y436728D01*
X565279Y441029D01*
X567108Y442858D01*
X567200Y442961D01*
X567299Y443058D01*
X567430Y443219D01*
X567568Y443375D01*
X567648Y443488D01*
X567735Y443596D01*
X567847Y443772D01*
X567966Y443942D01*
X568032Y444063D01*
X568106Y444180D01*
X568197Y444368D01*
X568296Y444551D01*
X568348Y444679D01*
X568408Y444804D01*
X568476Y445000D01*
X568554Y445193D01*
X568590Y445327D01*
X568636Y445458D01*
X568681Y445660D01*
X568736Y445861D01*
X568756Y445998D01*
X568786Y446133D01*
X568808Y446340D01*
X568839Y446546D01*
X568844Y446684D01*
X568858Y446822D01*
X568856Y447030D01*
X568863Y447238D01*
X568852Y447376D01*
X568851Y447515D01*
X568824Y447721D01*
X568807Y447928D01*
X568780Y448064D01*
X568763Y448202D01*
X568713Y448403D01*
X568672Y448608D01*
X568630Y448739D01*
X568597Y448874D01*
X568524Y449069D01*
X568460Y449267D01*
X568403Y449393D01*
X568354Y449522D01*
X568259Y449708D01*
X568173Y449897D01*
X568102Y450015D01*
X568038Y450139D01*
X567923Y450312D01*
X567815Y450490D01*
X567730Y450600D01*
X567654Y450715D01*
X567545Y450840D01*
X567392Y451038D01*
X567217Y451217D01*
X567108Y451342D01*
X565279Y453171D01*
X563497Y457472D01*
X563497Y462128D01*
X565279Y466429D01*
X567108Y468258D01*
X567200Y468361D01*
X567299Y468458D01*
X567430Y468619D01*
X567568Y468775D01*
X567648Y468888D01*
X567735Y468996D01*
X567847Y469172D01*
X567966Y469342D01*
X568032Y469463D01*
X568106Y469580D01*
X568197Y469768D01*
X568296Y469951D01*
X568348Y470079D01*
X568408Y470204D01*
X568476Y470400D01*
X568554Y470593D01*
X568590Y470727D01*
X568636Y470858D01*
X568681Y471060D01*
X568736Y471261D01*
X568756Y471398D01*
X568786Y471533D01*
X568808Y471740D01*
X568839Y471946D01*
X568844Y472084D01*
X568858Y472222D01*
X568856Y472430D01*
X568863Y472638D01*
X568852Y472776D01*
X568851Y472915D01*
X568824Y473121D01*
X568807Y473328D01*
X568780Y473464D01*
X568763Y473602D01*
X568713Y473803D01*
X568672Y474008D01*
X568630Y474139D01*
X568597Y474274D01*
X568524Y474469D01*
X568460Y474667D01*
X568403Y474793D01*
X568354Y474922D01*
X568259Y475108D01*
X568173Y475297D01*
X568102Y475415D01*
X568038Y475539D01*
X567923Y475712D01*
X567815Y475890D01*
X567730Y476000D01*
X567654Y476115D01*
X567545Y476240D01*
X567392Y476438D01*
X567217Y476617D01*
X567108Y476742D01*
X565279Y478571D01*
X563497Y482872D01*
X563497Y487528D01*
X565279Y491829D01*
X567108Y493658D01*
X567200Y493761D01*
X567299Y493858D01*
X567430Y494019D01*
X567568Y494175D01*
X567648Y494288D01*
X567735Y494396D01*
X567847Y494572D01*
X567966Y494742D01*
X568032Y494863D01*
X568106Y494980D01*
X568197Y495168D01*
X568296Y495351D01*
X568348Y495479D01*
X568408Y495604D01*
X568476Y495800D01*
X568554Y495993D01*
X568590Y496127D01*
X568636Y496258D01*
X568681Y496460D01*
X568736Y496661D01*
X568756Y496798D01*
X568786Y496933D01*
X568808Y497140D01*
X568839Y497346D01*
X568844Y497484D01*
X568858Y497622D01*
X568856Y497830D01*
X568863Y498038D01*
X568852Y498176D01*
X568851Y498315D01*
X568824Y498521D01*
X568807Y498728D01*
X568780Y498864D01*
X568763Y499002D01*
X568713Y499203D01*
X568672Y499408D01*
X568630Y499539D01*
X568597Y499674D01*
X568524Y499869D01*
X568460Y500067D01*
X568403Y500193D01*
X568354Y500322D01*
X568259Y500508D01*
X568173Y500697D01*
X568102Y500815D01*
X568038Y500939D01*
X567923Y501112D01*
X567815Y501290D01*
X567730Y501400D01*
X567654Y501515D01*
X567545Y501640D01*
X567392Y501838D01*
X567217Y502017D01*
X567108Y502142D01*
X565279Y503971D01*
X563497Y508272D01*
X563497Y512928D01*
X565279Y517229D01*
X567108Y519058D01*
X567200Y519161D01*
X567299Y519258D01*
X567430Y519419D01*
X567568Y519575D01*
X567648Y519688D01*
X567735Y519796D01*
X567847Y519972D01*
X567966Y520142D01*
X568032Y520263D01*
X568106Y520380D01*
X568197Y520568D01*
X568296Y520751D01*
X568348Y520879D01*
X568408Y521004D01*
X568476Y521200D01*
X568554Y521393D01*
X568590Y521527D01*
X568636Y521658D01*
X568681Y521860D01*
X568736Y522061D01*
X568756Y522198D01*
X568786Y522333D01*
X568808Y522540D01*
X568839Y522746D01*
X568844Y522884D01*
X568858Y523022D01*
X568856Y523230D01*
X568863Y523438D01*
X568852Y523576D01*
X568851Y523715D01*
X568824Y523921D01*
X568807Y524128D01*
X568780Y524264D01*
X568763Y524402D01*
X568713Y524603D01*
X568672Y524808D01*
X568630Y524939D01*
X568597Y525074D01*
X568524Y525269D01*
X568460Y525467D01*
X568403Y525593D01*
X568354Y525722D01*
X568259Y525908D01*
X568173Y526097D01*
X568102Y526215D01*
X568038Y526339D01*
X567923Y526512D01*
X567815Y526690D01*
X567730Y526800D01*
X567654Y526915D01*
X567545Y527040D01*
X567392Y527238D01*
X567217Y527417D01*
X567108Y527542D01*
X565279Y529371D01*
X563497Y533672D01*
X563497Y538328D01*
X565279Y542629D01*
X567108Y544458D01*
X567200Y544561D01*
X567299Y544658D01*
X567430Y544819D01*
X567568Y544975D01*
X567648Y545088D01*
X567735Y545196D01*
X567847Y545372D01*
X567966Y545542D01*
X568032Y545663D01*
X568106Y545780D01*
X568197Y545968D01*
X568296Y546151D01*
X568348Y546279D01*
X568408Y546404D01*
X568476Y546600D01*
X568554Y546793D01*
X568590Y546927D01*
X568636Y547058D01*
X568681Y547260D01*
X568736Y547461D01*
X568756Y547598D01*
X568786Y547733D01*
X568808Y547940D01*
X568839Y548146D01*
X568844Y548284D01*
X568858Y548422D01*
X568856Y548630D01*
X568863Y548838D01*
X568852Y548976D01*
X568851Y549115D01*
X568824Y549321D01*
X568807Y549528D01*
X568780Y549664D01*
X568763Y549802D01*
X568713Y550003D01*
X568672Y550208D01*
X568630Y550339D01*
X568597Y550474D01*
X568524Y550669D01*
X568460Y550867D01*
X568403Y550993D01*
X568354Y551122D01*
X568259Y551308D01*
X568173Y551497D01*
X568102Y551615D01*
X568038Y551739D01*
X567923Y551912D01*
X567815Y552090D01*
X567730Y552200D01*
X567654Y552315D01*
X567545Y552440D01*
X567392Y552638D01*
X567217Y552817D01*
X567108Y552942D01*
X565279Y554771D01*
X563497Y559072D01*
X563497Y563728D01*
X565279Y568029D01*
X567108Y569858D01*
X567150Y569906D01*
X567195Y569947D01*
X567241Y570001D01*
X567299Y570058D01*
X567430Y570219D01*
X567568Y570375D01*
X567615Y570442D01*
X567643Y570475D01*
X567673Y570519D01*
X567735Y570596D01*
X567847Y570772D01*
X567966Y570942D01*
X568013Y571028D01*
X568028Y571050D01*
X568045Y571083D01*
X568106Y571180D01*
X568197Y571368D01*
X568296Y571551D01*
X568339Y571657D01*
X568344Y571667D01*
X568351Y571685D01*
X568408Y571804D01*
X568476Y572000D01*
X568554Y572193D01*
X568590Y572327D01*
X568636Y572458D01*
X568681Y572660D01*
X568736Y572861D01*
X568756Y572998D01*
X568786Y573133D01*
X568808Y573340D01*
X568839Y573546D01*
X568844Y573684D01*
X568858Y573822D01*
X568856Y574030D01*
X568863Y574238D01*
X568852Y574376D01*
X568851Y574515D01*
X568824Y574721D01*
X568807Y574928D01*
X568780Y575064D01*
X568763Y575202D01*
X568713Y575403D01*
X568672Y575608D01*
X568630Y575739D01*
X568597Y575874D01*
X568524Y576069D01*
X568460Y576267D01*
X568403Y576393D01*
X568354Y576522D01*
X568259Y576708D01*
X568173Y576897D01*
X568102Y577015D01*
X568038Y577139D01*
X567923Y577312D01*
X567815Y577490D01*
X567730Y577600D01*
X567654Y577715D01*
X567545Y577840D01*
X567392Y578038D01*
X567217Y578217D01*
X567108Y578342D01*
X565279Y580171D01*
X563497Y584472D01*
X563497Y589128D01*
X565279Y593429D01*
X568571Y596721D01*
X572872Y598503D01*
X577528Y598503D01*
X581829Y596721D01*
X585121Y593429D01*
X586903Y589128D01*
X586903Y584472D01*
X585121Y580171D01*
X583292Y578342D01*
X583200Y578239D01*
X583101Y578142D01*
X582970Y577981D01*
X582832Y577825D01*
X582752Y577712D01*
X582665Y577604D01*
X582553Y577429D01*
X582434Y577258D01*
X582368Y577137D01*
X582294Y577020D01*
X582203Y576832D01*
X582104Y576649D01*
X582052Y576521D01*
X581992Y576396D01*
X581924Y576200D01*
X581846Y576007D01*
X581810Y575873D01*
X581764Y575742D01*
X581719Y575539D01*
X581664Y575338D01*
X581644Y575202D01*
X581614Y575067D01*
X581592Y574859D01*
X581561Y574654D01*
X581556Y574516D01*
X581542Y574378D01*
X581544Y574170D01*
X581537Y573962D01*
X581548Y573824D01*
X581549Y573685D01*
X581576Y573479D01*
X581593Y573271D01*
X581620Y573136D01*
X581637Y572998D01*
X581687Y572796D01*
X581728Y572592D01*
X581770Y572461D01*
X581803Y572326D01*
X581876Y572131D01*
X581940Y571933D01*
X581996Y571811D01*
X582001Y571795D01*
X582004Y571789D01*
X582046Y571678D01*
X582141Y571492D01*
X582227Y571303D01*
X582288Y571201D01*
X582303Y571172D01*
X582315Y571152D01*
X582362Y571061D01*
X582477Y570888D01*
X582585Y570710D01*
X582647Y570629D01*
X582674Y570587D01*
X582699Y570556D01*
X582746Y570485D01*
X582856Y570360D01*
X583008Y570162D01*
X583068Y570101D01*
X583110Y570049D01*
X583215Y569946D01*
X583292Y569858D01*
X585121Y568029D01*
X586903Y563728D01*
X586903Y559072D01*
X585121Y554771D01*
X583292Y552942D01*
X583200Y552839D01*
X583101Y552742D01*
X582970Y552581D01*
X582832Y552425D01*
X582752Y552312D01*
X582665Y552204D01*
X582553Y552029D01*
X582434Y551858D01*
X582368Y551737D01*
X582294Y551620D01*
X582203Y551432D01*
X582104Y551249D01*
X582052Y551121D01*
X581992Y550996D01*
X581924Y550800D01*
X581846Y550607D01*
X581810Y550473D01*
X581764Y550342D01*
X581719Y550139D01*
X581664Y549938D01*
X581644Y549802D01*
X581614Y549667D01*
X581592Y549459D01*
X581561Y549254D01*
X581556Y549116D01*
X581542Y548978D01*
X581544Y548770D01*
X581537Y548562D01*
X581548Y548424D01*
X581549Y548285D01*
X581576Y548079D01*
X581593Y547871D01*
X581620Y547736D01*
X581637Y547598D01*
X581687Y547396D01*
X581728Y547192D01*
X581770Y547061D01*
X581803Y546926D01*
X581876Y546731D01*
X581940Y546533D01*
X581997Y546407D01*
X582046Y546278D01*
X582141Y546092D01*
X582227Y545903D01*
X582299Y545784D01*
X582362Y545661D01*
X582477Y545488D01*
X582585Y545310D01*
X582669Y545201D01*
X582746Y545085D01*
X582856Y544960D01*
X583008Y544762D01*
X583183Y544583D01*
X583292Y544458D01*
X585121Y542629D01*
X586903Y538328D01*
X586903Y533672D01*
X585121Y529371D01*
X583292Y527542D01*
X583200Y527439D01*
X583101Y527342D01*
X582970Y527181D01*
X582832Y527025D01*
X582752Y526912D01*
X582665Y526804D01*
X582553Y526629D01*
X582434Y526458D01*
X582368Y526337D01*
X582294Y526220D01*
X582203Y526032D01*
X582104Y525849D01*
X582052Y525721D01*
X581992Y525596D01*
X581924Y525400D01*
X581846Y525207D01*
X581810Y525073D01*
X581764Y524942D01*
X581719Y524739D01*
X581664Y524538D01*
X581644Y524402D01*
X581614Y524267D01*
X581592Y524059D01*
X581561Y523854D01*
X581556Y523716D01*
X581542Y523578D01*
X581544Y523370D01*
X581537Y523162D01*
X581548Y523024D01*
X581549Y522885D01*
X581576Y522679D01*
X581593Y522471D01*
X581620Y522336D01*
X581637Y522198D01*
X581687Y521996D01*
X581728Y521792D01*
X581770Y521661D01*
X581803Y521526D01*
X581876Y521331D01*
X581940Y521133D01*
X581997Y521007D01*
X582046Y520878D01*
X582141Y520692D01*
X582227Y520503D01*
X582299Y520384D01*
X582362Y520261D01*
X582477Y520088D01*
X582585Y519910D01*
X582669Y519801D01*
X582746Y519685D01*
X582856Y519560D01*
X583008Y519362D01*
X583183Y519183D01*
X583292Y519058D01*
X585121Y517229D01*
X586903Y512928D01*
X586903Y508272D01*
X585121Y503971D01*
X583292Y502142D01*
X583200Y502039D01*
X583101Y501942D01*
X582970Y501781D01*
X582832Y501625D01*
X582752Y501512D01*
X582665Y501404D01*
X582553Y501229D01*
X582434Y501058D01*
X582368Y500937D01*
X582294Y500820D01*
X582203Y500632D01*
X582104Y500449D01*
X582052Y500321D01*
X581992Y500196D01*
X581924Y500000D01*
X581846Y499807D01*
X581810Y499673D01*
X581764Y499542D01*
X581719Y499339D01*
X581664Y499138D01*
X581644Y499002D01*
X581614Y498867D01*
X581592Y498659D01*
X581561Y498454D01*
X581556Y498316D01*
X581542Y498178D01*
X581544Y497970D01*
X581537Y497762D01*
X581548Y497624D01*
X581549Y497485D01*
X581576Y497279D01*
X581593Y497071D01*
X581620Y496936D01*
X581637Y496798D01*
X581687Y496596D01*
X581728Y496392D01*
X581770Y496261D01*
X581803Y496126D01*
X581876Y495931D01*
X581940Y495733D01*
X581997Y495607D01*
X582046Y495478D01*
X582141Y495292D01*
X582227Y495103D01*
X582299Y494984D01*
X582362Y494861D01*
X582477Y494688D01*
X582585Y494510D01*
X582669Y494401D01*
X582746Y494285D01*
X582856Y494160D01*
X583008Y493962D01*
X583183Y493783D01*
X583292Y493658D01*
X585121Y491829D01*
X586903Y487528D01*
X586903Y482872D01*
X585121Y478571D01*
X583292Y476742D01*
X583200Y476639D01*
X583101Y476542D01*
X582970Y476381D01*
X582832Y476225D01*
X582752Y476112D01*
X582665Y476004D01*
X582553Y475829D01*
X582434Y475658D01*
X582368Y475537D01*
X582294Y475420D01*
X582203Y475232D01*
X582104Y475049D01*
X582052Y474921D01*
X581992Y474796D01*
X581924Y474600D01*
X581846Y474407D01*
X581810Y474273D01*
X581764Y474142D01*
X581719Y473939D01*
X581664Y473738D01*
X581644Y473602D01*
X581614Y473467D01*
X581592Y473259D01*
X581561Y473054D01*
X581556Y472916D01*
X581542Y472778D01*
X581544Y472570D01*
X581537Y472362D01*
X581548Y472224D01*
X581549Y472085D01*
X581576Y471879D01*
X581593Y471671D01*
X581620Y471536D01*
X581637Y471398D01*
X581687Y471196D01*
X581728Y470992D01*
X581770Y470861D01*
X581803Y470726D01*
X581876Y470531D01*
X581940Y470333D01*
X581997Y470207D01*
X582046Y470078D01*
X582141Y469892D01*
X582227Y469703D01*
X582299Y469584D01*
X582362Y469461D01*
X582477Y469288D01*
X582585Y469110D01*
X582669Y469001D01*
X582746Y468885D01*
X582856Y468760D01*
X583008Y468562D01*
X583183Y468383D01*
X583292Y468258D01*
X585121Y466429D01*
X586903Y462128D01*
X586903Y457472D01*
X585121Y453171D01*
X583292Y451342D01*
X583200Y451239D01*
X583101Y451142D01*
X582970Y450981D01*
X582832Y450825D01*
X582752Y450712D01*
X582665Y450604D01*
X582553Y450429D01*
X582434Y450258D01*
X582368Y450137D01*
X582294Y450020D01*
X582203Y449832D01*
X582104Y449649D01*
X582052Y449521D01*
X581992Y449396D01*
X581924Y449200D01*
X581846Y449007D01*
X581810Y448873D01*
X581764Y448742D01*
X581719Y448539D01*
X581664Y448338D01*
X581644Y448202D01*
X581614Y448067D01*
X581592Y447859D01*
X581561Y447654D01*
X581556Y447516D01*
X581542Y447378D01*
X581544Y447170D01*
X581537Y446962D01*
X581548Y446824D01*
X581549Y446685D01*
X581576Y446479D01*
X581593Y446271D01*
X581620Y446136D01*
X581637Y445998D01*
X581687Y445796D01*
X581728Y445592D01*
X581770Y445461D01*
X581803Y445326D01*
X581876Y445131D01*
X581940Y444933D01*
X581997Y444807D01*
X582046Y444678D01*
X582141Y444492D01*
X582227Y444303D01*
X582299Y444184D01*
X582362Y444061D01*
X582477Y443888D01*
X582585Y443710D01*
X582669Y443601D01*
X582746Y443485D01*
X582856Y443360D01*
X583008Y443162D01*
X583183Y442983D01*
X583292Y442858D01*
X585121Y441029D01*
X586903Y436728D01*
X586903Y432072D01*
X585121Y427771D01*
X583292Y425942D01*
X583200Y425839D01*
X583101Y425742D01*
X582970Y425581D01*
X582832Y425425D01*
X582752Y425312D01*
X582665Y425204D01*
X582553Y425029D01*
X582434Y424858D01*
X582368Y424737D01*
X582294Y424620D01*
X582203Y424432D01*
X582104Y424249D01*
X582052Y424121D01*
X581992Y423996D01*
X581924Y423800D01*
X581846Y423607D01*
X581810Y423473D01*
X581764Y423342D01*
X581719Y423139D01*
X581664Y422938D01*
X581644Y422802D01*
X581614Y422667D01*
X581592Y422459D01*
X581561Y422254D01*
X581556Y422116D01*
X581542Y421978D01*
X581544Y421770D01*
X581537Y421562D01*
X581548Y421424D01*
X581549Y421285D01*
X581576Y421079D01*
X581593Y420871D01*
X581620Y420736D01*
X581637Y420598D01*
X581687Y420396D01*
X581728Y420192D01*
X581770Y420061D01*
X581803Y419926D01*
X581876Y419731D01*
X581940Y419533D01*
X581997Y419407D01*
X582046Y419278D01*
X582141Y419092D01*
X582227Y418903D01*
X582299Y418784D01*
X582362Y418661D01*
X582477Y418488D01*
X582585Y418310D01*
X582669Y418201D01*
X582746Y418085D01*
X582856Y417960D01*
X583008Y417762D01*
X583183Y417583D01*
X583292Y417458D01*
X585121Y415629D01*
X585167Y415517D01*
X585168Y415517D01*
X585469Y414893D01*
X585674Y414570D01*
X585840Y414309D01*
X585841Y414308D01*
X586028Y414078D01*
X586276Y413771D01*
X586277Y413771D01*
X586277Y413770D01*
X586668Y413389D01*
X586772Y413287D01*
X587153Y412992D01*
X587319Y412863D01*
X587320Y412863D01*
X587720Y412622D01*
X587912Y412505D01*
X587913Y412505D01*
X588308Y412325D01*
X588542Y412218D01*
X588543Y412218D01*
X588836Y412124D01*
X589201Y412006D01*
X589202Y412006D01*
X589202Y412005D01*
X589481Y411950D01*
X589881Y411870D01*
X590571Y411814D01*
X590649Y411817D01*
X590710Y411813D01*
X591560Y411813D01*
X592593Y411385D01*
X682385Y321593D01*
X682813Y320560D01*
X682813Y196350D01*
X682825Y196143D01*
X682827Y195935D01*
X682845Y195798D01*
X682853Y195659D01*
X682888Y195454D01*
X682915Y195249D01*
X682948Y195114D01*
X682972Y194977D01*
X683031Y194778D01*
X683081Y194576D01*
X683130Y194446D01*
X683169Y194313D01*
X683251Y194122D01*
X683324Y193928D01*
X683387Y193804D01*
X683442Y193676D01*
X683545Y193496D01*
X683639Y193311D01*
X683717Y193196D01*
X683786Y193075D01*
X683909Y192908D01*
X684024Y192736D01*
X684102Y192646D01*
X684196Y192518D01*
X684449Y192247D01*
X684570Y192108D01*
X809888Y66789D01*
X810266Y66453D01*
X810405Y66329D01*
X810406Y66329D01*
X810674Y66140D01*
X810972Y65931D01*
X811189Y65813D01*
X811581Y65601D01*
X811990Y65437D01*
X812223Y65343D01*
X812224Y65343D01*
X812659Y65225D01*
X812892Y65162D01*
X812892Y65161D01*
X813148Y65123D01*
X813576Y65058D01*
X813577Y65058D01*
X813804Y65050D01*
X814268Y65034D01*
X814269Y65034D01*
X814631Y65063D01*
X814959Y65090D01*
X815223Y65142D01*
X815638Y65225D01*
X816297Y65437D01*
X816368Y65469D01*
X816426Y65489D01*
X820776Y67291D01*
X824624Y67291D01*
X828178Y65818D01*
X830898Y63098D01*
X832371Y59544D01*
X832371Y40456D01*
X830898Y36902D01*
X828178Y34182D01*
X824624Y32709D01*
X820776Y32709D01*
X817222Y34182D01*
X814242Y37161D01*
X814139Y37254D01*
X814042Y37352D01*
X813881Y37483D01*
X813725Y37622D01*
X813612Y37702D01*
X813504Y37789D01*
X813329Y37900D01*
X813158Y38020D01*
X813037Y38086D01*
X812920Y38160D01*
X812733Y38251D01*
X812549Y38350D01*
X812421Y38401D01*
X812296Y38462D01*
X812100Y38530D01*
X811907Y38608D01*
X811773Y38644D01*
X811642Y38689D01*
X811440Y38735D01*
X811239Y38789D01*
X811102Y38810D01*
X810967Y38840D01*
X810759Y38862D01*
X810554Y38893D01*
X810416Y38898D01*
X810278Y38912D01*
X810070Y38910D01*
X809862Y38917D01*
X809724Y38906D01*
X809585Y38904D01*
X809379Y38878D01*
X809172Y38861D01*
X809036Y38834D01*
X808898Y38817D01*
X808697Y38767D01*
X808492Y38726D01*
X808360Y38684D01*
X808226Y38650D01*
X808031Y38578D01*
X807833Y38514D01*
X807707Y38456D01*
X807578Y38408D01*
X807392Y38313D01*
X807203Y38227D01*
X807085Y38155D01*
X806961Y38092D01*
X806788Y37977D01*
X806610Y37869D01*
X806500Y37784D01*
X806385Y37707D01*
X806260Y37598D01*
X806062Y37445D01*
X805884Y37271D01*
X805758Y37161D01*
X802778Y34182D01*
X799224Y32709D01*
X795376Y32709D01*
X791027Y34511D01*
X791026Y34511D01*
X790750Y34607D01*
X790373Y34739D01*
X790372Y34739D01*
X790073Y34805D01*
X789697Y34889D01*
X789419Y34918D01*
X789008Y34961D01*
X788579Y34956D01*
X788316Y34953D01*
X788315Y34953D01*
X787946Y34906D01*
X787629Y34866D01*
X787628Y34866D01*
X787273Y34778D01*
X786957Y34700D01*
X786957Y34699D01*
X786956Y34699D01*
X786493Y34526D01*
X786308Y34457D01*
X786025Y34312D01*
X785692Y34141D01*
X785691Y34141D01*
X785562Y34055D01*
X785116Y33757D01*
X785116Y33756D01*
X784588Y33308D01*
X784535Y33251D01*
X784488Y33211D01*
X771680Y20402D01*
X771634Y20350D01*
X771583Y20303D01*
X771404Y20092D01*
X771219Y19885D01*
X771180Y19828D01*
X771135Y19776D01*
X770981Y19546D01*
X770821Y19318D01*
X770788Y19257D01*
X770750Y19200D01*
X770624Y18954D01*
X770491Y18709D01*
X770466Y18645D01*
X770434Y18584D01*
X770337Y18324D01*
X770234Y18067D01*
X770216Y18000D01*
X770191Y17935D01*
X770125Y17665D01*
X770052Y17398D01*
X770042Y17330D01*
X770025Y17263D01*
X769990Y16987D01*
X769948Y16714D01*
X769946Y16645D01*
X769937Y16576D01*
X769934Y16299D01*
X769924Y16022D01*
X769930Y15953D01*
X769929Y15883D01*
X769958Y15607D01*
X769980Y15331D01*
X769994Y15264D01*
X770001Y15195D01*
X770061Y14924D01*
X770115Y14652D01*
X770137Y14586D01*
X770152Y14519D01*
X770243Y14257D01*
X770328Y13993D01*
X770356Y13930D01*
X770379Y13865D01*
X770500Y13615D01*
X770615Y13363D01*
X770650Y13304D01*
X770681Y13241D01*
X770829Y13007D01*
X770972Y12770D01*
X771015Y12715D01*
X771052Y12657D01*
X771227Y12441D01*
X771396Y12222D01*
X771444Y12173D01*
X771488Y12119D01*
X771686Y11925D01*
X771880Y11727D01*
X771934Y11683D01*
X771983Y11635D01*
X772202Y11466D01*
X772418Y11291D01*
X772476Y11253D01*
X772531Y11211D01*
X772768Y11068D01*
X773002Y10919D01*
X773065Y10889D01*
X773124Y10853D01*
X773376Y10739D01*
X773626Y10618D01*
X773691Y10595D01*
X773754Y10566D01*
X774018Y10481D01*
X774280Y10390D01*
X774347Y10375D01*
X774413Y10354D01*
X774685Y10299D01*
X774955Y10239D01*
X775024Y10232D01*
X775092Y10218D01*
X775276Y10206D01*
X775644Y10167D01*
X775803Y10169D01*
X775922Y10161D01*
X842010Y10161D01*
X842332Y10179D01*
X842655Y10196D01*
X842678Y10199D01*
X842701Y10201D01*
X843018Y10256D01*
X843338Y10310D01*
X843361Y10316D01*
X843384Y10320D01*
X843693Y10412D01*
X844004Y10502D01*
X844025Y10511D01*
X844047Y10517D01*
X844346Y10645D01*
X844642Y10769D01*
X844663Y10780D01*
X844684Y10790D01*
X844965Y10951D01*
X845246Y11108D01*
X845265Y11122D01*
X845285Y11134D01*
X845546Y11326D01*
X845807Y11515D01*
X845824Y11531D01*
X845843Y11544D01*
X846080Y11766D01*
X846317Y11983D01*
X846332Y12001D01*
X846349Y12017D01*
X846558Y12262D01*
X846769Y12507D01*
X846782Y12527D01*
X846797Y12544D01*
X846977Y12813D01*
X847158Y13080D01*
X847169Y13101D01*
X847182Y13120D01*
X847329Y13406D01*
X847479Y13694D01*
X847488Y13716D01*
X847498Y13736D01*
X847611Y14039D01*
X847727Y14341D01*
X847733Y14363D01*
X847741Y14385D01*
X847819Y14700D01*
X847898Y15012D01*
X847902Y15035D01*
X847907Y15057D01*
X847948Y15379D01*
X847992Y15698D01*
X847992Y15721D01*
X847995Y15744D01*
X847999Y16067D01*
X848005Y16390D01*
X848003Y16413D01*
X848003Y16437D01*
X847969Y16758D01*
X847938Y17079D01*
X847934Y17102D01*
X847931Y17125D01*
X847861Y17439D01*
X847793Y17756D01*
X847786Y17778D01*
X847781Y17801D01*
X847674Y18107D01*
X847571Y18412D01*
X847561Y18431D01*
X847553Y18455D01*
X847252Y19079D01*
X847224Y19122D01*
X847206Y19160D01*
X846554Y20288D01*
X844839Y26688D01*
X844839Y33312D01*
X846554Y39712D01*
X849866Y45449D01*
X854551Y50134D01*
X860288Y53446D01*
X866688Y55161D01*
X873312Y55161D01*
X879712Y53446D01*
X880840Y52794D01*
X881133Y52647D01*
X881416Y52502D01*
X881438Y52494D01*
X881459Y52483D01*
X881764Y52372D01*
X882065Y52259D01*
X882088Y52254D01*
X882109Y52246D01*
X882422Y52171D01*
X882737Y52093D01*
X882760Y52090D01*
X882783Y52085D01*
X883102Y52046D01*
X883424Y52005D01*
X883447Y52005D01*
X883470Y52002D01*
X883793Y52001D01*
X884117Y51997D01*
X884140Y51999D01*
X884163Y51999D01*
X884484Y52035D01*
X884805Y52069D01*
X884828Y52074D01*
X884851Y52076D01*
X885166Y52149D01*
X885481Y52219D01*
X885503Y52227D01*
X885526Y52232D01*
X885830Y52341D01*
X886135Y52447D01*
X886156Y52457D01*
X886178Y52465D01*
X886468Y52608D01*
X886759Y52748D01*
X886778Y52761D01*
X886799Y52771D01*
X887072Y52947D01*
X887343Y53120D01*
X887361Y53134D01*
X887381Y53147D01*
X887630Y53353D01*
X887881Y53556D01*
X887897Y53573D01*
X887915Y53587D01*
X888141Y53821D01*
X888365Y54051D01*
X888379Y54069D01*
X888396Y54086D01*
X888593Y54346D01*
X888789Y54599D01*
X888801Y54619D01*
X888815Y54637D01*
X888980Y54916D01*
X889147Y55192D01*
X889156Y55213D01*
X889168Y55233D01*
X889299Y55526D01*
X889434Y55822D01*
X889441Y55844D01*
X889450Y55865D01*
X889547Y56171D01*
X889646Y56481D01*
X889651Y56504D01*
X889658Y56526D01*
X889718Y56841D01*
X889782Y57160D01*
X889783Y57181D01*
X889788Y57206D01*
X889839Y57897D01*
X889836Y57948D01*
X889839Y57990D01*
X889839Y642010D01*
X889821Y642332D01*
X889804Y642655D01*
X889801Y642678D01*
X889799Y642701D01*
X889744Y643018D01*
X889690Y643338D01*
X889684Y643361D01*
X889680Y643384D01*
X889588Y643693D01*
X889498Y644004D01*
X889489Y644025D01*
X889483Y644047D01*
X889355Y644346D01*
X889231Y644642D01*
X889220Y644663D01*
X889210Y644684D01*
X889049Y644965D01*
X888892Y645246D01*
X888878Y645265D01*
X888866Y645285D01*
X888674Y645546D01*
X888485Y645807D01*
X888469Y645824D01*
X888456Y645843D01*
X888234Y646080D01*
X888017Y646317D01*
X887999Y646332D01*
X887983Y646349D01*
X887738Y646558D01*
X887493Y646769D01*
X887473Y646782D01*
X887456Y646797D01*
X887187Y646977D01*
X886920Y647158D01*
X886899Y647169D01*
X886880Y647182D01*
X886594Y647329D01*
X886306Y647479D01*
X886284Y647488D01*
X886264Y647498D01*
X885961Y647611D01*
X885659Y647727D01*
X885637Y647733D01*
X885615Y647741D01*
X885300Y647819D01*
X884988Y647898D01*
X884965Y647902D01*
X884943Y647907D01*
X884621Y647948D01*
X884302Y647992D01*
X884279Y647992D01*
X884256Y647995D01*
X883933Y647999D01*
X883610Y648005D01*
X883587Y648003D01*
X883563Y648003D01*
X883242Y647969D01*
X882921Y647938D01*
X882898Y647934D01*
X882875Y647931D01*
X882558Y647861D01*
X882244Y647793D01*
X882222Y647786D01*
X882199Y647781D01*
X881893Y647674D01*
X881588Y647571D01*
X881569Y647561D01*
X881545Y647553D01*
X880921Y647252D01*
X880878Y647224D01*
X880840Y647206D01*
X879712Y646554D01*
X873312Y644839D01*
X866688Y644839D01*
X860288Y646554D01*
X854551Y649866D01*
X849866Y654551D01*
X846554Y660288D01*
X844839Y666688D01*
X844839Y673312D01*
X846554Y679712D01*
X847206Y680840D01*
X847353Y681133D01*
X847498Y681416D01*
X847506Y681438D01*
X847517Y681459D01*
X847628Y681764D01*
X847741Y682065D01*
X847746Y682088D01*
X847754Y682109D01*
X847829Y682422D01*
X847907Y682737D01*
X847910Y682760D01*
X847915Y682783D01*
X847954Y683102D01*
X847995Y683424D01*
X847995Y683447D01*
X847998Y683470D01*
X847999Y683793D01*
X848003Y684117D01*
X848001Y684140D01*
X848001Y684163D01*
X847965Y684484D01*
X847931Y684805D01*
X847926Y684828D01*
X847924Y684851D01*
X847851Y685166D01*
X847781Y685481D01*
X847773Y685503D01*
X847768Y685526D01*
X847659Y685830D01*
X847553Y686135D01*
X847543Y686156D01*
X847535Y686178D01*
X847392Y686468D01*
X847252Y686759D01*
X847239Y686778D01*
X847229Y686799D01*
X847053Y687072D01*
X846880Y687343D01*
X846866Y687361D01*
X846853Y687381D01*
X846647Y687630D01*
X846444Y687881D01*
X846427Y687897D01*
X846413Y687915D01*
X846179Y688141D01*
X845949Y688365D01*
X845931Y688379D01*
X845914Y688396D01*
X845654Y688593D01*
X845401Y688789D01*
X845381Y688801D01*
X845363Y688815D01*
X845084Y688980D01*
X844808Y689147D01*
X844787Y689156D01*
X844767Y689168D01*
X844474Y689299D01*
X844178Y689434D01*
X844156Y689441D01*
X844135Y689450D01*
X843829Y689547D01*
X843519Y689646D01*
X843496Y689651D01*
X843474Y689658D01*
X843159Y689718D01*
X842840Y689782D01*
X842819Y689783D01*
X842794Y689788D01*
X842103Y689839D01*
X842052Y689836D01*
X842010Y689839D01*
X57990Y689839D01*
X57668Y689821D01*
X57345Y689804D01*
X57322Y689801D01*
X57299Y689799D01*
X56982Y689744D01*
X56662Y689690D01*
X56639Y689684D01*
X56616Y689680D01*
X56307Y689588D01*
X55996Y689498D01*
X55975Y689489D01*
X55953Y689483D01*
X55654Y689355D01*
X55358Y689231D01*
X55337Y689220D01*
X55316Y689210D01*
X55035Y689049D01*
X54754Y688892D01*
X54735Y688878D01*
X54715Y688866D01*
X54454Y688674D01*
X54193Y688485D01*
X54176Y688469D01*
X54157Y688456D01*
X53920Y688234D01*
X53683Y688017D01*
X53668Y687999D01*
X53651Y687983D01*
X53442Y687738D01*
X53231Y687493D01*
X53218Y687473D01*
X53203Y687456D01*
X53023Y687187D01*
X52842Y686920D01*
X52831Y686899D01*
X52818Y686880D01*
X52671Y686594D01*
X52521Y686306D01*
X52512Y686284D01*
X52502Y686264D01*
X52389Y685961D01*
X52273Y685659D01*
X52267Y685637D01*
X52259Y685615D01*
X52181Y685300D01*
X52102Y684988D01*
X52098Y684965D01*
X52093Y684943D01*
X52052Y684621D01*
X52008Y684302D01*
X52008Y684279D01*
X52005Y684256D01*
X52001Y683933D01*
X51995Y683610D01*
X51997Y683587D01*
X51997Y683563D01*
X52031Y683242D01*
X52062Y682921D01*
X52066Y682898D01*
X52069Y682875D01*
X52139Y682558D01*
X52207Y682244D01*
X52214Y682222D01*
X52219Y682199D01*
X52326Y681893D01*
X52429Y681588D01*
X52439Y681569D01*
X52447Y681545D01*
X52748Y680921D01*
X52776Y680878D01*
X52794Y680840D01*
X53446Y679712D01*
X55161Y673312D01*
X55161Y666688D01*
X53446Y660288D01*
X50134Y654551D01*
X45449Y649866D01*
X39712Y646554D01*
X33312Y644839D01*
X26688Y644839D01*
X20288Y646554D01*
X19160Y647206D01*
X18867Y647353D01*
X18584Y647498D01*
X18562Y647506D01*
X18541Y647517D01*
X18236Y647628D01*
X17935Y647741D01*
X17912Y647746D01*
X17891Y647754D01*
X17578Y647829D01*
X17263Y647907D01*
X17240Y647910D01*
X17217Y647915D01*
X16898Y647954D01*
X16576Y647995D01*
X16553Y647995D01*
X16530Y647998D01*
X16207Y647999D01*
X15883Y648003D01*
X15860Y648001D01*
X15837Y648001D01*
X15516Y647965D01*
X15195Y647931D01*
X15172Y647926D01*
X15149Y647924D01*
X14834Y647851D01*
X14519Y647781D01*
X14497Y647773D01*
X14474Y647768D01*
X14170Y647659D01*
X13865Y647553D01*
X13844Y647543D01*
X13822Y647535D01*
X13532Y647392D01*
X13241Y647252D01*
X13222Y647239D01*
X13201Y647229D01*
X12928Y647053D01*
X12657Y646880D01*
X12639Y646866D01*
X12619Y646853D01*
X12370Y646647D01*
X12119Y646444D01*
X12103Y646427D01*
X12085Y646413D01*
X11859Y646179D01*
X11635Y645949D01*
X11621Y645931D01*
X11604Y645914D01*
X11407Y645654D01*
X11211Y645401D01*
X11199Y645381D01*
X11185Y645363D01*
X11020Y645084D01*
X10853Y644808D01*
X10844Y644787D01*
X10832Y644767D01*
X10701Y644474D01*
X10566Y644178D01*
X10559Y644156D01*
X10550Y644135D01*
X10453Y643829D01*
X10354Y643519D01*
X10349Y643496D01*
X10342Y643474D01*
X10282Y643159D01*
X10218Y642840D01*
X10217Y642819D01*
X10212Y642794D01*
X10161Y642103D01*
X10164Y642052D01*
X10161Y642010D01*
X10161Y57990D01*
X10167Y57879D01*
X10167Y57878D01*
X10167Y57876D01*
X10179Y57667D01*
X10196Y57345D01*
X10199Y57322D01*
X10201Y57299D01*
X10256Y56982D01*
X10310Y56662D01*
X10316Y56639D01*
X10320Y56616D01*
X10412Y56307D01*
X10502Y55996D01*
X10511Y55975D01*
X10517Y55953D01*
X10645Y55654D01*
X10769Y55358D01*
X10780Y55337D01*
X10790Y55316D01*
X10951Y55035D01*
X11108Y54754D01*
X11122Y54735D01*
X11134Y54715D01*
X11326Y54454D01*
X11515Y54193D01*
X11531Y54176D01*
X11544Y54157D01*
X11766Y53920D01*
X11983Y53683D01*
X12001Y53668D01*
X12017Y53651D01*
X12262Y53442D01*
X12507Y53231D01*
X12527Y53218D01*
X12544Y53203D01*
X12813Y53023D01*
X13080Y52842D01*
X13101Y52831D01*
X13120Y52818D01*
X13406Y52671D01*
X13694Y52521D01*
X13716Y52512D01*
X13736Y52502D01*
X14039Y52389D01*
X14341Y52273D01*
X14363Y52267D01*
X14385Y52259D01*
X14700Y52181D01*
X15012Y52102D01*
X15035Y52098D01*
X15057Y52093D01*
X15379Y52052D01*
X15698Y52008D01*
X15721Y52008D01*
X15744Y52005D01*
X16067Y52001D01*
X16390Y51995D01*
X16413Y51997D01*
X16437Y51997D01*
X16758Y52031D01*
X17079Y52062D01*
X17102Y52066D01*
X17125Y52069D01*
X17442Y52139D01*
X17756Y52207D01*
X17778Y52214D01*
X17801Y52219D01*
X18107Y52326D01*
X18412Y52429D01*
X18431Y52439D01*
X18455Y52447D01*
X19079Y52748D01*
X19122Y52776D01*
X19160Y52794D01*
X20288Y53446D01*
X26688Y55161D01*
X33312Y55161D01*
X39712Y53446D01*
X45449Y50134D01*
X50134Y45449D01*
X53446Y39712D01*
X55161Y33312D01*
X55161Y26688D01*
X53446Y20288D01*
X52794Y19160D01*
X52647Y18867D01*
X52502Y18584D01*
X52494Y18562D01*
X52483Y18541D01*
X52372Y18236D01*
X52259Y17935D01*
X52254Y17912D01*
X52246Y17891D01*
X52171Y17578D01*
X52093Y17263D01*
X52090Y17240D01*
X52085Y17217D01*
X52046Y16898D01*
X52005Y16576D01*
X52005Y16553D01*
X52002Y16530D01*
X52001Y16207D01*
X51997Y15883D01*
X51999Y15860D01*
X51999Y15837D01*
X52035Y15516D01*
X52069Y15195D01*
X52074Y15172D01*
X52076Y15149D01*
X52149Y14834D01*
X52219Y14519D01*
X52227Y14497D01*
X52232Y14474D01*
X52341Y14170D01*
X52447Y13865D01*
X52457Y13844D01*
X52465Y13822D01*
X52608Y13532D01*
X52748Y13241D01*
X52761Y13222D01*
X52771Y13201D01*
X52947Y12928D01*
X53120Y12657D01*
X53134Y12639D01*
X53147Y12619D01*
X53353Y12370D01*
X53556Y12119D01*
X53573Y12103D01*
X53587Y12085D01*
X53821Y11859D01*
X54051Y11635D01*
X54069Y11621D01*
X54086Y11604D01*
X54346Y11407D01*
X54599Y11211D01*
X54619Y11199D01*
X54637Y11185D01*
X54916Y11020D01*
X55192Y10853D01*
X55213Y10844D01*
X55233Y10832D01*
X55526Y10701D01*
X55822Y10566D01*
X55844Y10559D01*
X55865Y10550D01*
X56171Y10453D01*
X56481Y10354D01*
X56504Y10349D01*
X56526Y10342D01*
X56841Y10282D01*
X57160Y10218D01*
X57181Y10217D01*
X57206Y10212D01*
X57897Y10161D01*
X57948Y10164D01*
X57990Y10161D01*
X389778Y10161D01*
X389847Y10165D01*
G37*
%LPC*%
G36*
X194100Y102299D02*
X194100Y102299D01*
X183485Y102299D01*
X183940Y103088D01*
X184913Y104356D01*
X185461Y104904D01*
X185554Y105008D01*
X185652Y105104D01*
X185783Y105266D01*
X185922Y105421D01*
X186001Y105535D01*
X186089Y105642D01*
X186200Y105818D01*
X186320Y105988D01*
X186386Y106110D01*
X186460Y106227D01*
X186551Y106414D01*
X186650Y106597D01*
X186701Y106726D01*
X186761Y106850D01*
X186830Y107046D01*
X186907Y107240D01*
X186944Y107373D01*
X186989Y107504D01*
X187035Y107707D01*
X187089Y107908D01*
X187110Y108045D01*
X187140Y108180D01*
X187162Y108387D01*
X187193Y108593D01*
X187198Y108731D01*
X187212Y108869D01*
X187210Y109077D01*
X187217Y109285D01*
X187206Y109423D01*
X187204Y109561D01*
X187178Y109768D01*
X187161Y109975D01*
X187134Y110111D01*
X187116Y110248D01*
X187066Y110450D01*
X187026Y110654D01*
X186983Y110786D01*
X186950Y110920D01*
X186877Y111115D01*
X186813Y111313D01*
X186756Y111439D01*
X186708Y111569D01*
X186613Y111754D01*
X186526Y111944D01*
X186455Y112062D01*
X186392Y112185D01*
X186276Y112358D01*
X186169Y112536D01*
X186084Y112646D01*
X186007Y112761D01*
X185898Y112887D01*
X185745Y113084D01*
X185571Y113263D01*
X185461Y113389D01*
X184179Y114671D01*
X182397Y118972D01*
X182397Y123628D01*
X184179Y127929D01*
X185808Y129558D01*
X185900Y129661D01*
X185999Y129758D01*
X186130Y129919D01*
X186268Y130075D01*
X186348Y130188D01*
X186435Y130296D01*
X186547Y130472D01*
X186666Y130642D01*
X186732Y130763D01*
X186806Y130880D01*
X186897Y131068D01*
X186996Y131251D01*
X187048Y131379D01*
X187108Y131504D01*
X187176Y131700D01*
X187254Y131893D01*
X187290Y132027D01*
X187336Y132158D01*
X187381Y132361D01*
X187436Y132562D01*
X187456Y132698D01*
X187486Y132833D01*
X187508Y133040D01*
X187539Y133246D01*
X187544Y133384D01*
X187558Y133522D01*
X187556Y133730D01*
X187563Y133938D01*
X187552Y134076D01*
X187551Y134215D01*
X187524Y134421D01*
X187507Y134629D01*
X187480Y134764D01*
X187463Y134902D01*
X187413Y135104D01*
X187372Y135308D01*
X187330Y135439D01*
X187297Y135574D01*
X187224Y135769D01*
X187160Y135967D01*
X187103Y136093D01*
X187054Y136222D01*
X186959Y136408D01*
X186873Y136597D01*
X186801Y136716D01*
X186738Y136839D01*
X186623Y137012D01*
X186515Y137190D01*
X186431Y137299D01*
X186354Y137415D01*
X186244Y137540D01*
X186092Y137738D01*
X185917Y137917D01*
X185808Y138042D01*
X184179Y139671D01*
X182397Y143972D01*
X182397Y148628D01*
X184179Y152929D01*
X185808Y154558D01*
X185900Y154661D01*
X185999Y154758D01*
X186130Y154919D01*
X186268Y155075D01*
X186348Y155188D01*
X186435Y155296D01*
X186547Y155472D01*
X186666Y155642D01*
X186732Y155763D01*
X186806Y155880D01*
X186897Y156068D01*
X186996Y156251D01*
X187048Y156379D01*
X187108Y156504D01*
X187176Y156700D01*
X187254Y156893D01*
X187290Y157027D01*
X187336Y157158D01*
X187381Y157361D01*
X187436Y157562D01*
X187456Y157698D01*
X187486Y157833D01*
X187508Y158040D01*
X187539Y158246D01*
X187544Y158384D01*
X187558Y158522D01*
X187556Y158730D01*
X187563Y158938D01*
X187552Y159076D01*
X187551Y159215D01*
X187524Y159421D01*
X187507Y159629D01*
X187480Y159764D01*
X187463Y159902D01*
X187413Y160104D01*
X187372Y160308D01*
X187330Y160439D01*
X187297Y160574D01*
X187224Y160769D01*
X187160Y160967D01*
X187103Y161093D01*
X187054Y161222D01*
X186959Y161408D01*
X186873Y161597D01*
X186801Y161716D01*
X186738Y161839D01*
X186623Y162012D01*
X186515Y162190D01*
X186431Y162299D01*
X186354Y162415D01*
X186244Y162540D01*
X186092Y162738D01*
X185917Y162917D01*
X185808Y163042D01*
X184179Y164671D01*
X182397Y168972D01*
X182397Y173628D01*
X184179Y177929D01*
X185808Y179558D01*
X185900Y179661D01*
X185999Y179758D01*
X186130Y179919D01*
X186268Y180075D01*
X186348Y180188D01*
X186435Y180296D01*
X186547Y180472D01*
X186666Y180642D01*
X186732Y180763D01*
X186806Y180880D01*
X186897Y181068D01*
X186996Y181251D01*
X187048Y181379D01*
X187108Y181504D01*
X187176Y181700D01*
X187254Y181893D01*
X187290Y182027D01*
X187336Y182158D01*
X187381Y182361D01*
X187436Y182562D01*
X187456Y182698D01*
X187486Y182833D01*
X187508Y183040D01*
X187539Y183246D01*
X187544Y183384D01*
X187558Y183522D01*
X187556Y183730D01*
X187563Y183938D01*
X187552Y184076D01*
X187551Y184215D01*
X187524Y184421D01*
X187507Y184629D01*
X187480Y184764D01*
X187463Y184902D01*
X187413Y185104D01*
X187372Y185308D01*
X187330Y185439D01*
X187297Y185574D01*
X187224Y185769D01*
X187160Y185967D01*
X187103Y186093D01*
X187054Y186222D01*
X186959Y186408D01*
X186873Y186597D01*
X186801Y186716D01*
X186738Y186839D01*
X186623Y187012D01*
X186515Y187190D01*
X186431Y187299D01*
X186354Y187415D01*
X186244Y187540D01*
X186092Y187738D01*
X185917Y187917D01*
X185808Y188042D01*
X184179Y189671D01*
X182397Y193972D01*
X182397Y198628D01*
X184179Y202929D01*
X185808Y204558D01*
X185900Y204661D01*
X185999Y204758D01*
X186130Y204919D01*
X186268Y205075D01*
X186348Y205188D01*
X186435Y205296D01*
X186547Y205472D01*
X186666Y205642D01*
X186732Y205763D01*
X186806Y205880D01*
X186897Y206068D01*
X186996Y206251D01*
X187048Y206379D01*
X187108Y206504D01*
X187176Y206700D01*
X187254Y206893D01*
X187290Y207027D01*
X187336Y207158D01*
X187381Y207361D01*
X187436Y207562D01*
X187456Y207698D01*
X187486Y207833D01*
X187508Y208040D01*
X187539Y208246D01*
X187544Y208384D01*
X187558Y208522D01*
X187556Y208730D01*
X187563Y208938D01*
X187552Y209076D01*
X187551Y209215D01*
X187524Y209421D01*
X187507Y209629D01*
X187480Y209764D01*
X187463Y209902D01*
X187413Y210104D01*
X187372Y210308D01*
X187330Y210439D01*
X187297Y210574D01*
X187224Y210769D01*
X187160Y210967D01*
X187103Y211093D01*
X187054Y211222D01*
X186959Y211408D01*
X186873Y211597D01*
X186801Y211716D01*
X186738Y211839D01*
X186623Y212012D01*
X186515Y212190D01*
X186431Y212299D01*
X186354Y212415D01*
X186244Y212540D01*
X186092Y212738D01*
X185917Y212917D01*
X185808Y213042D01*
X184179Y214671D01*
X182397Y218972D01*
X182397Y223767D01*
X184386Y228568D01*
X185245Y229427D01*
X185337Y229531D01*
X185436Y229628D01*
X185568Y229789D01*
X185706Y229945D01*
X185785Y230058D01*
X185873Y230165D01*
X185984Y230341D01*
X186104Y230511D01*
X186170Y230633D01*
X186244Y230750D01*
X186334Y230937D01*
X186434Y231120D01*
X186485Y231249D01*
X186545Y231373D01*
X186614Y231570D01*
X186691Y231763D01*
X186728Y231896D01*
X186773Y232027D01*
X186819Y232231D01*
X186873Y232431D01*
X186894Y232568D01*
X186924Y232703D01*
X186946Y232910D01*
X186977Y233116D01*
X186982Y233254D01*
X186996Y233392D01*
X186994Y233600D01*
X187001Y233808D01*
X186990Y233946D01*
X186988Y234084D01*
X186962Y234291D01*
X186945Y234498D01*
X186918Y234634D01*
X186900Y234771D01*
X186850Y234973D01*
X186810Y235177D01*
X186767Y235309D01*
X186734Y235444D01*
X186661Y235639D01*
X186597Y235836D01*
X186540Y235962D01*
X186491Y236092D01*
X186397Y236277D01*
X186310Y236467D01*
X186239Y236585D01*
X186176Y236708D01*
X186060Y236881D01*
X185953Y237060D01*
X185868Y237169D01*
X185791Y237284D01*
X185682Y237410D01*
X185529Y237607D01*
X185354Y237786D01*
X185245Y237912D01*
X184913Y238244D01*
X183940Y239512D01*
X183485Y240301D01*
X194100Y240301D01*
X204789Y240301D01*
X204726Y240128D01*
X204612Y239825D01*
X204607Y239803D01*
X204599Y239781D01*
X204524Y239470D01*
X204446Y239153D01*
X204443Y239130D01*
X204438Y239108D01*
X204399Y238788D01*
X204358Y238466D01*
X204358Y238443D01*
X204355Y238420D01*
X204354Y238097D01*
X204350Y237773D01*
X204353Y237751D01*
X204353Y237728D01*
X204389Y237406D01*
X204422Y237085D01*
X204427Y237062D01*
X204430Y237040D01*
X204502Y236725D01*
X204573Y236409D01*
X204580Y236387D01*
X204585Y236365D01*
X204694Y236061D01*
X204800Y235755D01*
X204810Y235734D01*
X204818Y235713D01*
X204962Y235421D01*
X205102Y235131D01*
X205114Y235112D01*
X205124Y235091D01*
X205300Y234820D01*
X205473Y234547D01*
X205487Y234529D01*
X205500Y234510D01*
X205706Y234260D01*
X205909Y234009D01*
X205925Y233993D01*
X205940Y233975D01*
X206174Y233750D01*
X206404Y233525D01*
X206422Y233511D01*
X206439Y233495D01*
X206697Y233298D01*
X206952Y233101D01*
X206972Y233089D01*
X206990Y233075D01*
X207268Y232911D01*
X207545Y232743D01*
X207566Y232734D01*
X207585Y232722D01*
X207880Y232591D01*
X208175Y232456D01*
X208197Y232449D01*
X208218Y232440D01*
X208526Y232343D01*
X208834Y232244D01*
X208857Y232239D01*
X208878Y232232D01*
X209197Y232171D01*
X209513Y232108D01*
X209534Y232107D01*
X209559Y232102D01*
X210249Y232051D01*
X210301Y232054D01*
X210343Y232051D01*
X231950Y232051D01*
X232088Y232059D01*
X232227Y232057D01*
X232434Y232079D01*
X232641Y232091D01*
X232778Y232115D01*
X232915Y232129D01*
X233119Y232174D01*
X233323Y232210D01*
X233456Y232249D01*
X233591Y232280D01*
X233788Y232348D01*
X233987Y232407D01*
X234115Y232462D01*
X234245Y232507D01*
X234433Y232598D01*
X234624Y232680D01*
X234744Y232748D01*
X234869Y232809D01*
X235044Y232920D01*
X235225Y233024D01*
X235336Y233106D01*
X235453Y233180D01*
X235615Y233311D01*
X235782Y233434D01*
X235884Y233529D01*
X235991Y233616D01*
X236137Y233765D01*
X236289Y233907D01*
X236379Y234012D01*
X236475Y234111D01*
X236602Y234276D01*
X236737Y234434D01*
X236814Y234549D01*
X236899Y234659D01*
X237006Y234837D01*
X237122Y235010D01*
X237185Y235133D01*
X237257Y235252D01*
X237343Y235442D01*
X237438Y235626D01*
X237486Y235756D01*
X237544Y235882D01*
X237608Y236080D01*
X237681Y236275D01*
X237714Y236409D01*
X237756Y236541D01*
X237797Y236745D01*
X237847Y236947D01*
X237865Y237084D01*
X237892Y237220D01*
X237903Y237386D01*
X237935Y237634D01*
X237938Y237884D01*
X237949Y238050D01*
X237949Y356316D01*
X237945Y356387D01*
X237948Y356458D01*
X237925Y356732D01*
X237909Y357007D01*
X237897Y357077D01*
X237891Y357148D01*
X237837Y357418D01*
X237790Y357689D01*
X237770Y357757D01*
X237756Y357827D01*
X237671Y358089D01*
X237593Y358353D01*
X237565Y358419D01*
X237543Y358486D01*
X237429Y358737D01*
X237320Y358990D01*
X237285Y359051D01*
X237255Y359116D01*
X237113Y359352D01*
X236976Y359591D01*
X236934Y359648D01*
X236897Y359709D01*
X236729Y359927D01*
X236566Y360148D01*
X236517Y360200D01*
X236473Y360257D01*
X236281Y360453D01*
X236093Y360654D01*
X236039Y360701D01*
X235989Y360752D01*
X235775Y360925D01*
X235566Y361103D01*
X235506Y361143D01*
X235451Y361187D01*
X235219Y361335D01*
X234990Y361488D01*
X234926Y361520D01*
X234866Y361558D01*
X234618Y361678D01*
X234374Y361804D01*
X234307Y361829D01*
X234243Y361860D01*
X233983Y361950D01*
X233725Y362046D01*
X233656Y362063D01*
X233588Y362087D01*
X233320Y362147D01*
X233053Y362213D01*
X232982Y362222D01*
X232913Y362237D01*
X232639Y362266D01*
X232366Y362300D01*
X232295Y362301D01*
X232224Y362309D01*
X231949Y362305D01*
X231673Y362309D01*
X231603Y362301D01*
X231531Y362300D01*
X231258Y362265D01*
X230985Y362237D01*
X230915Y362221D01*
X230844Y362212D01*
X230578Y362146D01*
X230309Y362086D01*
X230241Y362063D01*
X230172Y362045D01*
X229915Y361949D01*
X229655Y361858D01*
X229591Y361827D01*
X229524Y361802D01*
X229408Y361743D01*
X224228Y359597D01*
X219572Y359597D01*
X215271Y361379D01*
X211979Y364671D01*
X210197Y368972D01*
X210197Y373628D01*
X211979Y377929D01*
X213261Y379211D01*
X213353Y379315D01*
X213452Y379412D01*
X213583Y379573D01*
X213722Y379729D01*
X213801Y379842D01*
X213889Y379949D01*
X214000Y380125D01*
X214120Y380295D01*
X214186Y380417D01*
X214260Y380534D01*
X214351Y380721D01*
X214450Y380904D01*
X214501Y381033D01*
X214562Y381157D01*
X214630Y381353D01*
X214707Y381547D01*
X214744Y381681D01*
X214789Y381811D01*
X214834Y382014D01*
X214889Y382215D01*
X214910Y382352D01*
X214940Y382487D01*
X214962Y382694D01*
X214993Y382900D01*
X214998Y383038D01*
X215012Y383176D01*
X215010Y383384D01*
X215017Y383592D01*
X215006Y383730D01*
X215004Y383868D01*
X214978Y384075D01*
X214961Y384282D01*
X214934Y384418D01*
X214916Y384555D01*
X214866Y384758D01*
X214826Y384961D01*
X214783Y385093D01*
X214750Y385227D01*
X214677Y385422D01*
X214613Y385620D01*
X214556Y385746D01*
X214508Y385876D01*
X214413Y386061D01*
X214326Y386251D01*
X214255Y386369D01*
X214192Y386492D01*
X214076Y386666D01*
X213969Y386844D01*
X213884Y386953D01*
X213807Y387068D01*
X213698Y387194D01*
X213545Y387391D01*
X213370Y387570D01*
X213261Y387696D01*
X212713Y388244D01*
X211740Y389512D01*
X211285Y390301D01*
X221900Y390301D01*
X222038Y390309D01*
X222176Y390307D01*
X222383Y390329D01*
X222591Y390341D01*
X222727Y390364D01*
X222865Y390379D01*
X223068Y390424D01*
X223273Y390460D01*
X223406Y390499D01*
X223541Y390529D01*
X223737Y390598D01*
X223937Y390657D01*
X224064Y390712D01*
X224195Y390757D01*
X224382Y390848D01*
X224574Y390929D01*
X224694Y390998D01*
X224818Y391058D01*
X224994Y391170D01*
X225175Y391273D01*
X225286Y391356D01*
X225403Y391430D01*
X225565Y391561D01*
X225732Y391684D01*
X225833Y391779D01*
X225941Y391866D01*
X226086Y392014D01*
X226238Y392157D01*
X226328Y392262D01*
X226425Y392361D01*
X226552Y392525D01*
X226687Y392684D01*
X226764Y392799D01*
X226849Y392909D01*
X226956Y393087D01*
X227072Y393260D01*
X227135Y393383D01*
X227206Y393502D01*
X227293Y393691D01*
X227388Y393876D01*
X227436Y394006D01*
X227493Y394132D01*
X227557Y394330D01*
X227630Y394525D01*
X227664Y394659D01*
X227706Y394791D01*
X227747Y394995D01*
X227797Y395197D01*
X227814Y395334D01*
X227841Y395470D01*
X227853Y395636D01*
X227884Y395884D01*
X227887Y396134D01*
X227899Y396300D01*
X227891Y396438D01*
X227892Y396536D01*
X227893Y396577D01*
X227871Y396784D01*
X227859Y396991D01*
X227835Y397128D01*
X227821Y397265D01*
X227775Y397469D01*
X227740Y397674D01*
X227700Y397806D01*
X227670Y397941D01*
X227602Y398138D01*
X227542Y398337D01*
X227488Y398465D01*
X227443Y398595D01*
X227352Y398783D01*
X227270Y398974D01*
X227201Y399094D01*
X227141Y399219D01*
X227030Y399394D01*
X226926Y399575D01*
X226844Y399687D01*
X226770Y399803D01*
X226639Y399965D01*
X226515Y400133D01*
X226421Y400234D01*
X226334Y400341D01*
X226185Y400487D01*
X226043Y400639D01*
X225937Y400729D01*
X225838Y400825D01*
X225674Y400952D01*
X225515Y401087D01*
X225400Y401164D01*
X225291Y401249D01*
X225113Y401357D01*
X224940Y401472D01*
X224816Y401535D01*
X224698Y401607D01*
X224508Y401693D01*
X224323Y401788D01*
X224194Y401836D01*
X224068Y401894D01*
X223870Y401958D01*
X223675Y402031D01*
X223540Y402064D01*
X223409Y402107D01*
X223205Y402147D01*
X223002Y402197D01*
X222865Y402215D01*
X222729Y402242D01*
X222564Y402253D01*
X222316Y402285D01*
X222066Y402288D01*
X221900Y402299D01*
X211285Y402299D01*
X211740Y403088D01*
X212713Y404356D01*
X213261Y404904D01*
X213354Y405008D01*
X213452Y405104D01*
X213583Y405266D01*
X213722Y405421D01*
X213801Y405535D01*
X213889Y405642D01*
X214000Y405818D01*
X214120Y405988D01*
X214186Y406110D01*
X214260Y406227D01*
X214351Y406414D01*
X214450Y406597D01*
X214501Y406726D01*
X214561Y406850D01*
X214630Y407046D01*
X214707Y407240D01*
X214744Y407373D01*
X214789Y407504D01*
X214835Y407707D01*
X214889Y407908D01*
X214910Y408045D01*
X214940Y408180D01*
X214962Y408387D01*
X214993Y408593D01*
X214998Y408731D01*
X215012Y408869D01*
X215010Y409077D01*
X215017Y409285D01*
X215006Y409423D01*
X215004Y409561D01*
X214978Y409768D01*
X214961Y409975D01*
X214934Y410111D01*
X214916Y410248D01*
X214866Y410450D01*
X214826Y410654D01*
X214783Y410786D01*
X214750Y410920D01*
X214677Y411115D01*
X214613Y411313D01*
X214556Y411439D01*
X214508Y411569D01*
X214413Y411754D01*
X214326Y411944D01*
X214255Y412062D01*
X214192Y412185D01*
X214076Y412358D01*
X213969Y412536D01*
X213884Y412646D01*
X213807Y412761D01*
X213698Y412887D01*
X213545Y413084D01*
X213371Y413263D01*
X213261Y413389D01*
X211979Y414671D01*
X210197Y418972D01*
X210197Y423628D01*
X211979Y427929D01*
X213608Y429558D01*
X213700Y429661D01*
X213799Y429758D01*
X213930Y429919D01*
X214068Y430075D01*
X214148Y430188D01*
X214235Y430296D01*
X214347Y430472D01*
X214466Y430642D01*
X214532Y430763D01*
X214606Y430880D01*
X214697Y431068D01*
X214796Y431251D01*
X214848Y431379D01*
X214908Y431504D01*
X214976Y431700D01*
X215054Y431893D01*
X215090Y432027D01*
X215136Y432158D01*
X215181Y432360D01*
X215236Y432561D01*
X215256Y432698D01*
X215286Y432833D01*
X215308Y433040D01*
X215339Y433246D01*
X215344Y433384D01*
X215358Y433522D01*
X215356Y433730D01*
X215363Y433938D01*
X215352Y434076D01*
X215351Y434215D01*
X215324Y434421D01*
X215307Y434628D01*
X215280Y434764D01*
X215263Y434902D01*
X215213Y435103D01*
X215172Y435308D01*
X215130Y435439D01*
X215097Y435574D01*
X215024Y435769D01*
X214960Y435967D01*
X214903Y436093D01*
X214854Y436222D01*
X214759Y436408D01*
X214673Y436597D01*
X214602Y436715D01*
X214538Y436839D01*
X214423Y437012D01*
X214315Y437190D01*
X214231Y437299D01*
X214154Y437415D01*
X214045Y437540D01*
X213892Y437738D01*
X213717Y437917D01*
X213608Y438042D01*
X211979Y439671D01*
X210197Y443972D01*
X210197Y448628D01*
X211979Y452929D01*
X213608Y454558D01*
X213700Y454661D01*
X213799Y454758D01*
X213930Y454919D01*
X214068Y455075D01*
X214148Y455188D01*
X214235Y455296D01*
X214347Y455472D01*
X214466Y455642D01*
X214532Y455763D01*
X214606Y455880D01*
X214697Y456068D01*
X214796Y456251D01*
X214848Y456379D01*
X214908Y456504D01*
X214976Y456700D01*
X215054Y456893D01*
X215090Y457027D01*
X215136Y457158D01*
X215181Y457361D01*
X215236Y457562D01*
X215256Y457698D01*
X215286Y457833D01*
X215308Y458040D01*
X215339Y458246D01*
X215344Y458384D01*
X215358Y458522D01*
X215356Y458730D01*
X215363Y458938D01*
X215352Y459076D01*
X215351Y459215D01*
X215324Y459421D01*
X215307Y459629D01*
X215280Y459764D01*
X215263Y459902D01*
X215213Y460104D01*
X215172Y460308D01*
X215130Y460439D01*
X215097Y460574D01*
X215024Y460769D01*
X214960Y460967D01*
X214903Y461093D01*
X214854Y461222D01*
X214759Y461408D01*
X214673Y461597D01*
X214601Y461716D01*
X214538Y461839D01*
X214423Y462012D01*
X214315Y462190D01*
X214231Y462299D01*
X214154Y462415D01*
X214044Y462540D01*
X213892Y462738D01*
X213717Y462917D01*
X213608Y463042D01*
X211979Y464671D01*
X210197Y468972D01*
X210197Y473628D01*
X211979Y477929D01*
X213608Y479558D01*
X213700Y479661D01*
X213799Y479758D01*
X213930Y479919D01*
X214068Y480075D01*
X214148Y480188D01*
X214235Y480296D01*
X214347Y480472D01*
X214466Y480642D01*
X214532Y480763D01*
X214606Y480880D01*
X214697Y481068D01*
X214796Y481251D01*
X214848Y481379D01*
X214908Y481504D01*
X214976Y481700D01*
X215054Y481893D01*
X215090Y482027D01*
X215136Y482158D01*
X215181Y482361D01*
X215236Y482562D01*
X215256Y482698D01*
X215286Y482833D01*
X215308Y483040D01*
X215339Y483246D01*
X215344Y483384D01*
X215358Y483522D01*
X215356Y483730D01*
X215363Y483938D01*
X215352Y484076D01*
X215351Y484215D01*
X215324Y484421D01*
X215307Y484629D01*
X215280Y484764D01*
X215263Y484902D01*
X215213Y485104D01*
X215172Y485308D01*
X215130Y485439D01*
X215097Y485574D01*
X215024Y485769D01*
X214960Y485967D01*
X214903Y486093D01*
X214854Y486222D01*
X214759Y486408D01*
X214673Y486597D01*
X214601Y486716D01*
X214538Y486839D01*
X214423Y487012D01*
X214315Y487190D01*
X214231Y487299D01*
X214154Y487415D01*
X214044Y487540D01*
X213892Y487738D01*
X213717Y487917D01*
X213608Y488042D01*
X211979Y489671D01*
X210197Y493972D01*
X210197Y498628D01*
X211161Y500954D01*
X211252Y501216D01*
X211349Y501475D01*
X211366Y501543D01*
X211389Y501608D01*
X211449Y501878D01*
X211515Y502147D01*
X211524Y502216D01*
X211539Y502284D01*
X211568Y502559D01*
X211603Y502834D01*
X211604Y502904D01*
X211611Y502973D01*
X211608Y503249D01*
X211611Y503527D01*
X211604Y503596D01*
X211603Y503665D01*
X211568Y503940D01*
X211539Y504215D01*
X211524Y504283D01*
X211515Y504352D01*
X211449Y504621D01*
X211389Y504891D01*
X211366Y504957D01*
X211349Y505024D01*
X211252Y505283D01*
X211161Y505545D01*
X211131Y505608D01*
X211106Y505673D01*
X210980Y505919D01*
X210860Y506169D01*
X210822Y506227D01*
X210791Y506289D01*
X210637Y506520D01*
X210488Y506753D01*
X210445Y506807D01*
X210406Y506865D01*
X210227Y507076D01*
X210052Y507291D01*
X210003Y507340D01*
X209958Y507393D01*
X209755Y507582D01*
X209557Y507775D01*
X209502Y507818D01*
X209451Y507865D01*
X209228Y508030D01*
X209009Y508199D01*
X208950Y508235D01*
X208894Y508276D01*
X208653Y508414D01*
X208417Y508557D01*
X208353Y508586D01*
X208293Y508620D01*
X208038Y508729D01*
X207786Y508844D01*
X207720Y508865D01*
X207656Y508893D01*
X207391Y508971D01*
X207127Y509056D01*
X207059Y509070D01*
X206992Y509090D01*
X206719Y509138D01*
X206448Y509192D01*
X206386Y509196D01*
X206310Y509209D01*
X205619Y509249D01*
X205618Y509249D01*
X196303Y509249D01*
X191874Y511084D01*
X166766Y536192D01*
X166610Y536330D01*
X166462Y536475D01*
X166352Y536560D01*
X166248Y536653D01*
X166079Y536772D01*
X165915Y536899D01*
X165795Y536971D01*
X165682Y537051D01*
X165499Y537150D01*
X165322Y537257D01*
X165195Y537314D01*
X165073Y537381D01*
X164880Y537458D01*
X164691Y537544D01*
X164559Y537586D01*
X164430Y537638D01*
X164230Y537693D01*
X164032Y537756D01*
X163896Y537784D01*
X163762Y537820D01*
X163557Y537851D01*
X163353Y537892D01*
X163234Y537900D01*
X163077Y537924D01*
X162707Y537936D01*
X162523Y537949D01*
X47603Y537949D01*
X43174Y539784D01*
X39784Y543174D01*
X37949Y547603D01*
X37949Y552397D01*
X39784Y556826D01*
X43174Y560216D01*
X47603Y562051D01*
X172397Y562051D01*
X176826Y560216D01*
X200230Y536813D01*
X200350Y536705D01*
X200464Y536591D01*
X200609Y536475D01*
X200747Y536352D01*
X200879Y536259D01*
X201005Y536158D01*
X201162Y536061D01*
X201313Y535954D01*
X201456Y535877D01*
X201593Y535792D01*
X201760Y535712D01*
X201922Y535624D01*
X202072Y535564D01*
X202218Y535495D01*
X202394Y535435D01*
X202565Y535367D01*
X202721Y535324D01*
X202874Y535272D01*
X203055Y535233D01*
X203233Y535185D01*
X203393Y535161D01*
X203551Y535127D01*
X203735Y535109D01*
X203918Y535081D01*
X204079Y535076D01*
X204240Y535060D01*
X204425Y535064D01*
X204610Y535057D01*
X204771Y535070D01*
X204933Y535073D01*
X205116Y535098D01*
X205300Y535113D01*
X205459Y535145D01*
X205619Y535166D01*
X205798Y535212D01*
X205979Y535248D01*
X206133Y535298D01*
X206290Y535338D01*
X206463Y535404D01*
X206639Y535461D01*
X206785Y535527D01*
X206937Y535585D01*
X207100Y535671D01*
X207269Y535748D01*
X207407Y535831D01*
X207550Y535906D01*
X207703Y536010D01*
X207862Y536105D01*
X207989Y536204D01*
X208123Y536295D01*
X208263Y536416D01*
X208410Y536529D01*
X208525Y536642D01*
X208647Y536747D01*
X208773Y536884D01*
X208905Y537013D01*
X209006Y537138D01*
X209116Y537257D01*
X209225Y537407D01*
X209341Y537551D01*
X209428Y537687D01*
X209523Y537818D01*
X209613Y537979D01*
X209712Y538135D01*
X209783Y538281D01*
X209862Y538421D01*
X209933Y538592D01*
X210014Y538758D01*
X210067Y538911D01*
X210130Y539060D01*
X210181Y539238D01*
X210242Y539412D01*
X210277Y539570D01*
X210322Y539725D01*
X210352Y539908D01*
X210393Y540088D01*
X210409Y540249D01*
X210418Y540301D01*
X221900Y540301D01*
X232790Y540301D01*
X232762Y540041D01*
X232727Y539766D01*
X232726Y539696D01*
X232719Y539627D01*
X232722Y539350D01*
X232719Y539073D01*
X232726Y539004D01*
X232727Y538935D01*
X232762Y538660D01*
X232791Y538385D01*
X232806Y538317D01*
X232815Y538248D01*
X232881Y537979D01*
X232942Y537709D01*
X232965Y537643D01*
X232981Y537576D01*
X233078Y537317D01*
X233169Y537055D01*
X233199Y536992D01*
X233224Y536927D01*
X233350Y536680D01*
X233471Y536431D01*
X233508Y536373D01*
X233540Y536311D01*
X233694Y536080D01*
X233842Y535847D01*
X233886Y535793D01*
X233924Y535735D01*
X234104Y535524D01*
X234278Y535309D01*
X234328Y535260D01*
X234373Y535207D01*
X234576Y535018D01*
X234773Y534825D01*
X234828Y534782D01*
X234879Y534735D01*
X235103Y534570D01*
X235321Y534401D01*
X235380Y534365D01*
X235436Y534324D01*
X235677Y534186D01*
X235914Y534043D01*
X235977Y534014D01*
X236037Y533980D01*
X236292Y533871D01*
X236544Y533756D01*
X236610Y533735D01*
X236674Y533707D01*
X236939Y533629D01*
X237203Y533544D01*
X237271Y533530D01*
X237338Y533510D01*
X237610Y533463D01*
X237882Y533408D01*
X237944Y533404D01*
X238020Y533391D01*
X238711Y533351D01*
X238712Y533351D01*
X251097Y533351D01*
X255526Y531516D01*
X260216Y526826D01*
X262051Y522397D01*
X262051Y318050D01*
X262059Y317912D01*
X262057Y317773D01*
X262079Y317566D01*
X262091Y317359D01*
X262115Y317222D01*
X262129Y317085D01*
X262174Y316881D01*
X262210Y316677D01*
X262249Y316544D01*
X262280Y316409D01*
X262348Y316212D01*
X262407Y316013D01*
X262462Y315885D01*
X262507Y315755D01*
X262598Y315567D01*
X262680Y315376D01*
X262748Y315256D01*
X262809Y315131D01*
X262920Y314956D01*
X263024Y314775D01*
X263106Y314664D01*
X263180Y314547D01*
X263311Y314385D01*
X263434Y314218D01*
X263529Y314116D01*
X263616Y314009D01*
X263765Y313863D01*
X263907Y313711D01*
X264012Y313621D01*
X264111Y313525D01*
X264276Y313398D01*
X264434Y313263D01*
X264549Y313186D01*
X264659Y313101D01*
X264837Y312994D01*
X265010Y312878D01*
X265133Y312815D01*
X265252Y312743D01*
X265442Y312657D01*
X265626Y312562D01*
X265756Y312514D01*
X265882Y312456D01*
X266080Y312392D01*
X266275Y312319D01*
X266409Y312286D01*
X266541Y312244D01*
X266745Y312203D01*
X266947Y312153D01*
X267084Y312135D01*
X267220Y312108D01*
X267386Y312097D01*
X267634Y312065D01*
X267884Y312062D01*
X268050Y312051D01*
X342623Y312051D01*
X342831Y312063D01*
X343038Y312065D01*
X343176Y312083D01*
X343315Y312091D01*
X343519Y312126D01*
X343725Y312153D01*
X343860Y312186D01*
X343997Y312210D01*
X344196Y312269D01*
X344397Y312319D01*
X344527Y312368D01*
X344661Y312407D01*
X344852Y312489D01*
X345046Y312562D01*
X345169Y312625D01*
X345297Y312680D01*
X345477Y312783D01*
X345662Y312877D01*
X345778Y312955D01*
X345898Y313024D01*
X346065Y313147D01*
X346238Y313262D01*
X346328Y313340D01*
X346456Y313434D01*
X346726Y313687D01*
X346866Y313808D01*
X403672Y370614D01*
X403810Y370770D01*
X403955Y370918D01*
X404040Y371028D01*
X404133Y371132D01*
X404252Y371301D01*
X404379Y371465D01*
X404451Y371585D01*
X404531Y371698D01*
X404630Y371881D01*
X404737Y372058D01*
X404794Y372185D01*
X404861Y372307D01*
X404938Y372500D01*
X405024Y372689D01*
X405066Y372821D01*
X405118Y372950D01*
X405173Y373150D01*
X405236Y373348D01*
X405264Y373484D01*
X405300Y373618D01*
X405331Y373823D01*
X405372Y374027D01*
X405380Y374146D01*
X405404Y374303D01*
X405410Y374498D01*
X406902Y378098D01*
X409622Y380818D01*
X413176Y382291D01*
X417024Y382291D01*
X420578Y380818D01*
X423325Y378071D01*
X423522Y377896D01*
X423713Y377716D01*
X423780Y377666D01*
X423843Y377610D01*
X424058Y377459D01*
X424269Y377302D01*
X424341Y377260D01*
X424409Y377212D01*
X424640Y377087D01*
X424868Y376955D01*
X424945Y376922D01*
X425018Y376882D01*
X425262Y376785D01*
X425504Y376680D01*
X425583Y376656D01*
X425661Y376625D01*
X425915Y376556D01*
X426166Y376480D01*
X426249Y376465D01*
X426329Y376443D01*
X426589Y376404D01*
X426848Y376357D01*
X426931Y376352D01*
X427014Y376339D01*
X427276Y376330D01*
X427539Y376314D01*
X427623Y376318D01*
X427706Y376315D01*
X427968Y376337D01*
X428231Y376351D01*
X428313Y376365D01*
X428396Y376371D01*
X428654Y376423D01*
X428913Y376467D01*
X428994Y376490D01*
X429075Y376506D01*
X429326Y376587D01*
X429578Y376661D01*
X429655Y376693D01*
X429734Y376719D01*
X429974Y376828D01*
X430216Y376930D01*
X430289Y376971D01*
X430365Y377006D01*
X430590Y377141D01*
X430819Y377271D01*
X430886Y377320D01*
X430958Y377363D01*
X431165Y377524D01*
X431378Y377679D01*
X431439Y377736D01*
X431505Y377787D01*
X431694Y377971D01*
X431887Y378149D01*
X431934Y378206D01*
X432001Y378271D01*
X432362Y378716D01*
X432421Y378787D01*
X432750Y379239D01*
X433881Y380370D01*
X434501Y380821D01*
X434501Y365000D01*
X434501Y349179D01*
X433881Y349630D01*
X432750Y350761D01*
X432421Y351213D01*
X432255Y351417D01*
X432094Y351625D01*
X432035Y351684D01*
X431982Y351749D01*
X431793Y351932D01*
X431610Y352120D01*
X431545Y352173D01*
X431485Y352231D01*
X431276Y352391D01*
X431072Y352556D01*
X431001Y352601D01*
X430935Y352652D01*
X430710Y352787D01*
X430487Y352928D01*
X430412Y352964D01*
X430341Y353007D01*
X430101Y353115D01*
X429864Y353229D01*
X429785Y353257D01*
X429709Y353291D01*
X429458Y353371D01*
X429210Y353457D01*
X429129Y353475D01*
X429049Y353500D01*
X428791Y353551D01*
X428534Y353608D01*
X428451Y353616D01*
X428369Y353632D01*
X428107Y353652D01*
X427845Y353680D01*
X427762Y353679D01*
X427679Y353685D01*
X427416Y353675D01*
X427153Y353672D01*
X427070Y353661D01*
X426987Y353658D01*
X426727Y353617D01*
X426466Y353584D01*
X426385Y353564D01*
X426303Y353551D01*
X426049Y353481D01*
X425794Y353418D01*
X425716Y353389D01*
X425635Y353366D01*
X425391Y353267D01*
X425145Y353175D01*
X425071Y353137D01*
X424994Y353106D01*
X424763Y352980D01*
X424529Y352860D01*
X424459Y352813D01*
X424386Y352773D01*
X424172Y352621D01*
X423953Y352475D01*
X423897Y352427D01*
X423821Y352373D01*
X423396Y351990D01*
X423325Y351929D01*
X420578Y349182D01*
X416991Y347696D01*
X416922Y347695D01*
X416784Y347677D01*
X416645Y347669D01*
X416441Y347634D01*
X416235Y347607D01*
X416100Y347574D01*
X415963Y347550D01*
X415764Y347491D01*
X415563Y347441D01*
X415433Y347392D01*
X415299Y347353D01*
X415108Y347271D01*
X414914Y347198D01*
X414791Y347135D01*
X414663Y347080D01*
X414483Y346977D01*
X414298Y346883D01*
X414182Y346805D01*
X414062Y346736D01*
X413895Y346613D01*
X413722Y346498D01*
X413632Y346420D01*
X413504Y346326D01*
X413234Y346073D01*
X413094Y345952D01*
X367047Y299905D01*
X366955Y299802D01*
X366856Y299705D01*
X366725Y299544D01*
X366587Y299388D01*
X366507Y299275D01*
X366420Y299167D01*
X366308Y298991D01*
X366189Y298821D01*
X366123Y298700D01*
X366049Y298583D01*
X365958Y298395D01*
X365859Y298212D01*
X365807Y298084D01*
X365747Y297959D01*
X365679Y297763D01*
X365601Y297570D01*
X365565Y297436D01*
X365520Y297305D01*
X365474Y297103D01*
X365420Y296901D01*
X365399Y296765D01*
X365369Y296630D01*
X365347Y296422D01*
X365316Y296217D01*
X365311Y296079D01*
X365297Y295941D01*
X365299Y295733D01*
X365292Y295525D01*
X365303Y295387D01*
X365305Y295248D01*
X365331Y295042D01*
X365348Y294834D01*
X365375Y294699D01*
X365392Y294561D01*
X365442Y294359D01*
X365483Y294155D01*
X365525Y294024D01*
X365559Y293889D01*
X365631Y293694D01*
X365695Y293496D01*
X365753Y293370D01*
X365801Y293241D01*
X365896Y293056D01*
X365982Y292866D01*
X366054Y292747D01*
X366117Y292624D01*
X366233Y292451D01*
X366340Y292273D01*
X366425Y292164D01*
X366501Y292048D01*
X366610Y291923D01*
X366764Y291725D01*
X366938Y291546D01*
X367047Y291421D01*
X419232Y239236D01*
X421067Y234807D01*
X421067Y230013D01*
X419232Y225584D01*
X415533Y221884D01*
X415440Y221781D01*
X415342Y221684D01*
X415210Y221522D01*
X415072Y221367D01*
X414992Y221254D01*
X414905Y221146D01*
X414794Y220971D01*
X414674Y220800D01*
X414608Y220679D01*
X414534Y220562D01*
X414443Y220375D01*
X414344Y220192D01*
X414293Y220063D01*
X414232Y219939D01*
X414164Y219742D01*
X414086Y219549D01*
X414050Y219415D01*
X414005Y219285D01*
X413959Y219081D01*
X413905Y218881D01*
X413884Y218744D01*
X413854Y218609D01*
X413832Y218402D01*
X413801Y218196D01*
X413796Y218058D01*
X413782Y217920D01*
X413784Y217712D01*
X413777Y217504D01*
X413788Y217366D01*
X413790Y217227D01*
X413816Y217021D01*
X413833Y216814D01*
X413860Y216678D01*
X413877Y216541D01*
X413927Y216338D01*
X413968Y216134D01*
X414010Y216003D01*
X414044Y215868D01*
X414117Y215673D01*
X414180Y215475D01*
X414238Y215349D01*
X414286Y215220D01*
X414381Y215035D01*
X414467Y214845D01*
X414539Y214726D01*
X414602Y214603D01*
X414717Y214430D01*
X414825Y214252D01*
X414910Y214143D01*
X414987Y214028D01*
X415096Y213902D01*
X415249Y213704D01*
X415423Y213525D01*
X415533Y213400D01*
X416533Y212399D01*
X409600Y212399D01*
X402667Y212399D01*
X403104Y212837D01*
X403289Y213044D01*
X403478Y213247D01*
X403519Y213302D01*
X403565Y213354D01*
X403724Y213581D01*
X403889Y213804D01*
X403923Y213864D01*
X403963Y213920D01*
X404095Y214165D01*
X404233Y214405D01*
X404260Y214469D01*
X404293Y214529D01*
X404396Y214787D01*
X404505Y215042D01*
X404525Y215108D01*
X404550Y215172D01*
X404623Y215440D01*
X404702Y215706D01*
X404714Y215774D01*
X404732Y215840D01*
X404773Y216114D01*
X404821Y216388D01*
X404825Y216457D01*
X404836Y216525D01*
X404845Y216802D01*
X404861Y217079D01*
X404857Y217148D01*
X404860Y217217D01*
X404837Y217493D01*
X404821Y217771D01*
X404809Y217839D01*
X404804Y217907D01*
X404750Y218179D01*
X404702Y218453D01*
X404682Y218519D01*
X404669Y218586D01*
X404583Y218851D01*
X404505Y219116D01*
X404477Y219180D01*
X404456Y219246D01*
X404341Y219498D01*
X404232Y219753D01*
X404198Y219813D01*
X404169Y219876D01*
X404026Y220113D01*
X403888Y220354D01*
X403847Y220410D01*
X403812Y220469D01*
X403642Y220688D01*
X403477Y220912D01*
X403430Y220962D01*
X403388Y221017D01*
X403195Y221214D01*
X403005Y221418D01*
X402952Y221463D01*
X402904Y221512D01*
X402733Y221651D01*
X338192Y286192D01*
X338036Y286330D01*
X337888Y286475D01*
X337778Y286560D01*
X337674Y286653D01*
X337505Y286772D01*
X337341Y286899D01*
X337221Y286971D01*
X337108Y287051D01*
X336925Y287150D01*
X336748Y287257D01*
X336621Y287314D01*
X336499Y287381D01*
X336306Y287458D01*
X336117Y287544D01*
X335985Y287586D01*
X335856Y287638D01*
X335656Y287693D01*
X335458Y287756D01*
X335322Y287784D01*
X335188Y287820D01*
X334983Y287851D01*
X334779Y287892D01*
X334660Y287900D01*
X334503Y287924D01*
X334133Y287936D01*
X333949Y287949D01*
X268050Y287949D01*
X267912Y287941D01*
X267773Y287943D01*
X267566Y287921D01*
X267359Y287909D01*
X267222Y287885D01*
X267085Y287871D01*
X266881Y287826D01*
X266677Y287790D01*
X266544Y287751D01*
X266409Y287720D01*
X266212Y287652D01*
X266013Y287593D01*
X265885Y287538D01*
X265755Y287493D01*
X265567Y287402D01*
X265376Y287320D01*
X265256Y287252D01*
X265131Y287191D01*
X264956Y287080D01*
X264775Y286976D01*
X264664Y286894D01*
X264547Y286820D01*
X264385Y286689D01*
X264218Y286566D01*
X264116Y286471D01*
X264009Y286384D01*
X263863Y286235D01*
X263711Y286093D01*
X263621Y285988D01*
X263525Y285889D01*
X263398Y285724D01*
X263263Y285566D01*
X263186Y285451D01*
X263101Y285341D01*
X262994Y285163D01*
X262878Y284990D01*
X262815Y284867D01*
X262743Y284748D01*
X262657Y284558D01*
X262562Y284374D01*
X262514Y284244D01*
X262456Y284118D01*
X262392Y283920D01*
X262319Y283725D01*
X262286Y283591D01*
X262244Y283459D01*
X262203Y283255D01*
X262153Y283053D01*
X262135Y282916D01*
X262108Y282780D01*
X262097Y282614D01*
X262065Y282366D01*
X262062Y282116D01*
X262051Y281950D01*
X262051Y217603D01*
X260216Y213174D01*
X256826Y209784D01*
X252397Y207949D01*
X210920Y207949D01*
X210644Y207933D01*
X210367Y207924D01*
X210298Y207913D01*
X210229Y207909D01*
X209956Y207862D01*
X209682Y207820D01*
X209615Y207802D01*
X209547Y207790D01*
X209281Y207711D01*
X209014Y207638D01*
X208950Y207613D01*
X208883Y207593D01*
X208628Y207484D01*
X208371Y207381D01*
X208310Y207348D01*
X208246Y207320D01*
X208006Y207183D01*
X207762Y207051D01*
X207705Y207011D01*
X207645Y206976D01*
X207422Y206812D01*
X207196Y206653D01*
X207144Y206607D01*
X207088Y206566D01*
X206885Y206377D01*
X206679Y206193D01*
X206632Y206141D01*
X206581Y206093D01*
X206402Y205882D01*
X206218Y205676D01*
X206178Y205619D01*
X206133Y205566D01*
X205979Y205335D01*
X205820Y205109D01*
X205787Y205048D01*
X205748Y204990D01*
X205622Y204744D01*
X205490Y204500D01*
X205464Y204435D01*
X205432Y204374D01*
X205335Y204115D01*
X205232Y203857D01*
X205214Y203790D01*
X205190Y203725D01*
X205123Y203456D01*
X205050Y203189D01*
X205040Y203120D01*
X205023Y203053D01*
X204988Y202778D01*
X204947Y202504D01*
X204944Y202435D01*
X204935Y202366D01*
X204932Y202088D01*
X204923Y201812D01*
X204928Y201743D01*
X204927Y201673D01*
X204956Y201397D01*
X204978Y201122D01*
X204992Y201054D01*
X204999Y200985D01*
X205059Y200714D01*
X205113Y200443D01*
X205133Y200384D01*
X205150Y200309D01*
X205377Y199655D01*
X205377Y199654D01*
X205378Y199654D01*
X205803Y198628D01*
X205803Y193972D01*
X204021Y189671D01*
X202392Y188042D01*
X202300Y187939D01*
X202201Y187842D01*
X202070Y187681D01*
X201932Y187525D01*
X201852Y187412D01*
X201765Y187304D01*
X201653Y187128D01*
X201534Y186958D01*
X201468Y186837D01*
X201394Y186720D01*
X201303Y186532D01*
X201204Y186349D01*
X201152Y186221D01*
X201092Y186096D01*
X201024Y185900D01*
X200946Y185707D01*
X200910Y185573D01*
X200864Y185442D01*
X200819Y185240D01*
X200764Y185039D01*
X200744Y184902D01*
X200714Y184767D01*
X200692Y184560D01*
X200661Y184354D01*
X200656Y184216D01*
X200642Y184078D01*
X200644Y183870D01*
X200637Y183662D01*
X200648Y183524D01*
X200649Y183385D01*
X200676Y183179D01*
X200693Y182972D01*
X200720Y182836D01*
X200737Y182698D01*
X200787Y182497D01*
X200828Y182292D01*
X200870Y182161D01*
X200903Y182026D01*
X200976Y181831D01*
X201040Y181633D01*
X201097Y181507D01*
X201146Y181378D01*
X201241Y181192D01*
X201327Y181003D01*
X201398Y180885D01*
X201462Y180761D01*
X201577Y180588D01*
X201685Y180410D01*
X201769Y180301D01*
X201846Y180185D01*
X201955Y180060D01*
X202108Y179862D01*
X202283Y179683D01*
X202392Y179558D01*
X204021Y177929D01*
X205803Y173628D01*
X205803Y168972D01*
X204021Y164671D01*
X202392Y163042D01*
X202300Y162939D01*
X202201Y162842D01*
X202070Y162681D01*
X201932Y162525D01*
X201852Y162412D01*
X201765Y162304D01*
X201653Y162128D01*
X201534Y161958D01*
X201468Y161837D01*
X201394Y161720D01*
X201303Y161532D01*
X201204Y161349D01*
X201152Y161221D01*
X201092Y161096D01*
X201024Y160900D01*
X200946Y160707D01*
X200910Y160573D01*
X200864Y160442D01*
X200819Y160240D01*
X200764Y160039D01*
X200744Y159902D01*
X200714Y159767D01*
X200692Y159560D01*
X200661Y159354D01*
X200656Y159216D01*
X200642Y159078D01*
X200644Y158870D01*
X200637Y158662D01*
X200648Y158524D01*
X200649Y158385D01*
X200676Y158179D01*
X200693Y157972D01*
X200720Y157836D01*
X200737Y157698D01*
X200787Y157497D01*
X200828Y157292D01*
X200870Y157161D01*
X200903Y157026D01*
X200976Y156831D01*
X201040Y156633D01*
X201097Y156507D01*
X201146Y156378D01*
X201241Y156192D01*
X201327Y156003D01*
X201398Y155885D01*
X201462Y155761D01*
X201577Y155588D01*
X201685Y155410D01*
X201769Y155301D01*
X201846Y155185D01*
X201955Y155060D01*
X202108Y154862D01*
X202283Y154683D01*
X202392Y154558D01*
X204021Y152929D01*
X205803Y148628D01*
X205803Y143972D01*
X204021Y139671D01*
X202392Y138042D01*
X202300Y137939D01*
X202201Y137842D01*
X202070Y137681D01*
X201932Y137525D01*
X201852Y137412D01*
X201765Y137304D01*
X201653Y137128D01*
X201534Y136958D01*
X201468Y136837D01*
X201394Y136720D01*
X201303Y136532D01*
X201204Y136349D01*
X201152Y136221D01*
X201092Y136096D01*
X201024Y135900D01*
X200946Y135707D01*
X200910Y135573D01*
X200864Y135442D01*
X200819Y135240D01*
X200764Y135039D01*
X200744Y134902D01*
X200714Y134767D01*
X200692Y134560D01*
X200661Y134354D01*
X200656Y134216D01*
X200642Y134078D01*
X200644Y133870D01*
X200637Y133662D01*
X200648Y133524D01*
X200649Y133385D01*
X200676Y133179D01*
X200693Y132972D01*
X200720Y132836D01*
X200737Y132698D01*
X200787Y132497D01*
X200828Y132292D01*
X200870Y132161D01*
X200903Y132026D01*
X200976Y131831D01*
X201040Y131633D01*
X201097Y131507D01*
X201146Y131378D01*
X201241Y131192D01*
X201327Y131003D01*
X201398Y130885D01*
X201462Y130761D01*
X201577Y130588D01*
X201685Y130410D01*
X201769Y130301D01*
X201846Y130185D01*
X201955Y130060D01*
X202108Y129862D01*
X202283Y129683D01*
X202392Y129558D01*
X204021Y127929D01*
X205803Y123628D01*
X205803Y118972D01*
X204021Y114671D01*
X202739Y113389D01*
X202647Y113285D01*
X202548Y113189D01*
X202417Y113027D01*
X202278Y112872D01*
X202199Y112758D01*
X202111Y112651D01*
X202000Y112475D01*
X201880Y112305D01*
X201814Y112183D01*
X201740Y112066D01*
X201649Y111879D01*
X201550Y111696D01*
X201499Y111568D01*
X201439Y111443D01*
X201370Y111246D01*
X201293Y111053D01*
X201256Y110920D01*
X201211Y110789D01*
X201166Y110586D01*
X201111Y110385D01*
X201090Y110248D01*
X201060Y110113D01*
X201038Y109906D01*
X201007Y109700D01*
X201002Y109562D01*
X200988Y109424D01*
X200990Y109216D01*
X200983Y109008D01*
X200994Y108870D01*
X200996Y108732D01*
X201022Y108526D01*
X201039Y108318D01*
X201066Y108182D01*
X201084Y108045D01*
X201133Y107843D01*
X201174Y107639D01*
X201217Y107507D01*
X201250Y107373D01*
X201323Y107178D01*
X201387Y106980D01*
X201444Y106854D01*
X201492Y106724D01*
X201587Y106539D01*
X201674Y106349D01*
X201745Y106231D01*
X201808Y106108D01*
X201924Y105934D01*
X202031Y105757D01*
X202116Y105647D01*
X202193Y105532D01*
X202302Y105407D01*
X202455Y105209D01*
X202629Y105030D01*
X202739Y104904D01*
X203287Y104356D01*
X204260Y103088D01*
X204715Y102299D01*
X194100Y102299D01*
X194100Y102299D01*
G37*
%LPD*%
%LPC*%
G36*
X829200Y262599D02*
X829200Y262599D01*
X818585Y262599D01*
X819040Y263388D01*
X820013Y264656D01*
X820761Y265404D01*
X820853Y265508D01*
X820952Y265604D01*
X821083Y265766D01*
X821222Y265921D01*
X821301Y266034D01*
X821389Y266142D01*
X821500Y266318D01*
X821620Y266488D01*
X821686Y266610D01*
X821760Y266727D01*
X821851Y266914D01*
X821950Y267097D01*
X822001Y267226D01*
X822061Y267350D01*
X822130Y267546D01*
X822207Y267740D01*
X822244Y267874D01*
X822289Y268004D01*
X822334Y268207D01*
X822389Y268408D01*
X822410Y268545D01*
X822440Y268680D01*
X822462Y268887D01*
X822493Y269093D01*
X822498Y269231D01*
X822512Y269369D01*
X822510Y269577D01*
X822517Y269785D01*
X822506Y269923D01*
X822504Y270061D01*
X822478Y270267D01*
X822461Y270475D01*
X822434Y270611D01*
X822416Y270748D01*
X822366Y270950D01*
X822326Y271154D01*
X822283Y271286D01*
X822250Y271420D01*
X822177Y271615D01*
X822113Y271813D01*
X822056Y271939D01*
X822008Y272069D01*
X821913Y272254D01*
X821826Y272443D01*
X821755Y272562D01*
X821692Y272685D01*
X821576Y272858D01*
X821469Y273036D01*
X821384Y273146D01*
X821307Y273261D01*
X821198Y273386D01*
X821045Y273584D01*
X820871Y273763D01*
X820761Y273889D01*
X819279Y275371D01*
X817497Y279672D01*
X817497Y284328D01*
X819279Y288629D01*
X821108Y290458D01*
X821200Y290561D01*
X821299Y290658D01*
X821430Y290819D01*
X821568Y290975D01*
X821648Y291088D01*
X821735Y291196D01*
X821847Y291372D01*
X821966Y291542D01*
X822032Y291663D01*
X822106Y291780D01*
X822197Y291968D01*
X822296Y292151D01*
X822348Y292279D01*
X822408Y292404D01*
X822476Y292600D01*
X822554Y292793D01*
X822590Y292927D01*
X822636Y293058D01*
X822681Y293260D01*
X822736Y293461D01*
X822756Y293598D01*
X822786Y293733D01*
X822808Y293940D01*
X822839Y294146D01*
X822844Y294284D01*
X822858Y294422D01*
X822856Y294630D01*
X822863Y294838D01*
X822852Y294976D01*
X822851Y295115D01*
X822824Y295321D01*
X822807Y295528D01*
X822780Y295664D01*
X822763Y295802D01*
X822713Y296003D01*
X822672Y296208D01*
X822630Y296339D01*
X822597Y296474D01*
X822524Y296669D01*
X822460Y296867D01*
X822403Y296993D01*
X822354Y297122D01*
X822259Y297308D01*
X822173Y297497D01*
X822102Y297615D01*
X822038Y297739D01*
X821923Y297912D01*
X821815Y298090D01*
X821730Y298200D01*
X821654Y298315D01*
X821545Y298440D01*
X821392Y298638D01*
X821217Y298817D01*
X821108Y298942D01*
X819279Y300771D01*
X817497Y305072D01*
X817497Y309728D01*
X819279Y314029D01*
X821108Y315858D01*
X821200Y315961D01*
X821299Y316058D01*
X821430Y316219D01*
X821568Y316375D01*
X821648Y316488D01*
X821735Y316596D01*
X821847Y316772D01*
X821966Y316942D01*
X822032Y317063D01*
X822106Y317180D01*
X822197Y317368D01*
X822296Y317551D01*
X822348Y317679D01*
X822408Y317804D01*
X822476Y318000D01*
X822554Y318193D01*
X822590Y318327D01*
X822636Y318458D01*
X822681Y318660D01*
X822736Y318861D01*
X822756Y318998D01*
X822786Y319133D01*
X822808Y319340D01*
X822839Y319546D01*
X822844Y319684D01*
X822858Y319822D01*
X822856Y320030D01*
X822863Y320238D01*
X822852Y320376D01*
X822851Y320515D01*
X822824Y320721D01*
X822807Y320928D01*
X822780Y321064D01*
X822763Y321202D01*
X822713Y321403D01*
X822672Y321608D01*
X822630Y321739D01*
X822597Y321874D01*
X822524Y322069D01*
X822460Y322267D01*
X822403Y322393D01*
X822354Y322522D01*
X822259Y322708D01*
X822173Y322897D01*
X822102Y323015D01*
X822038Y323139D01*
X821923Y323312D01*
X821815Y323490D01*
X821730Y323600D01*
X821654Y323715D01*
X821545Y323840D01*
X821392Y324038D01*
X821217Y324217D01*
X821108Y324342D01*
X819279Y326171D01*
X817497Y330472D01*
X817497Y335128D01*
X819279Y339429D01*
X821108Y341258D01*
X821200Y341361D01*
X821299Y341458D01*
X821430Y341619D01*
X821568Y341775D01*
X821648Y341888D01*
X821735Y341996D01*
X821847Y342172D01*
X821966Y342342D01*
X822032Y342463D01*
X822106Y342580D01*
X822197Y342768D01*
X822296Y342951D01*
X822348Y343079D01*
X822408Y343204D01*
X822476Y343400D01*
X822554Y343593D01*
X822590Y343727D01*
X822636Y343858D01*
X822681Y344060D01*
X822736Y344261D01*
X822756Y344398D01*
X822786Y344533D01*
X822808Y344740D01*
X822839Y344946D01*
X822844Y345084D01*
X822858Y345222D01*
X822856Y345430D01*
X822863Y345638D01*
X822852Y345776D01*
X822851Y345915D01*
X822824Y346121D01*
X822807Y346328D01*
X822780Y346464D01*
X822763Y346602D01*
X822713Y346803D01*
X822672Y347008D01*
X822630Y347139D01*
X822597Y347274D01*
X822524Y347469D01*
X822460Y347667D01*
X822403Y347793D01*
X822354Y347922D01*
X822259Y348108D01*
X822173Y348297D01*
X822102Y348415D01*
X822038Y348539D01*
X821923Y348712D01*
X821815Y348890D01*
X821730Y349000D01*
X821654Y349115D01*
X821545Y349240D01*
X821392Y349438D01*
X821217Y349617D01*
X821108Y349742D01*
X819279Y351571D01*
X817497Y355872D01*
X817497Y360528D01*
X819279Y364829D01*
X821108Y366658D01*
X821200Y366761D01*
X821299Y366858D01*
X821430Y367019D01*
X821568Y367175D01*
X821648Y367288D01*
X821735Y367396D01*
X821847Y367572D01*
X821966Y367742D01*
X822032Y367863D01*
X822106Y367980D01*
X822197Y368168D01*
X822296Y368351D01*
X822348Y368479D01*
X822408Y368604D01*
X822476Y368800D01*
X822554Y368993D01*
X822590Y369127D01*
X822636Y369258D01*
X822681Y369460D01*
X822736Y369661D01*
X822756Y369798D01*
X822786Y369933D01*
X822808Y370140D01*
X822839Y370346D01*
X822844Y370484D01*
X822858Y370622D01*
X822856Y370830D01*
X822863Y371038D01*
X822852Y371176D01*
X822851Y371315D01*
X822824Y371521D01*
X822807Y371728D01*
X822780Y371864D01*
X822763Y372002D01*
X822713Y372203D01*
X822672Y372408D01*
X822630Y372539D01*
X822597Y372674D01*
X822524Y372869D01*
X822460Y373067D01*
X822403Y373193D01*
X822354Y373322D01*
X822259Y373508D01*
X822173Y373697D01*
X822102Y373815D01*
X822038Y373939D01*
X821923Y374112D01*
X821815Y374290D01*
X821730Y374400D01*
X821654Y374515D01*
X821545Y374640D01*
X821392Y374838D01*
X821217Y375017D01*
X821108Y375142D01*
X819279Y376971D01*
X817497Y381272D01*
X817497Y385928D01*
X819279Y390229D01*
X821108Y392058D01*
X821200Y392161D01*
X821299Y392258D01*
X821430Y392419D01*
X821568Y392575D01*
X821648Y392688D01*
X821735Y392796D01*
X821847Y392972D01*
X821966Y393142D01*
X822032Y393263D01*
X822106Y393380D01*
X822197Y393568D01*
X822296Y393751D01*
X822348Y393879D01*
X822408Y394004D01*
X822476Y394200D01*
X822554Y394393D01*
X822590Y394527D01*
X822636Y394658D01*
X822681Y394860D01*
X822736Y395061D01*
X822756Y395198D01*
X822786Y395333D01*
X822808Y395540D01*
X822839Y395746D01*
X822844Y395884D01*
X822858Y396022D01*
X822856Y396230D01*
X822863Y396438D01*
X822852Y396576D01*
X822851Y396715D01*
X822824Y396921D01*
X822807Y397128D01*
X822780Y397264D01*
X822763Y397402D01*
X822713Y397603D01*
X822672Y397808D01*
X822630Y397939D01*
X822597Y398074D01*
X822524Y398269D01*
X822460Y398467D01*
X822403Y398593D01*
X822354Y398722D01*
X822259Y398908D01*
X822173Y399097D01*
X822102Y399215D01*
X822038Y399339D01*
X821923Y399512D01*
X821815Y399690D01*
X821730Y399800D01*
X821654Y399915D01*
X821545Y400040D01*
X821392Y400238D01*
X821217Y400417D01*
X821108Y400542D01*
X819279Y402371D01*
X817497Y406672D01*
X817497Y411328D01*
X819279Y415629D01*
X821108Y417458D01*
X821200Y417561D01*
X821299Y417658D01*
X821430Y417819D01*
X821568Y417975D01*
X821648Y418088D01*
X821735Y418196D01*
X821847Y418372D01*
X821966Y418542D01*
X822032Y418663D01*
X822106Y418780D01*
X822197Y418968D01*
X822296Y419151D01*
X822348Y419279D01*
X822408Y419404D01*
X822476Y419600D01*
X822554Y419793D01*
X822590Y419927D01*
X822636Y420058D01*
X822681Y420260D01*
X822736Y420461D01*
X822756Y420598D01*
X822786Y420733D01*
X822808Y420940D01*
X822839Y421146D01*
X822844Y421284D01*
X822858Y421422D01*
X822856Y421630D01*
X822863Y421838D01*
X822852Y421976D01*
X822851Y422115D01*
X822824Y422321D01*
X822807Y422528D01*
X822780Y422664D01*
X822763Y422802D01*
X822713Y423003D01*
X822672Y423208D01*
X822630Y423339D01*
X822597Y423474D01*
X822524Y423669D01*
X822460Y423867D01*
X822403Y423993D01*
X822354Y424122D01*
X822259Y424308D01*
X822173Y424497D01*
X822102Y424615D01*
X822038Y424739D01*
X821923Y424912D01*
X821815Y425090D01*
X821730Y425200D01*
X821654Y425315D01*
X821545Y425440D01*
X821392Y425638D01*
X821217Y425817D01*
X821108Y425942D01*
X819279Y427771D01*
X817497Y432072D01*
X817497Y436728D01*
X819279Y441029D01*
X821108Y442858D01*
X821200Y442961D01*
X821299Y443058D01*
X821430Y443219D01*
X821568Y443375D01*
X821648Y443488D01*
X821735Y443596D01*
X821847Y443772D01*
X821966Y443942D01*
X822032Y444063D01*
X822106Y444180D01*
X822197Y444368D01*
X822296Y444551D01*
X822348Y444679D01*
X822408Y444804D01*
X822476Y445000D01*
X822554Y445193D01*
X822590Y445327D01*
X822636Y445458D01*
X822681Y445660D01*
X822736Y445861D01*
X822756Y445998D01*
X822786Y446133D01*
X822808Y446340D01*
X822839Y446546D01*
X822844Y446684D01*
X822858Y446822D01*
X822856Y447030D01*
X822863Y447238D01*
X822852Y447376D01*
X822851Y447515D01*
X822824Y447721D01*
X822807Y447928D01*
X822780Y448064D01*
X822763Y448202D01*
X822713Y448403D01*
X822672Y448608D01*
X822630Y448739D01*
X822597Y448874D01*
X822524Y449069D01*
X822460Y449267D01*
X822403Y449393D01*
X822354Y449522D01*
X822259Y449708D01*
X822173Y449897D01*
X822102Y450015D01*
X822038Y450139D01*
X821923Y450312D01*
X821815Y450490D01*
X821730Y450600D01*
X821654Y450715D01*
X821545Y450840D01*
X821392Y451038D01*
X821217Y451217D01*
X821108Y451342D01*
X819279Y453171D01*
X817497Y457472D01*
X817497Y462128D01*
X819279Y466429D01*
X821108Y468258D01*
X821200Y468361D01*
X821299Y468458D01*
X821430Y468619D01*
X821568Y468775D01*
X821648Y468888D01*
X821735Y468996D01*
X821847Y469172D01*
X821966Y469342D01*
X822032Y469463D01*
X822106Y469580D01*
X822197Y469768D01*
X822296Y469951D01*
X822348Y470079D01*
X822408Y470204D01*
X822476Y470400D01*
X822554Y470593D01*
X822590Y470727D01*
X822636Y470858D01*
X822681Y471060D01*
X822736Y471261D01*
X822756Y471398D01*
X822786Y471533D01*
X822808Y471740D01*
X822839Y471946D01*
X822844Y472084D01*
X822858Y472222D01*
X822856Y472430D01*
X822863Y472638D01*
X822852Y472776D01*
X822851Y472915D01*
X822824Y473121D01*
X822807Y473328D01*
X822780Y473464D01*
X822763Y473602D01*
X822713Y473803D01*
X822672Y474008D01*
X822630Y474139D01*
X822597Y474274D01*
X822524Y474469D01*
X822460Y474667D01*
X822403Y474793D01*
X822354Y474922D01*
X822259Y475108D01*
X822173Y475297D01*
X822102Y475415D01*
X822038Y475539D01*
X821923Y475712D01*
X821815Y475890D01*
X821730Y476000D01*
X821654Y476115D01*
X821545Y476240D01*
X821392Y476438D01*
X821217Y476617D01*
X821108Y476742D01*
X819279Y478571D01*
X817497Y482872D01*
X817497Y487528D01*
X819279Y491829D01*
X821108Y493658D01*
X821200Y493761D01*
X821299Y493858D01*
X821430Y494019D01*
X821568Y494175D01*
X821648Y494288D01*
X821735Y494396D01*
X821847Y494572D01*
X821966Y494742D01*
X822032Y494863D01*
X822106Y494980D01*
X822197Y495168D01*
X822296Y495351D01*
X822348Y495479D01*
X822408Y495604D01*
X822476Y495800D01*
X822554Y495993D01*
X822590Y496127D01*
X822636Y496258D01*
X822681Y496460D01*
X822736Y496661D01*
X822756Y496798D01*
X822786Y496933D01*
X822808Y497140D01*
X822839Y497346D01*
X822844Y497484D01*
X822858Y497622D01*
X822856Y497830D01*
X822863Y498038D01*
X822852Y498176D01*
X822851Y498315D01*
X822824Y498521D01*
X822807Y498728D01*
X822780Y498864D01*
X822763Y499002D01*
X822713Y499203D01*
X822672Y499408D01*
X822630Y499539D01*
X822597Y499674D01*
X822524Y499869D01*
X822460Y500067D01*
X822403Y500193D01*
X822354Y500322D01*
X822259Y500508D01*
X822173Y500697D01*
X822102Y500815D01*
X822038Y500939D01*
X821923Y501112D01*
X821815Y501290D01*
X821730Y501400D01*
X821654Y501515D01*
X821545Y501640D01*
X821392Y501838D01*
X821217Y502017D01*
X821108Y502142D01*
X819279Y503971D01*
X817497Y508272D01*
X817497Y512928D01*
X819279Y517229D01*
X821108Y519058D01*
X821200Y519161D01*
X821299Y519258D01*
X821430Y519419D01*
X821568Y519575D01*
X821648Y519688D01*
X821735Y519796D01*
X821847Y519972D01*
X821966Y520142D01*
X822032Y520263D01*
X822106Y520380D01*
X822197Y520568D01*
X822296Y520751D01*
X822348Y520879D01*
X822408Y521004D01*
X822476Y521200D01*
X822554Y521393D01*
X822590Y521527D01*
X822636Y521658D01*
X822681Y521860D01*
X822736Y522061D01*
X822756Y522198D01*
X822786Y522333D01*
X822808Y522540D01*
X822839Y522746D01*
X822844Y522884D01*
X822858Y523022D01*
X822856Y523230D01*
X822863Y523438D01*
X822852Y523576D01*
X822851Y523715D01*
X822824Y523921D01*
X822807Y524128D01*
X822780Y524264D01*
X822763Y524402D01*
X822713Y524603D01*
X822672Y524808D01*
X822630Y524939D01*
X822597Y525074D01*
X822524Y525269D01*
X822460Y525467D01*
X822403Y525593D01*
X822354Y525722D01*
X822259Y525908D01*
X822173Y526097D01*
X822102Y526215D01*
X822038Y526339D01*
X821923Y526512D01*
X821815Y526690D01*
X821730Y526800D01*
X821654Y526915D01*
X821545Y527040D01*
X821392Y527238D01*
X821217Y527417D01*
X821108Y527542D01*
X819279Y529371D01*
X817497Y533672D01*
X817497Y538328D01*
X819279Y542629D01*
X821108Y544458D01*
X821200Y544561D01*
X821299Y544658D01*
X821430Y544819D01*
X821568Y544975D01*
X821648Y545088D01*
X821735Y545196D01*
X821847Y545372D01*
X821966Y545542D01*
X822032Y545663D01*
X822106Y545780D01*
X822197Y545968D01*
X822296Y546151D01*
X822348Y546279D01*
X822408Y546404D01*
X822476Y546600D01*
X822554Y546793D01*
X822590Y546927D01*
X822636Y547058D01*
X822681Y547260D01*
X822736Y547461D01*
X822756Y547598D01*
X822786Y547733D01*
X822808Y547940D01*
X822839Y548146D01*
X822844Y548284D01*
X822858Y548422D01*
X822856Y548630D01*
X822863Y548838D01*
X822852Y548976D01*
X822851Y549115D01*
X822824Y549321D01*
X822807Y549528D01*
X822780Y549664D01*
X822763Y549802D01*
X822713Y550003D01*
X822672Y550208D01*
X822630Y550339D01*
X822597Y550474D01*
X822524Y550669D01*
X822460Y550867D01*
X822403Y550993D01*
X822354Y551122D01*
X822259Y551308D01*
X822173Y551497D01*
X822102Y551615D01*
X822038Y551739D01*
X821923Y551912D01*
X821815Y552090D01*
X821730Y552200D01*
X821654Y552315D01*
X821545Y552440D01*
X821392Y552638D01*
X821217Y552817D01*
X821108Y552942D01*
X819279Y554771D01*
X817497Y559072D01*
X817497Y563728D01*
X819279Y568029D01*
X821108Y569858D01*
X821150Y569906D01*
X821195Y569947D01*
X821241Y570001D01*
X821299Y570058D01*
X821430Y570219D01*
X821568Y570375D01*
X821615Y570442D01*
X821643Y570475D01*
X821673Y570519D01*
X821735Y570596D01*
X821847Y570772D01*
X821966Y570942D01*
X822013Y571028D01*
X822028Y571050D01*
X822045Y571083D01*
X822106Y571180D01*
X822197Y571368D01*
X822296Y571551D01*
X822339Y571657D01*
X822344Y571667D01*
X822351Y571685D01*
X822408Y571804D01*
X822476Y572000D01*
X822554Y572193D01*
X822590Y572327D01*
X822636Y572458D01*
X822681Y572660D01*
X822736Y572861D01*
X822756Y572998D01*
X822786Y573133D01*
X822808Y573340D01*
X822839Y573546D01*
X822844Y573684D01*
X822858Y573822D01*
X822856Y574030D01*
X822863Y574238D01*
X822852Y574376D01*
X822851Y574515D01*
X822824Y574721D01*
X822807Y574928D01*
X822780Y575064D01*
X822763Y575202D01*
X822713Y575403D01*
X822672Y575608D01*
X822630Y575739D01*
X822597Y575874D01*
X822524Y576069D01*
X822460Y576267D01*
X822403Y576393D01*
X822354Y576522D01*
X822259Y576708D01*
X822173Y576897D01*
X822102Y577015D01*
X822038Y577139D01*
X821923Y577312D01*
X821815Y577490D01*
X821730Y577600D01*
X821654Y577715D01*
X821545Y577840D01*
X821392Y578038D01*
X821217Y578217D01*
X821108Y578342D01*
X819279Y580171D01*
X817497Y584472D01*
X817497Y589128D01*
X819279Y593429D01*
X822571Y596721D01*
X826872Y598503D01*
X831528Y598503D01*
X835829Y596721D01*
X839121Y593429D01*
X840903Y589128D01*
X840903Y584472D01*
X839121Y580171D01*
X837292Y578342D01*
X837200Y578239D01*
X837101Y578142D01*
X836970Y577981D01*
X836832Y577825D01*
X836752Y577712D01*
X836665Y577604D01*
X836553Y577429D01*
X836434Y577258D01*
X836368Y577137D01*
X836294Y577020D01*
X836203Y576832D01*
X836104Y576649D01*
X836052Y576521D01*
X835992Y576396D01*
X835924Y576200D01*
X835846Y576007D01*
X835810Y575873D01*
X835764Y575742D01*
X835719Y575539D01*
X835664Y575338D01*
X835644Y575202D01*
X835614Y575067D01*
X835592Y574859D01*
X835561Y574654D01*
X835556Y574516D01*
X835542Y574378D01*
X835544Y574170D01*
X835537Y573962D01*
X835548Y573824D01*
X835549Y573685D01*
X835576Y573479D01*
X835593Y573271D01*
X835620Y573136D01*
X835637Y572998D01*
X835687Y572796D01*
X835728Y572592D01*
X835770Y572461D01*
X835803Y572326D01*
X835876Y572131D01*
X835940Y571933D01*
X835996Y571811D01*
X836001Y571795D01*
X836004Y571789D01*
X836046Y571678D01*
X836141Y571492D01*
X836227Y571303D01*
X836288Y571201D01*
X836303Y571172D01*
X836315Y571152D01*
X836362Y571061D01*
X836477Y570888D01*
X836585Y570710D01*
X836647Y570629D01*
X836674Y570587D01*
X836699Y570556D01*
X836746Y570485D01*
X836856Y570360D01*
X837008Y570162D01*
X837068Y570101D01*
X837110Y570049D01*
X837215Y569946D01*
X837292Y569858D01*
X839121Y568029D01*
X840903Y563728D01*
X840903Y559072D01*
X839121Y554771D01*
X837292Y552942D01*
X837200Y552839D01*
X837101Y552742D01*
X836970Y552581D01*
X836832Y552425D01*
X836752Y552312D01*
X836665Y552204D01*
X836553Y552029D01*
X836434Y551858D01*
X836368Y551737D01*
X836294Y551620D01*
X836203Y551432D01*
X836104Y551249D01*
X836052Y551121D01*
X835992Y550996D01*
X835924Y550800D01*
X835846Y550607D01*
X835810Y550473D01*
X835764Y550342D01*
X835719Y550139D01*
X835664Y549938D01*
X835644Y549802D01*
X835614Y549667D01*
X835592Y549459D01*
X835561Y549254D01*
X835556Y549116D01*
X835542Y548978D01*
X835544Y548770D01*
X835537Y548562D01*
X835548Y548424D01*
X835549Y548285D01*
X835576Y548079D01*
X835593Y547871D01*
X835620Y547736D01*
X835637Y547598D01*
X835687Y547396D01*
X835728Y547192D01*
X835770Y547061D01*
X835803Y546926D01*
X835876Y546731D01*
X835940Y546533D01*
X835997Y546407D01*
X836046Y546278D01*
X836141Y546092D01*
X836227Y545903D01*
X836299Y545784D01*
X836362Y545661D01*
X836477Y545488D01*
X836585Y545310D01*
X836669Y545201D01*
X836746Y545085D01*
X836856Y544960D01*
X837008Y544762D01*
X837183Y544583D01*
X837292Y544458D01*
X839121Y542629D01*
X840903Y538328D01*
X840903Y533672D01*
X839121Y529371D01*
X837292Y527542D01*
X837200Y527439D01*
X837101Y527342D01*
X836970Y527181D01*
X836832Y527025D01*
X836752Y526912D01*
X836665Y526804D01*
X836553Y526629D01*
X836434Y526458D01*
X836368Y526337D01*
X836294Y526220D01*
X836203Y526032D01*
X836104Y525849D01*
X836052Y525721D01*
X835992Y525596D01*
X835924Y525400D01*
X835846Y525207D01*
X835810Y525073D01*
X835764Y524942D01*
X835719Y524739D01*
X835664Y524538D01*
X835644Y524402D01*
X835614Y524267D01*
X835592Y524059D01*
X835561Y523854D01*
X835556Y523716D01*
X835542Y523578D01*
X835544Y523370D01*
X835537Y523162D01*
X835548Y523024D01*
X835549Y522885D01*
X835576Y522679D01*
X835593Y522471D01*
X835620Y522336D01*
X835637Y522198D01*
X835687Y521996D01*
X835728Y521792D01*
X835770Y521661D01*
X835803Y521526D01*
X835876Y521331D01*
X835940Y521133D01*
X835997Y521007D01*
X836046Y520878D01*
X836141Y520692D01*
X836227Y520503D01*
X836299Y520384D01*
X836362Y520261D01*
X836477Y520088D01*
X836585Y519910D01*
X836669Y519801D01*
X836746Y519685D01*
X836856Y519560D01*
X837008Y519362D01*
X837183Y519183D01*
X837292Y519058D01*
X839121Y517229D01*
X840903Y512928D01*
X840903Y508272D01*
X839121Y503971D01*
X837292Y502142D01*
X837200Y502039D01*
X837101Y501942D01*
X836970Y501781D01*
X836832Y501625D01*
X836752Y501512D01*
X836665Y501404D01*
X836553Y501229D01*
X836434Y501058D01*
X836368Y500937D01*
X836294Y500820D01*
X836203Y500632D01*
X836104Y500449D01*
X836052Y500321D01*
X835992Y500196D01*
X835924Y500000D01*
X835846Y499807D01*
X835810Y499673D01*
X835764Y499542D01*
X835719Y499339D01*
X835664Y499138D01*
X835644Y499002D01*
X835614Y498867D01*
X835592Y498659D01*
X835561Y498454D01*
X835556Y498316D01*
X835542Y498178D01*
X835544Y497970D01*
X835537Y497762D01*
X835548Y497624D01*
X835549Y497485D01*
X835576Y497279D01*
X835593Y497071D01*
X835620Y496936D01*
X835637Y496798D01*
X835687Y496596D01*
X835728Y496392D01*
X835770Y496261D01*
X835803Y496126D01*
X835876Y495931D01*
X835940Y495733D01*
X835997Y495607D01*
X836046Y495478D01*
X836141Y495292D01*
X836227Y495103D01*
X836299Y494984D01*
X836362Y494861D01*
X836477Y494688D01*
X836585Y494510D01*
X836669Y494401D01*
X836746Y494285D01*
X836856Y494160D01*
X837008Y493962D01*
X837183Y493783D01*
X837292Y493658D01*
X839121Y491829D01*
X840903Y487528D01*
X840903Y482872D01*
X839121Y478571D01*
X837292Y476742D01*
X837200Y476639D01*
X837101Y476542D01*
X836970Y476381D01*
X836832Y476225D01*
X836752Y476112D01*
X836665Y476004D01*
X836553Y475829D01*
X836434Y475658D01*
X836368Y475537D01*
X836294Y475420D01*
X836203Y475232D01*
X836104Y475049D01*
X836052Y474921D01*
X835992Y474796D01*
X835924Y474600D01*
X835846Y474407D01*
X835810Y474273D01*
X835764Y474142D01*
X835719Y473939D01*
X835664Y473738D01*
X835644Y473602D01*
X835614Y473467D01*
X835592Y473259D01*
X835561Y473054D01*
X835556Y472916D01*
X835542Y472778D01*
X835544Y472570D01*
X835537Y472362D01*
X835548Y472224D01*
X835549Y472085D01*
X835576Y471879D01*
X835593Y471671D01*
X835620Y471536D01*
X835637Y471398D01*
X835687Y471196D01*
X835728Y470992D01*
X835770Y470861D01*
X835803Y470726D01*
X835876Y470531D01*
X835940Y470333D01*
X835997Y470207D01*
X836046Y470078D01*
X836141Y469892D01*
X836227Y469703D01*
X836299Y469584D01*
X836362Y469461D01*
X836477Y469288D01*
X836585Y469110D01*
X836669Y469001D01*
X836746Y468885D01*
X836856Y468760D01*
X837008Y468562D01*
X837183Y468383D01*
X837292Y468258D01*
X839121Y466429D01*
X840903Y462128D01*
X840903Y457472D01*
X839121Y453171D01*
X837292Y451342D01*
X837200Y451239D01*
X837101Y451142D01*
X836970Y450981D01*
X836832Y450825D01*
X836752Y450712D01*
X836665Y450604D01*
X836553Y450429D01*
X836434Y450258D01*
X836368Y450137D01*
X836294Y450020D01*
X836203Y449832D01*
X836104Y449649D01*
X836052Y449521D01*
X835992Y449396D01*
X835924Y449200D01*
X835846Y449007D01*
X835810Y448873D01*
X835764Y448742D01*
X835719Y448539D01*
X835664Y448338D01*
X835644Y448202D01*
X835614Y448067D01*
X835592Y447859D01*
X835561Y447654D01*
X835556Y447516D01*
X835542Y447378D01*
X835544Y447170D01*
X835537Y446962D01*
X835548Y446824D01*
X835549Y446685D01*
X835576Y446479D01*
X835593Y446271D01*
X835620Y446136D01*
X835637Y445998D01*
X835687Y445796D01*
X835728Y445592D01*
X835770Y445461D01*
X835803Y445326D01*
X835876Y445131D01*
X835940Y444933D01*
X835997Y444807D01*
X836046Y444678D01*
X836141Y444492D01*
X836227Y444303D01*
X836299Y444184D01*
X836362Y444061D01*
X836477Y443888D01*
X836585Y443710D01*
X836669Y443601D01*
X836746Y443485D01*
X836856Y443360D01*
X837008Y443162D01*
X837183Y442983D01*
X837292Y442858D01*
X839121Y441029D01*
X840903Y436728D01*
X840903Y432072D01*
X839121Y427771D01*
X837292Y425942D01*
X837200Y425839D01*
X837101Y425742D01*
X836970Y425581D01*
X836832Y425425D01*
X836752Y425312D01*
X836665Y425204D01*
X836553Y425029D01*
X836434Y424858D01*
X836368Y424737D01*
X836294Y424620D01*
X836203Y424432D01*
X836104Y424249D01*
X836052Y424121D01*
X835992Y423996D01*
X835924Y423800D01*
X835846Y423607D01*
X835810Y423473D01*
X835764Y423342D01*
X835719Y423139D01*
X835664Y422938D01*
X835644Y422802D01*
X835614Y422667D01*
X835592Y422459D01*
X835561Y422254D01*
X835556Y422116D01*
X835542Y421978D01*
X835544Y421770D01*
X835537Y421562D01*
X835548Y421424D01*
X835549Y421285D01*
X835576Y421079D01*
X835593Y420871D01*
X835620Y420736D01*
X835637Y420598D01*
X835687Y420396D01*
X835728Y420192D01*
X835770Y420061D01*
X835803Y419926D01*
X835876Y419731D01*
X835940Y419533D01*
X835997Y419407D01*
X836046Y419278D01*
X836141Y419092D01*
X836227Y418903D01*
X836299Y418784D01*
X836362Y418661D01*
X836477Y418488D01*
X836585Y418310D01*
X836669Y418201D01*
X836746Y418085D01*
X836856Y417960D01*
X837008Y417762D01*
X837183Y417583D01*
X837292Y417458D01*
X839121Y415629D01*
X840903Y411328D01*
X840903Y406672D01*
X839121Y402371D01*
X837292Y400542D01*
X837200Y400439D01*
X837101Y400342D01*
X836970Y400181D01*
X836832Y400025D01*
X836752Y399912D01*
X836665Y399804D01*
X836553Y399629D01*
X836434Y399458D01*
X836368Y399337D01*
X836294Y399220D01*
X836203Y399032D01*
X836104Y398849D01*
X836052Y398721D01*
X835992Y398596D01*
X835924Y398400D01*
X835846Y398207D01*
X835810Y398073D01*
X835764Y397942D01*
X835719Y397739D01*
X835664Y397538D01*
X835644Y397402D01*
X835614Y397267D01*
X835592Y397059D01*
X835561Y396854D01*
X835556Y396716D01*
X835542Y396578D01*
X835544Y396370D01*
X835537Y396162D01*
X835548Y396024D01*
X835549Y395885D01*
X835576Y395678D01*
X835593Y395471D01*
X835620Y395336D01*
X835637Y395198D01*
X835687Y394996D01*
X835728Y394792D01*
X835770Y394661D01*
X835803Y394526D01*
X835876Y394331D01*
X835940Y394133D01*
X835997Y394007D01*
X836046Y393878D01*
X836141Y393692D01*
X836227Y393503D01*
X836299Y393384D01*
X836362Y393261D01*
X836477Y393088D01*
X836585Y392910D01*
X836669Y392801D01*
X836746Y392685D01*
X836856Y392560D01*
X837008Y392362D01*
X837183Y392183D01*
X837292Y392058D01*
X839121Y390229D01*
X840903Y385928D01*
X840903Y381272D01*
X839121Y376971D01*
X837292Y375142D01*
X837200Y375039D01*
X837101Y374942D01*
X836970Y374781D01*
X836832Y374625D01*
X836752Y374512D01*
X836665Y374404D01*
X836553Y374229D01*
X836434Y374058D01*
X836368Y373937D01*
X836294Y373820D01*
X836203Y373632D01*
X836104Y373449D01*
X836052Y373321D01*
X835992Y373196D01*
X835924Y373000D01*
X835846Y372807D01*
X835810Y372673D01*
X835764Y372542D01*
X835719Y372339D01*
X835664Y372138D01*
X835644Y372002D01*
X835614Y371867D01*
X835592Y371659D01*
X835561Y371454D01*
X835556Y371316D01*
X835542Y371178D01*
X835544Y370970D01*
X835537Y370762D01*
X835548Y370624D01*
X835549Y370485D01*
X835576Y370279D01*
X835593Y370071D01*
X835620Y369936D01*
X835637Y369798D01*
X835687Y369596D01*
X835728Y369392D01*
X835770Y369261D01*
X835803Y369126D01*
X835876Y368931D01*
X835940Y368733D01*
X835997Y368607D01*
X836046Y368478D01*
X836141Y368292D01*
X836227Y368103D01*
X836299Y367984D01*
X836362Y367861D01*
X836477Y367688D01*
X836585Y367510D01*
X836669Y367401D01*
X836746Y367285D01*
X836856Y367160D01*
X837008Y366962D01*
X837183Y366783D01*
X837292Y366658D01*
X839121Y364829D01*
X840903Y360528D01*
X840903Y355872D01*
X839121Y351571D01*
X837292Y349742D01*
X837200Y349639D01*
X837101Y349542D01*
X836970Y349381D01*
X836832Y349225D01*
X836752Y349112D01*
X836665Y349004D01*
X836553Y348829D01*
X836434Y348658D01*
X836368Y348537D01*
X836294Y348420D01*
X836203Y348232D01*
X836104Y348049D01*
X836052Y347921D01*
X835992Y347796D01*
X835924Y347600D01*
X835846Y347407D01*
X835810Y347273D01*
X835764Y347142D01*
X835719Y346939D01*
X835664Y346738D01*
X835644Y346602D01*
X835614Y346467D01*
X835592Y346259D01*
X835561Y346054D01*
X835556Y345916D01*
X835542Y345778D01*
X835544Y345569D01*
X835537Y345362D01*
X835548Y345224D01*
X835549Y345085D01*
X835576Y344879D01*
X835593Y344671D01*
X835620Y344536D01*
X835637Y344398D01*
X835687Y344196D01*
X835728Y343992D01*
X835770Y343861D01*
X835803Y343726D01*
X835876Y343531D01*
X835940Y343333D01*
X835997Y343207D01*
X836046Y343078D01*
X836141Y342892D01*
X836227Y342703D01*
X836299Y342584D01*
X836362Y342461D01*
X836477Y342288D01*
X836585Y342110D01*
X836669Y342001D01*
X836746Y341885D01*
X836856Y341760D01*
X837008Y341562D01*
X837183Y341383D01*
X837292Y341258D01*
X839121Y339429D01*
X840903Y335128D01*
X840903Y330472D01*
X839121Y326171D01*
X837292Y324342D01*
X837200Y324239D01*
X837101Y324142D01*
X836970Y323981D01*
X836832Y323825D01*
X836752Y323712D01*
X836665Y323604D01*
X836553Y323429D01*
X836434Y323258D01*
X836368Y323137D01*
X836294Y323020D01*
X836203Y322832D01*
X836104Y322649D01*
X836052Y322521D01*
X835992Y322396D01*
X835924Y322200D01*
X835846Y322007D01*
X835810Y321873D01*
X835764Y321742D01*
X835719Y321539D01*
X835664Y321338D01*
X835644Y321202D01*
X835614Y321067D01*
X835592Y320859D01*
X835561Y320654D01*
X835556Y320516D01*
X835542Y320378D01*
X835544Y320170D01*
X835537Y319962D01*
X835548Y319824D01*
X835549Y319685D01*
X835576Y319479D01*
X835593Y319271D01*
X835620Y319136D01*
X835637Y318998D01*
X835687Y318796D01*
X835728Y318592D01*
X835770Y318461D01*
X835803Y318326D01*
X835876Y318131D01*
X835940Y317933D01*
X835997Y317807D01*
X836046Y317678D01*
X836141Y317492D01*
X836227Y317303D01*
X836299Y317184D01*
X836362Y317061D01*
X836477Y316888D01*
X836585Y316710D01*
X836669Y316601D01*
X836746Y316485D01*
X836856Y316360D01*
X837008Y316162D01*
X837183Y315983D01*
X837292Y315858D01*
X839121Y314029D01*
X840903Y309728D01*
X840903Y305072D01*
X839121Y300771D01*
X837292Y298942D01*
X837200Y298839D01*
X837101Y298742D01*
X836970Y298581D01*
X836832Y298425D01*
X836752Y298312D01*
X836665Y298204D01*
X836553Y298029D01*
X836434Y297858D01*
X836368Y297737D01*
X836294Y297620D01*
X836203Y297432D01*
X836104Y297249D01*
X836052Y297121D01*
X835992Y296996D01*
X835924Y296800D01*
X835846Y296607D01*
X835810Y296473D01*
X835764Y296342D01*
X835719Y296139D01*
X835664Y295938D01*
X835644Y295802D01*
X835614Y295667D01*
X835592Y295459D01*
X835561Y295254D01*
X835556Y295116D01*
X835542Y294978D01*
X835544Y294770D01*
X835537Y294562D01*
X835548Y294424D01*
X835549Y294285D01*
X835576Y294079D01*
X835593Y293871D01*
X835620Y293736D01*
X835637Y293598D01*
X835687Y293396D01*
X835728Y293192D01*
X835770Y293061D01*
X835803Y292926D01*
X835876Y292731D01*
X835940Y292533D01*
X835997Y292407D01*
X836046Y292278D01*
X836141Y292092D01*
X836227Y291903D01*
X836299Y291784D01*
X836362Y291661D01*
X836477Y291488D01*
X836585Y291310D01*
X836669Y291201D01*
X836746Y291085D01*
X836856Y290960D01*
X837008Y290762D01*
X837183Y290583D01*
X837292Y290458D01*
X839121Y288629D01*
X840903Y284328D01*
X840903Y279672D01*
X839121Y275371D01*
X837639Y273889D01*
X837546Y273785D01*
X837448Y273688D01*
X837317Y273527D01*
X837178Y273371D01*
X837099Y273258D01*
X837011Y273151D01*
X836900Y272975D01*
X836780Y272805D01*
X836714Y272683D01*
X836640Y272566D01*
X836549Y272379D01*
X836450Y272196D01*
X836399Y272067D01*
X836338Y271943D01*
X836270Y271746D01*
X836193Y271553D01*
X836156Y271419D01*
X836111Y271289D01*
X836066Y271086D01*
X836011Y270885D01*
X835990Y270748D01*
X835960Y270613D01*
X835938Y270406D01*
X835907Y270200D01*
X835902Y270062D01*
X835888Y269924D01*
X835890Y269716D01*
X835883Y269508D01*
X835894Y269370D01*
X835896Y269232D01*
X835922Y269025D01*
X835939Y268818D01*
X835966Y268682D01*
X835984Y268545D01*
X836034Y268342D01*
X836074Y268139D01*
X836117Y268007D01*
X836150Y267873D01*
X836223Y267678D01*
X836287Y267480D01*
X836344Y267354D01*
X836392Y267224D01*
X836487Y267039D01*
X836574Y266849D01*
X836645Y266731D01*
X836708Y266608D01*
X836824Y266435D01*
X836931Y266256D01*
X837016Y266147D01*
X837093Y266032D01*
X837202Y265906D01*
X837355Y265709D01*
X837530Y265530D01*
X837639Y265404D01*
X838387Y264656D01*
X839360Y263388D01*
X839815Y262599D01*
X829200Y262599D01*
X829200Y262599D01*
G37*
%LPD*%
%LPC*%
G36*
X98956Y110429D02*
X98956Y110429D01*
X95402Y111902D01*
X92682Y114622D01*
X91209Y118176D01*
X91209Y122024D01*
X92682Y125578D01*
X95661Y128558D01*
X95754Y128661D01*
X95852Y128758D01*
X95984Y128920D01*
X96122Y129075D01*
X96202Y129188D01*
X96289Y129296D01*
X96400Y129471D01*
X96520Y129642D01*
X96586Y129763D01*
X96660Y129880D01*
X96751Y130068D01*
X96850Y130251D01*
X96901Y130379D01*
X96962Y130504D01*
X97030Y130700D01*
X97108Y130893D01*
X97144Y131027D01*
X97189Y131158D01*
X97235Y131361D01*
X97289Y131562D01*
X97310Y131698D01*
X97340Y131833D01*
X97362Y132041D01*
X97393Y132246D01*
X97398Y132384D01*
X97412Y132522D01*
X97410Y132730D01*
X97417Y132938D01*
X97406Y133076D01*
X97404Y133215D01*
X97378Y133421D01*
X97361Y133629D01*
X97334Y133764D01*
X97317Y133902D01*
X97267Y134104D01*
X97226Y134308D01*
X97184Y134439D01*
X97150Y134574D01*
X97077Y134769D01*
X97014Y134967D01*
X96956Y135093D01*
X96908Y135222D01*
X96813Y135407D01*
X96727Y135597D01*
X96655Y135716D01*
X96592Y135839D01*
X96477Y136012D01*
X96369Y136190D01*
X96284Y136300D01*
X96207Y136415D01*
X96098Y136540D01*
X95945Y136738D01*
X95771Y136917D01*
X95661Y137042D01*
X92682Y140022D01*
X91209Y143576D01*
X91209Y147424D01*
X92682Y150978D01*
X95661Y153958D01*
X95754Y154061D01*
X95852Y154158D01*
X95984Y154320D01*
X96122Y154475D01*
X96202Y154588D01*
X96289Y154696D01*
X96400Y154871D01*
X96520Y155042D01*
X96586Y155163D01*
X96660Y155280D01*
X96751Y155468D01*
X96850Y155651D01*
X96901Y155779D01*
X96962Y155904D01*
X97030Y156100D01*
X97108Y156293D01*
X97144Y156427D01*
X97189Y156558D01*
X97235Y156761D01*
X97289Y156962D01*
X97310Y157098D01*
X97340Y157233D01*
X97362Y157441D01*
X97393Y157646D01*
X97398Y157784D01*
X97412Y157922D01*
X97410Y158130D01*
X97417Y158338D01*
X97406Y158476D01*
X97404Y158615D01*
X97378Y158821D01*
X97361Y159029D01*
X97334Y159164D01*
X97317Y159302D01*
X97267Y159504D01*
X97226Y159708D01*
X97184Y159839D01*
X97150Y159974D01*
X97077Y160169D01*
X97014Y160367D01*
X96956Y160493D01*
X96908Y160622D01*
X96813Y160807D01*
X96727Y160997D01*
X96655Y161116D01*
X96592Y161239D01*
X96477Y161412D01*
X96369Y161590D01*
X96284Y161700D01*
X96207Y161815D01*
X96098Y161940D01*
X95945Y162138D01*
X95771Y162317D01*
X95661Y162442D01*
X92682Y165422D01*
X91209Y168976D01*
X91209Y172824D01*
X92682Y176378D01*
X95661Y179358D01*
X95754Y179461D01*
X95852Y179558D01*
X95984Y179720D01*
X96122Y179875D01*
X96202Y179988D01*
X96289Y180096D01*
X96400Y180271D01*
X96520Y180442D01*
X96586Y180563D01*
X96660Y180680D01*
X96751Y180868D01*
X96850Y181051D01*
X96901Y181179D01*
X96962Y181304D01*
X97030Y181500D01*
X97108Y181693D01*
X97144Y181827D01*
X97189Y181958D01*
X97235Y182161D01*
X97289Y182362D01*
X97310Y182498D01*
X97340Y182633D01*
X97362Y182841D01*
X97393Y183046D01*
X97398Y183184D01*
X97412Y183322D01*
X97410Y183530D01*
X97417Y183738D01*
X97406Y183876D01*
X97404Y184015D01*
X97378Y184221D01*
X97361Y184429D01*
X97334Y184564D01*
X97317Y184702D01*
X97267Y184904D01*
X97226Y185108D01*
X97184Y185239D01*
X97150Y185374D01*
X97077Y185569D01*
X97014Y185767D01*
X96956Y185893D01*
X96908Y186022D01*
X96813Y186207D01*
X96727Y186397D01*
X96655Y186516D01*
X96592Y186639D01*
X96477Y186812D01*
X96369Y186990D01*
X96284Y187100D01*
X96207Y187215D01*
X96098Y187340D01*
X95945Y187538D01*
X95771Y187717D01*
X95661Y187842D01*
X92682Y190822D01*
X91209Y194376D01*
X91209Y198224D01*
X92682Y201778D01*
X95402Y204498D01*
X98956Y205971D01*
X118044Y205971D01*
X121598Y204498D01*
X124318Y201778D01*
X125791Y198224D01*
X125791Y194376D01*
X124318Y190822D01*
X121339Y187842D01*
X121246Y187739D01*
X121148Y187642D01*
X121017Y187481D01*
X120878Y187325D01*
X120798Y187212D01*
X120711Y187104D01*
X120600Y186929D01*
X120480Y186758D01*
X120414Y186637D01*
X120340Y186520D01*
X120249Y186333D01*
X120150Y186149D01*
X120099Y186021D01*
X120038Y185896D01*
X119970Y185700D01*
X119892Y185507D01*
X119856Y185373D01*
X119811Y185242D01*
X119765Y185040D01*
X119711Y184839D01*
X119690Y184702D01*
X119660Y184567D01*
X119638Y184359D01*
X119607Y184154D01*
X119602Y184016D01*
X119588Y183878D01*
X119590Y183670D01*
X119583Y183462D01*
X119594Y183324D01*
X119596Y183185D01*
X119622Y182979D01*
X119639Y182772D01*
X119666Y182636D01*
X119683Y182498D01*
X119733Y182297D01*
X119774Y182092D01*
X119816Y181960D01*
X119850Y181826D01*
X119922Y181631D01*
X119986Y181433D01*
X120044Y181307D01*
X120092Y181178D01*
X120187Y180992D01*
X120273Y180803D01*
X120345Y180685D01*
X120408Y180561D01*
X120523Y180388D01*
X120631Y180210D01*
X120716Y180100D01*
X120793Y179985D01*
X120902Y179860D01*
X121055Y179662D01*
X121229Y179484D01*
X121339Y179358D01*
X124318Y176378D01*
X125791Y172824D01*
X125791Y168976D01*
X124318Y165422D01*
X121339Y162442D01*
X121246Y162339D01*
X121148Y162242D01*
X121017Y162081D01*
X120878Y161925D01*
X120798Y161812D01*
X120711Y161704D01*
X120600Y161529D01*
X120480Y161358D01*
X120414Y161237D01*
X120340Y161120D01*
X120249Y160933D01*
X120150Y160749D01*
X120099Y160621D01*
X120038Y160496D01*
X119970Y160300D01*
X119892Y160107D01*
X119856Y159973D01*
X119811Y159842D01*
X119765Y159640D01*
X119711Y159439D01*
X119690Y159302D01*
X119660Y159167D01*
X119638Y158959D01*
X119607Y158754D01*
X119602Y158616D01*
X119588Y158478D01*
X119590Y158270D01*
X119583Y158062D01*
X119594Y157924D01*
X119596Y157785D01*
X119622Y157579D01*
X119639Y157372D01*
X119666Y157236D01*
X119683Y157098D01*
X119733Y156897D01*
X119774Y156692D01*
X119816Y156560D01*
X119850Y156426D01*
X119922Y156231D01*
X119986Y156033D01*
X120044Y155907D01*
X120092Y155778D01*
X120187Y155592D01*
X120273Y155403D01*
X120345Y155285D01*
X120408Y155161D01*
X120523Y154988D01*
X120631Y154810D01*
X120716Y154700D01*
X120793Y154585D01*
X120902Y154460D01*
X121055Y154262D01*
X121229Y154084D01*
X121339Y153958D01*
X124318Y150978D01*
X125791Y147424D01*
X125791Y143576D01*
X124318Y140022D01*
X121339Y137042D01*
X121246Y136939D01*
X121148Y136842D01*
X121017Y136681D01*
X120878Y136525D01*
X120798Y136412D01*
X120711Y136304D01*
X120600Y136129D01*
X120480Y135958D01*
X120414Y135837D01*
X120340Y135720D01*
X120249Y135533D01*
X120150Y135349D01*
X120099Y135221D01*
X120038Y135096D01*
X119970Y134900D01*
X119892Y134707D01*
X119856Y134573D01*
X119811Y134442D01*
X119765Y134240D01*
X119711Y134039D01*
X119690Y133902D01*
X119660Y133767D01*
X119638Y133559D01*
X119607Y133354D01*
X119602Y133216D01*
X119588Y133078D01*
X119590Y132870D01*
X119583Y132662D01*
X119594Y132524D01*
X119596Y132385D01*
X119622Y132179D01*
X119639Y131972D01*
X119666Y131836D01*
X119683Y131698D01*
X119733Y131497D01*
X119774Y131292D01*
X119816Y131160D01*
X119850Y131026D01*
X119922Y130831D01*
X119986Y130633D01*
X120044Y130507D01*
X120092Y130378D01*
X120187Y130192D01*
X120273Y130003D01*
X120345Y129885D01*
X120408Y129761D01*
X120523Y129588D01*
X120631Y129410D01*
X120716Y129300D01*
X120793Y129185D01*
X120902Y129060D01*
X121055Y128862D01*
X121229Y128684D01*
X121339Y128558D01*
X124318Y125578D01*
X125791Y122024D01*
X125791Y118176D01*
X124318Y114622D01*
X121598Y111902D01*
X118044Y110429D01*
X98956Y110429D01*
G37*
%LPD*%
%LPC*%
G36*
X137356Y412929D02*
X137356Y412929D01*
X133802Y414402D01*
X131082Y417122D01*
X129609Y420676D01*
X129609Y424524D01*
X131082Y428078D01*
X134061Y431058D01*
X134154Y431161D01*
X134252Y431258D01*
X134384Y431420D01*
X134522Y431575D01*
X134602Y431688D01*
X134689Y431796D01*
X134800Y431971D01*
X134920Y432142D01*
X134986Y432263D01*
X135060Y432380D01*
X135151Y432568D01*
X135250Y432751D01*
X135301Y432879D01*
X135362Y433004D01*
X135430Y433200D01*
X135508Y433393D01*
X135544Y433527D01*
X135589Y433658D01*
X135635Y433861D01*
X135689Y434062D01*
X135710Y434198D01*
X135740Y434333D01*
X135762Y434541D01*
X135793Y434746D01*
X135798Y434884D01*
X135812Y435022D01*
X135810Y435230D01*
X135817Y435438D01*
X135806Y435576D01*
X135804Y435715D01*
X135778Y435921D01*
X135761Y436129D01*
X135734Y436264D01*
X135717Y436402D01*
X135667Y436604D01*
X135626Y436808D01*
X135584Y436939D01*
X135550Y437074D01*
X135477Y437269D01*
X135414Y437467D01*
X135356Y437593D01*
X135308Y437722D01*
X135213Y437907D01*
X135127Y438097D01*
X135055Y438216D01*
X134992Y438339D01*
X134877Y438512D01*
X134769Y438690D01*
X134684Y438800D01*
X134607Y438915D01*
X134498Y439040D01*
X134345Y439238D01*
X134171Y439417D01*
X134061Y439542D01*
X131082Y442522D01*
X129609Y446076D01*
X129609Y449924D01*
X131082Y453478D01*
X134061Y456458D01*
X134154Y456561D01*
X134252Y456658D01*
X134384Y456820D01*
X134522Y456975D01*
X134602Y457088D01*
X134689Y457196D01*
X134800Y457371D01*
X134920Y457542D01*
X134986Y457663D01*
X135060Y457780D01*
X135151Y457968D01*
X135250Y458151D01*
X135301Y458279D01*
X135362Y458404D01*
X135430Y458600D01*
X135508Y458793D01*
X135544Y458927D01*
X135589Y459058D01*
X135635Y459261D01*
X135689Y459462D01*
X135710Y459598D01*
X135740Y459733D01*
X135762Y459941D01*
X135793Y460146D01*
X135798Y460284D01*
X135812Y460422D01*
X135810Y460630D01*
X135817Y460838D01*
X135806Y460976D01*
X135804Y461115D01*
X135778Y461321D01*
X135761Y461529D01*
X135734Y461664D01*
X135717Y461802D01*
X135667Y462004D01*
X135626Y462208D01*
X135584Y462339D01*
X135550Y462474D01*
X135477Y462669D01*
X135414Y462867D01*
X135356Y462993D01*
X135308Y463122D01*
X135213Y463307D01*
X135127Y463497D01*
X135055Y463616D01*
X134992Y463739D01*
X134877Y463912D01*
X134769Y464090D01*
X134684Y464200D01*
X134607Y464315D01*
X134498Y464440D01*
X134345Y464638D01*
X134171Y464817D01*
X134061Y464942D01*
X131082Y467922D01*
X129609Y471476D01*
X129609Y475324D01*
X131082Y478878D01*
X134061Y481858D01*
X134154Y481961D01*
X134252Y482058D01*
X134384Y482220D01*
X134522Y482375D01*
X134602Y482488D01*
X134689Y482596D01*
X134800Y482771D01*
X134920Y482942D01*
X134986Y483063D01*
X135060Y483180D01*
X135151Y483368D01*
X135250Y483551D01*
X135301Y483679D01*
X135362Y483804D01*
X135430Y484000D01*
X135508Y484193D01*
X135544Y484327D01*
X135589Y484458D01*
X135635Y484661D01*
X135689Y484862D01*
X135710Y484998D01*
X135740Y485133D01*
X135762Y485341D01*
X135793Y485546D01*
X135798Y485684D01*
X135812Y485822D01*
X135810Y486030D01*
X135817Y486238D01*
X135806Y486376D01*
X135804Y486515D01*
X135778Y486721D01*
X135761Y486929D01*
X135734Y487064D01*
X135717Y487202D01*
X135667Y487404D01*
X135626Y487608D01*
X135584Y487739D01*
X135550Y487874D01*
X135477Y488069D01*
X135414Y488267D01*
X135356Y488393D01*
X135308Y488522D01*
X135213Y488707D01*
X135127Y488897D01*
X135055Y489016D01*
X134992Y489139D01*
X134877Y489312D01*
X134769Y489490D01*
X134684Y489600D01*
X134607Y489715D01*
X134498Y489840D01*
X134345Y490038D01*
X134171Y490217D01*
X134061Y490342D01*
X131082Y493322D01*
X129609Y496876D01*
X129609Y500724D01*
X131082Y504278D01*
X133802Y506998D01*
X137356Y508471D01*
X156444Y508471D01*
X159998Y506998D01*
X162718Y504278D01*
X164191Y500724D01*
X164191Y496876D01*
X162718Y493322D01*
X159739Y490342D01*
X159646Y490239D01*
X159548Y490142D01*
X159417Y489981D01*
X159278Y489825D01*
X159198Y489712D01*
X159111Y489604D01*
X159000Y489429D01*
X158880Y489258D01*
X158814Y489137D01*
X158740Y489020D01*
X158649Y488833D01*
X158550Y488649D01*
X158499Y488521D01*
X158438Y488396D01*
X158370Y488200D01*
X158292Y488007D01*
X158256Y487873D01*
X158211Y487742D01*
X158165Y487540D01*
X158111Y487339D01*
X158090Y487202D01*
X158060Y487067D01*
X158038Y486859D01*
X158007Y486654D01*
X158002Y486516D01*
X157988Y486378D01*
X157990Y486170D01*
X157983Y485962D01*
X157994Y485824D01*
X157996Y485685D01*
X158022Y485479D01*
X158039Y485272D01*
X158066Y485136D01*
X158083Y484998D01*
X158133Y484797D01*
X158174Y484592D01*
X158216Y484460D01*
X158250Y484326D01*
X158322Y484131D01*
X158386Y483933D01*
X158444Y483807D01*
X158492Y483678D01*
X158587Y483492D01*
X158673Y483303D01*
X158745Y483185D01*
X158808Y483061D01*
X158923Y482888D01*
X159031Y482710D01*
X159116Y482600D01*
X159193Y482485D01*
X159302Y482360D01*
X159455Y482162D01*
X159629Y481984D01*
X159739Y481858D01*
X162718Y478878D01*
X164191Y475324D01*
X164191Y471476D01*
X162718Y467922D01*
X159739Y464942D01*
X159646Y464839D01*
X159548Y464742D01*
X159417Y464581D01*
X159278Y464425D01*
X159198Y464312D01*
X159111Y464204D01*
X159000Y464029D01*
X158880Y463858D01*
X158814Y463737D01*
X158740Y463620D01*
X158649Y463433D01*
X158550Y463249D01*
X158499Y463121D01*
X158438Y462996D01*
X158370Y462800D01*
X158292Y462607D01*
X158256Y462473D01*
X158211Y462342D01*
X158165Y462140D01*
X158111Y461939D01*
X158090Y461802D01*
X158060Y461667D01*
X158038Y461459D01*
X158007Y461254D01*
X158002Y461116D01*
X157988Y460978D01*
X157990Y460770D01*
X157983Y460562D01*
X157994Y460424D01*
X157996Y460285D01*
X158022Y460079D01*
X158039Y459872D01*
X158066Y459736D01*
X158083Y459598D01*
X158133Y459397D01*
X158174Y459192D01*
X158216Y459060D01*
X158250Y458926D01*
X158322Y458731D01*
X158386Y458533D01*
X158444Y458407D01*
X158492Y458278D01*
X158587Y458092D01*
X158673Y457903D01*
X158745Y457785D01*
X158808Y457661D01*
X158923Y457488D01*
X159031Y457310D01*
X159116Y457200D01*
X159193Y457085D01*
X159302Y456960D01*
X159455Y456762D01*
X159629Y456584D01*
X159739Y456458D01*
X162718Y453478D01*
X164191Y449924D01*
X164191Y446076D01*
X162718Y442522D01*
X159739Y439542D01*
X159646Y439439D01*
X159548Y439342D01*
X159417Y439181D01*
X159278Y439025D01*
X159198Y438912D01*
X159111Y438804D01*
X159000Y438629D01*
X158880Y438458D01*
X158814Y438337D01*
X158740Y438220D01*
X158649Y438033D01*
X158550Y437849D01*
X158499Y437721D01*
X158438Y437596D01*
X158370Y437400D01*
X158292Y437207D01*
X158256Y437073D01*
X158211Y436942D01*
X158165Y436740D01*
X158111Y436539D01*
X158090Y436402D01*
X158060Y436267D01*
X158038Y436059D01*
X158007Y435854D01*
X158002Y435716D01*
X157988Y435578D01*
X157990Y435370D01*
X157983Y435162D01*
X157994Y435024D01*
X157996Y434885D01*
X158022Y434679D01*
X158039Y434472D01*
X158066Y434336D01*
X158083Y434198D01*
X158133Y433997D01*
X158174Y433792D01*
X158216Y433660D01*
X158250Y433526D01*
X158322Y433331D01*
X158386Y433133D01*
X158444Y433007D01*
X158492Y432878D01*
X158587Y432692D01*
X158673Y432503D01*
X158745Y432385D01*
X158808Y432261D01*
X158923Y432088D01*
X159031Y431910D01*
X159116Y431800D01*
X159193Y431685D01*
X159302Y431560D01*
X159455Y431362D01*
X159629Y431184D01*
X159739Y431058D01*
X162718Y428078D01*
X164191Y424524D01*
X164191Y420676D01*
X162718Y417122D01*
X159998Y414402D01*
X156444Y412929D01*
X137356Y412929D01*
G37*
%LPD*%
%LPC*%
G36*
X380576Y581209D02*
X380576Y581209D01*
X377022Y582682D01*
X374275Y585429D01*
X374078Y585604D01*
X373887Y585784D01*
X373820Y585834D01*
X373757Y585890D01*
X373542Y586041D01*
X373331Y586198D01*
X373259Y586240D01*
X373191Y586288D01*
X372959Y586413D01*
X372732Y586545D01*
X372655Y586578D01*
X372582Y586618D01*
X372338Y586715D01*
X372096Y586820D01*
X372016Y586844D01*
X371939Y586875D01*
X371685Y586944D01*
X371433Y587020D01*
X371351Y587035D01*
X371271Y587057D01*
X371011Y587096D01*
X370752Y587143D01*
X370668Y587148D01*
X370586Y587161D01*
X370324Y587170D01*
X370061Y587186D01*
X369977Y587182D01*
X369894Y587185D01*
X369631Y587163D01*
X369369Y587149D01*
X369287Y587135D01*
X369204Y587129D01*
X368945Y587077D01*
X368687Y587033D01*
X368607Y587010D01*
X368525Y586994D01*
X368274Y586913D01*
X368022Y586839D01*
X367945Y586807D01*
X367866Y586781D01*
X367626Y586672D01*
X367384Y586570D01*
X367311Y586529D01*
X367235Y586494D01*
X367010Y586358D01*
X366781Y586229D01*
X366714Y586180D01*
X366642Y586137D01*
X366434Y585976D01*
X366222Y585821D01*
X366161Y585764D01*
X366095Y585713D01*
X365906Y585529D01*
X365713Y585351D01*
X365666Y585294D01*
X365599Y585229D01*
X365238Y584783D01*
X365179Y584713D01*
X364850Y584261D01*
X363719Y583130D01*
X363099Y582679D01*
X363099Y598500D01*
X363099Y614321D01*
X363719Y613870D01*
X364850Y612739D01*
X365179Y612287D01*
X365345Y612083D01*
X365506Y611875D01*
X365565Y611816D01*
X365617Y611751D01*
X365807Y611568D01*
X365990Y611380D01*
X366055Y611327D01*
X366115Y611269D01*
X366324Y611109D01*
X366528Y610944D01*
X366598Y610899D01*
X366665Y610848D01*
X366891Y610713D01*
X367113Y610572D01*
X367188Y610536D01*
X367259Y610493D01*
X367499Y610385D01*
X367736Y610271D01*
X367815Y610243D01*
X367891Y610209D01*
X368141Y610130D01*
X368390Y610043D01*
X368471Y610025D01*
X368551Y610000D01*
X368809Y609949D01*
X369066Y609892D01*
X369149Y609884D01*
X369231Y609868D01*
X369493Y609848D01*
X369755Y609820D01*
X369838Y609821D01*
X369921Y609815D01*
X370184Y609825D01*
X370447Y609828D01*
X370530Y609839D01*
X370613Y609842D01*
X370873Y609882D01*
X371134Y609916D01*
X371215Y609936D01*
X371297Y609949D01*
X371550Y610019D01*
X371806Y610082D01*
X371884Y610111D01*
X371965Y610133D01*
X372208Y610232D01*
X372455Y610325D01*
X372529Y610363D01*
X372606Y610394D01*
X372837Y610521D01*
X373071Y610640D01*
X373140Y610687D01*
X373214Y610727D01*
X373428Y610879D01*
X373647Y611025D01*
X373703Y611073D01*
X373779Y611127D01*
X374204Y611510D01*
X374275Y611571D01*
X377022Y614318D01*
X380576Y615791D01*
X384424Y615791D01*
X387978Y614318D01*
X390958Y611339D01*
X391061Y611246D01*
X391158Y611148D01*
X391319Y611017D01*
X391475Y610878D01*
X391588Y610798D01*
X391696Y610711D01*
X391871Y610600D01*
X392042Y610480D01*
X392163Y610414D01*
X392280Y610340D01*
X392467Y610249D01*
X392651Y610150D01*
X392779Y610099D01*
X392904Y610038D01*
X393100Y609970D01*
X393293Y609892D01*
X393427Y609856D01*
X393558Y609811D01*
X393760Y609765D01*
X393961Y609711D01*
X394098Y609690D01*
X394233Y609660D01*
X394441Y609638D01*
X394646Y609607D01*
X394784Y609602D01*
X394922Y609588D01*
X395130Y609590D01*
X395338Y609583D01*
X395476Y609594D01*
X395615Y609596D01*
X395821Y609622D01*
X396028Y609639D01*
X396164Y609666D01*
X396302Y609683D01*
X396503Y609733D01*
X396708Y609774D01*
X396840Y609816D01*
X396974Y609850D01*
X397169Y609922D01*
X397367Y609986D01*
X397493Y610044D01*
X397622Y610092D01*
X397808Y610187D01*
X397997Y610273D01*
X398115Y610345D01*
X398239Y610408D01*
X398412Y610523D01*
X398590Y610631D01*
X398700Y610716D01*
X398815Y610793D01*
X398940Y610902D01*
X399138Y611055D01*
X399316Y611229D01*
X399442Y611339D01*
X402422Y614318D01*
X405976Y615791D01*
X409824Y615791D01*
X413378Y614318D01*
X416098Y611598D01*
X417571Y608044D01*
X417571Y588956D01*
X416098Y585402D01*
X413378Y582682D01*
X409824Y581209D01*
X405976Y581209D01*
X402422Y582682D01*
X399442Y585661D01*
X399339Y585754D01*
X399242Y585852D01*
X399080Y585984D01*
X398925Y586122D01*
X398812Y586202D01*
X398704Y586289D01*
X398529Y586400D01*
X398358Y586520D01*
X398237Y586586D01*
X398120Y586660D01*
X397932Y586751D01*
X397749Y586850D01*
X397621Y586901D01*
X397496Y586962D01*
X397300Y587030D01*
X397107Y587108D01*
X396973Y587144D01*
X396842Y587189D01*
X396639Y587235D01*
X396438Y587289D01*
X396302Y587310D01*
X396167Y587340D01*
X395959Y587362D01*
X395754Y587393D01*
X395616Y587398D01*
X395478Y587412D01*
X395270Y587410D01*
X395062Y587417D01*
X394924Y587406D01*
X394785Y587404D01*
X394579Y587378D01*
X394371Y587361D01*
X394236Y587334D01*
X394098Y587317D01*
X393896Y587267D01*
X393692Y587226D01*
X393561Y587184D01*
X393426Y587150D01*
X393231Y587077D01*
X393033Y587014D01*
X392907Y586956D01*
X392778Y586908D01*
X392593Y586813D01*
X392403Y586727D01*
X392284Y586655D01*
X392161Y586592D01*
X391988Y586477D01*
X391810Y586369D01*
X391700Y586284D01*
X391585Y586207D01*
X391460Y586098D01*
X391262Y585945D01*
X391083Y585771D01*
X390958Y585661D01*
X387978Y582682D01*
X384424Y581209D01*
X380576Y581209D01*
G37*
%LPD*%
%LPC*%
G36*
X463976Y347709D02*
X463976Y347709D01*
X460422Y349182D01*
X457675Y351929D01*
X457478Y352104D01*
X457287Y352284D01*
X457220Y352334D01*
X457157Y352390D01*
X456942Y352541D01*
X456731Y352698D01*
X456659Y352740D01*
X456591Y352788D01*
X456360Y352913D01*
X456132Y353045D01*
X456055Y353078D01*
X455982Y353118D01*
X455738Y353215D01*
X455496Y353320D01*
X455417Y353344D01*
X455339Y353375D01*
X455085Y353444D01*
X454834Y353520D01*
X454751Y353535D01*
X454671Y353557D01*
X454411Y353596D01*
X454152Y353643D01*
X454069Y353648D01*
X453986Y353661D01*
X453724Y353670D01*
X453461Y353686D01*
X453377Y353682D01*
X453294Y353685D01*
X453032Y353663D01*
X452769Y353649D01*
X452687Y353635D01*
X452604Y353629D01*
X452346Y353577D01*
X452087Y353533D01*
X452006Y353510D01*
X451925Y353494D01*
X451674Y353413D01*
X451422Y353339D01*
X451345Y353307D01*
X451266Y353281D01*
X451026Y353172D01*
X450784Y353070D01*
X450711Y353029D01*
X450635Y352994D01*
X450410Y352859D01*
X450181Y352729D01*
X450114Y352680D01*
X450042Y352637D01*
X449835Y352476D01*
X449622Y352321D01*
X449561Y352264D01*
X449495Y352213D01*
X449306Y352029D01*
X449113Y351851D01*
X449066Y351794D01*
X448999Y351729D01*
X448638Y351284D01*
X448579Y351213D01*
X448250Y350761D01*
X447119Y349630D01*
X446499Y349179D01*
X446499Y365000D01*
X446499Y380821D01*
X447119Y380370D01*
X448250Y379239D01*
X448579Y378787D01*
X448745Y378583D01*
X448906Y378375D01*
X448965Y378316D01*
X449018Y378251D01*
X449207Y378068D01*
X449390Y377880D01*
X449455Y377827D01*
X449515Y377769D01*
X449724Y377609D01*
X449928Y377444D01*
X449999Y377399D01*
X450065Y377348D01*
X450290Y377213D01*
X450513Y377072D01*
X450588Y377036D01*
X450659Y376993D01*
X450899Y376885D01*
X451136Y376771D01*
X451215Y376743D01*
X451291Y376709D01*
X451542Y376629D01*
X451790Y376543D01*
X451871Y376525D01*
X451951Y376500D01*
X452209Y376449D01*
X452466Y376392D01*
X452549Y376384D01*
X452631Y376368D01*
X452893Y376348D01*
X453155Y376320D01*
X453238Y376321D01*
X453321Y376315D01*
X453584Y376325D01*
X453847Y376328D01*
X453930Y376339D01*
X454013Y376342D01*
X454273Y376383D01*
X454534Y376416D01*
X454615Y376436D01*
X454697Y376449D01*
X454951Y376519D01*
X455206Y376582D01*
X455284Y376611D01*
X455365Y376634D01*
X455609Y376733D01*
X455855Y376825D01*
X455929Y376863D01*
X456006Y376894D01*
X456237Y377020D01*
X456471Y377140D01*
X456541Y377187D01*
X456614Y377227D01*
X456828Y377379D01*
X457047Y377525D01*
X457103Y377573D01*
X457179Y377627D01*
X457604Y378010D01*
X457675Y378071D01*
X460422Y380818D01*
X463976Y382291D01*
X467824Y382291D01*
X471378Y380818D01*
X474098Y378098D01*
X475571Y374544D01*
X475571Y355456D01*
X474098Y351902D01*
X471378Y349182D01*
X467824Y347709D01*
X463976Y347709D01*
G37*
%LPD*%
%LPC*%
G36*
X539411Y36442D02*
X539411Y36442D01*
X535367Y38118D01*
X532271Y41213D01*
X530596Y45258D01*
X530596Y67542D01*
X532271Y71587D01*
X535367Y74682D01*
X539411Y76358D01*
X543789Y76358D01*
X547833Y74682D01*
X550929Y71587D01*
X552604Y67542D01*
X552604Y45258D01*
X550929Y41213D01*
X547833Y38118D01*
X543789Y36442D01*
X539411Y36442D01*
G37*
%LPD*%
%LPC*%
G36*
X826872Y219497D02*
X826872Y219497D01*
X822571Y221279D01*
X819279Y224571D01*
X817497Y228872D01*
X817497Y233528D01*
X819279Y237829D01*
X820761Y239311D01*
X820853Y239415D01*
X820952Y239511D01*
X821083Y239673D01*
X821222Y239828D01*
X821301Y239942D01*
X821389Y240049D01*
X821500Y240225D01*
X821620Y240395D01*
X821686Y240517D01*
X821760Y240634D01*
X821851Y240821D01*
X821950Y241004D01*
X822001Y241132D01*
X822061Y241257D01*
X822130Y241454D01*
X822207Y241647D01*
X822244Y241780D01*
X822289Y241911D01*
X822334Y242114D01*
X822389Y242315D01*
X822410Y242452D01*
X822440Y242587D01*
X822462Y242794D01*
X822493Y243000D01*
X822498Y243138D01*
X822512Y243276D01*
X822510Y243484D01*
X822517Y243692D01*
X822506Y243830D01*
X822504Y243968D01*
X822478Y244174D01*
X822461Y244382D01*
X822434Y244518D01*
X822416Y244655D01*
X822367Y244857D01*
X822326Y245061D01*
X822283Y245193D01*
X822250Y245327D01*
X822177Y245522D01*
X822113Y245720D01*
X822056Y245846D01*
X822008Y245976D01*
X821913Y246161D01*
X821826Y246351D01*
X821755Y246469D01*
X821692Y246592D01*
X821576Y246766D01*
X821469Y246943D01*
X821384Y247053D01*
X821307Y247168D01*
X821198Y247293D01*
X821045Y247491D01*
X820871Y247670D01*
X820761Y247796D01*
X820013Y248544D01*
X819040Y249812D01*
X818585Y250601D01*
X829200Y250601D01*
X839815Y250601D01*
X839360Y249812D01*
X838387Y248544D01*
X837639Y247796D01*
X837546Y247692D01*
X837448Y247596D01*
X837317Y247434D01*
X837178Y247279D01*
X837099Y247165D01*
X837011Y247058D01*
X836900Y246882D01*
X836780Y246712D01*
X836714Y246590D01*
X836640Y246473D01*
X836549Y246286D01*
X836450Y246103D01*
X836399Y245974D01*
X836339Y245850D01*
X836270Y245654D01*
X836193Y245460D01*
X836156Y245327D01*
X836111Y245196D01*
X836065Y244993D01*
X836011Y244792D01*
X835990Y244655D01*
X835960Y244520D01*
X835938Y244313D01*
X835907Y244107D01*
X835902Y243969D01*
X835888Y243831D01*
X835890Y243623D01*
X835883Y243415D01*
X835894Y243277D01*
X835896Y243139D01*
X835922Y242932D01*
X835939Y242725D01*
X835966Y242589D01*
X835984Y242452D01*
X836034Y242250D01*
X836074Y242046D01*
X836117Y241914D01*
X836150Y241780D01*
X836223Y241585D01*
X836287Y241387D01*
X836344Y241261D01*
X836392Y241131D01*
X836487Y240946D01*
X836574Y240756D01*
X836645Y240638D01*
X836708Y240515D01*
X836824Y240342D01*
X836931Y240164D01*
X837016Y240054D01*
X837093Y239939D01*
X837202Y239813D01*
X837355Y239616D01*
X837530Y239437D01*
X837639Y239311D01*
X839121Y237829D01*
X840903Y233528D01*
X840903Y228872D01*
X839121Y224571D01*
X835829Y221279D01*
X831528Y219497D01*
X826872Y219497D01*
G37*
%LPD*%
%LPC*%
G36*
X572872Y219497D02*
X572872Y219497D01*
X568571Y221279D01*
X565279Y224571D01*
X563497Y228872D01*
X563497Y233528D01*
X565279Y237829D01*
X566761Y239311D01*
X566853Y239415D01*
X566952Y239511D01*
X567083Y239673D01*
X567222Y239828D01*
X567301Y239942D01*
X567389Y240049D01*
X567500Y240225D01*
X567620Y240395D01*
X567686Y240517D01*
X567760Y240634D01*
X567851Y240821D01*
X567950Y241004D01*
X568001Y241132D01*
X568061Y241257D01*
X568130Y241454D01*
X568207Y241647D01*
X568244Y241780D01*
X568289Y241911D01*
X568334Y242114D01*
X568389Y242315D01*
X568410Y242452D01*
X568440Y242587D01*
X568462Y242794D01*
X568493Y243000D01*
X568498Y243138D01*
X568512Y243276D01*
X568510Y243484D01*
X568517Y243692D01*
X568506Y243830D01*
X568504Y243968D01*
X568478Y244174D01*
X568461Y244382D01*
X568434Y244518D01*
X568416Y244655D01*
X568367Y244857D01*
X568326Y245061D01*
X568283Y245193D01*
X568250Y245327D01*
X568177Y245522D01*
X568113Y245720D01*
X568056Y245846D01*
X568008Y245976D01*
X567913Y246161D01*
X567826Y246351D01*
X567755Y246469D01*
X567692Y246592D01*
X567576Y246766D01*
X567469Y246943D01*
X567384Y247053D01*
X567307Y247168D01*
X567198Y247293D01*
X567045Y247491D01*
X566871Y247670D01*
X566761Y247796D01*
X566013Y248544D01*
X565040Y249812D01*
X564585Y250601D01*
X575200Y250601D01*
X585815Y250601D01*
X585360Y249812D01*
X584387Y248544D01*
X583639Y247796D01*
X583546Y247692D01*
X583448Y247596D01*
X583317Y247434D01*
X583178Y247279D01*
X583099Y247165D01*
X583011Y247058D01*
X582900Y246882D01*
X582780Y246712D01*
X582714Y246590D01*
X582640Y246473D01*
X582549Y246286D01*
X582450Y246103D01*
X582399Y245974D01*
X582339Y245850D01*
X582270Y245654D01*
X582193Y245460D01*
X582156Y245327D01*
X582111Y245196D01*
X582065Y244993D01*
X582011Y244792D01*
X581990Y244655D01*
X581960Y244520D01*
X581938Y244313D01*
X581907Y244107D01*
X581902Y243969D01*
X581888Y243831D01*
X581890Y243623D01*
X581883Y243415D01*
X581894Y243277D01*
X581896Y243139D01*
X581922Y242932D01*
X581939Y242725D01*
X581966Y242589D01*
X581984Y242452D01*
X582034Y242250D01*
X582074Y242046D01*
X582117Y241914D01*
X582150Y241780D01*
X582223Y241585D01*
X582287Y241387D01*
X582344Y241261D01*
X582392Y241131D01*
X582487Y240946D01*
X582574Y240756D01*
X582645Y240638D01*
X582708Y240515D01*
X582824Y240342D01*
X582931Y240164D01*
X583016Y240054D01*
X583093Y239939D01*
X583202Y239813D01*
X583355Y239616D01*
X583530Y239437D01*
X583639Y239311D01*
X585121Y237829D01*
X586903Y233528D01*
X586903Y228872D01*
X585121Y224571D01*
X581829Y221279D01*
X577528Y219497D01*
X572872Y219497D01*
G37*
%LPD*%
%LPC*%
G36*
X191772Y59597D02*
X191772Y59597D01*
X187471Y61379D01*
X184179Y64671D01*
X182397Y68972D01*
X182397Y73628D01*
X184179Y77929D01*
X185461Y79211D01*
X185553Y79315D01*
X185652Y79412D01*
X185783Y79573D01*
X185922Y79729D01*
X186001Y79842D01*
X186089Y79949D01*
X186200Y80125D01*
X186320Y80295D01*
X186386Y80417D01*
X186460Y80534D01*
X186551Y80721D01*
X186650Y80904D01*
X186701Y81033D01*
X186762Y81157D01*
X186830Y81353D01*
X186907Y81547D01*
X186944Y81681D01*
X186989Y81811D01*
X187034Y82014D01*
X187089Y82215D01*
X187110Y82352D01*
X187140Y82487D01*
X187162Y82694D01*
X187193Y82900D01*
X187198Y83038D01*
X187212Y83176D01*
X187210Y83384D01*
X187217Y83592D01*
X187206Y83730D01*
X187204Y83868D01*
X187178Y84075D01*
X187161Y84282D01*
X187134Y84418D01*
X187116Y84555D01*
X187066Y84758D01*
X187026Y84961D01*
X186983Y85093D01*
X186950Y85227D01*
X186877Y85422D01*
X186813Y85620D01*
X186756Y85746D01*
X186708Y85876D01*
X186613Y86061D01*
X186526Y86251D01*
X186455Y86369D01*
X186392Y86492D01*
X186276Y86666D01*
X186169Y86844D01*
X186084Y86953D01*
X186007Y87068D01*
X185898Y87194D01*
X185745Y87391D01*
X185570Y87570D01*
X185461Y87696D01*
X184913Y88244D01*
X183940Y89512D01*
X183485Y90301D01*
X194100Y90301D01*
X204715Y90301D01*
X204260Y89512D01*
X203287Y88244D01*
X202739Y87696D01*
X202647Y87592D01*
X202548Y87496D01*
X202417Y87334D01*
X202278Y87179D01*
X202199Y87065D01*
X202111Y86958D01*
X202000Y86782D01*
X201880Y86612D01*
X201814Y86490D01*
X201740Y86373D01*
X201649Y86186D01*
X201550Y86003D01*
X201499Y85875D01*
X201439Y85750D01*
X201370Y85553D01*
X201293Y85360D01*
X201256Y85227D01*
X201211Y85096D01*
X201166Y84893D01*
X201111Y84692D01*
X201090Y84555D01*
X201060Y84420D01*
X201038Y84213D01*
X201007Y84007D01*
X201002Y83869D01*
X200988Y83731D01*
X200990Y83523D01*
X200983Y83315D01*
X200994Y83177D01*
X200996Y83039D01*
X201022Y82833D01*
X201039Y82625D01*
X201066Y82489D01*
X201084Y82352D01*
X201134Y82150D01*
X201174Y81946D01*
X201217Y81814D01*
X201250Y81680D01*
X201323Y81485D01*
X201387Y81287D01*
X201444Y81160D01*
X201492Y81031D01*
X201587Y80846D01*
X201673Y80657D01*
X201745Y80538D01*
X201808Y80415D01*
X201924Y80242D01*
X202031Y80064D01*
X202116Y79954D01*
X202193Y79839D01*
X202302Y79713D01*
X202455Y79516D01*
X202629Y79337D01*
X202739Y79211D01*
X204021Y77929D01*
X205803Y73628D01*
X205803Y68972D01*
X204021Y64671D01*
X200729Y61379D01*
X196428Y59597D01*
X191772Y59597D01*
G37*
%LPD*%
%LPC*%
G36*
X409600Y85399D02*
X409600Y85399D01*
X402667Y85399D01*
X405472Y88204D01*
X405564Y88308D01*
X405663Y88404D01*
X405794Y88566D01*
X405932Y88721D01*
X406012Y88835D01*
X406099Y88942D01*
X406211Y89118D01*
X406330Y89288D01*
X406396Y89410D01*
X406470Y89527D01*
X406561Y89714D01*
X406660Y89897D01*
X406712Y90026D01*
X406772Y90150D01*
X406841Y90347D01*
X406918Y90540D01*
X406954Y90673D01*
X407000Y90804D01*
X407045Y91007D01*
X407100Y91208D01*
X407120Y91345D01*
X407151Y91480D01*
X407172Y91687D01*
X407203Y91893D01*
X407208Y92031D01*
X407223Y92169D01*
X407220Y92377D01*
X407227Y92585D01*
X407216Y92723D01*
X407215Y92861D01*
X407188Y93068D01*
X407171Y93275D01*
X407144Y93411D01*
X407127Y93548D01*
X407077Y93750D01*
X407036Y93954D01*
X406994Y94086D01*
X406961Y94220D01*
X406888Y94415D01*
X406824Y94613D01*
X406767Y94739D01*
X406718Y94869D01*
X406623Y95054D01*
X406537Y95244D01*
X406465Y95362D01*
X406402Y95485D01*
X406287Y95658D01*
X406179Y95836D01*
X406095Y95946D01*
X406018Y96061D01*
X405909Y96186D01*
X405756Y96384D01*
X405581Y96563D01*
X405472Y96689D01*
X400945Y101215D01*
X400945Y108385D01*
X406015Y113455D01*
X413185Y113455D01*
X418255Y108385D01*
X418255Y101215D01*
X413728Y96689D01*
X413636Y96585D01*
X413537Y96489D01*
X413406Y96327D01*
X413268Y96171D01*
X413188Y96058D01*
X413101Y95951D01*
X412989Y95775D01*
X412870Y95605D01*
X412804Y95483D01*
X412730Y95366D01*
X412639Y95179D01*
X412540Y94996D01*
X412488Y94867D01*
X412428Y94743D01*
X412359Y94546D01*
X412282Y94353D01*
X412246Y94220D01*
X412200Y94089D01*
X412155Y93886D01*
X412100Y93685D01*
X412080Y93548D01*
X412049Y93413D01*
X412028Y93206D01*
X411997Y93000D01*
X411992Y92862D01*
X411977Y92724D01*
X411980Y92516D01*
X411973Y92308D01*
X411984Y92170D01*
X411985Y92032D01*
X412012Y91825D01*
X412029Y91618D01*
X412056Y91482D01*
X412073Y91345D01*
X412123Y91143D01*
X412164Y90939D01*
X412206Y90807D01*
X412239Y90673D01*
X412312Y90478D01*
X412376Y90280D01*
X412433Y90154D01*
X412482Y90024D01*
X412577Y89839D01*
X412663Y89649D01*
X412735Y89531D01*
X412798Y89408D01*
X412913Y89235D01*
X413021Y89056D01*
X413105Y88947D01*
X413182Y88832D01*
X413291Y88707D01*
X413444Y88509D01*
X413619Y88330D01*
X413728Y88204D01*
X416533Y85399D01*
X409600Y85399D01*
X409600Y85399D01*
G37*
%LPD*%
%LPC*%
G36*
X409600Y148899D02*
X409600Y148899D01*
X402667Y148899D01*
X405472Y151704D01*
X405564Y151808D01*
X405663Y151904D01*
X405794Y152066D01*
X405932Y152221D01*
X406012Y152335D01*
X406099Y152442D01*
X406211Y152618D01*
X406330Y152788D01*
X406396Y152910D01*
X406470Y153027D01*
X406561Y153214D01*
X406660Y153397D01*
X406712Y153526D01*
X406772Y153650D01*
X406841Y153847D01*
X406918Y154040D01*
X406954Y154173D01*
X407000Y154304D01*
X407045Y154507D01*
X407100Y154708D01*
X407120Y154845D01*
X407151Y154980D01*
X407172Y155187D01*
X407203Y155393D01*
X407208Y155531D01*
X407223Y155669D01*
X407220Y155877D01*
X407227Y156085D01*
X407216Y156223D01*
X407215Y156361D01*
X407188Y156568D01*
X407171Y156775D01*
X407144Y156911D01*
X407127Y157048D01*
X407077Y157250D01*
X407036Y157454D01*
X406994Y157586D01*
X406961Y157720D01*
X406888Y157915D01*
X406824Y158113D01*
X406767Y158239D01*
X406718Y158369D01*
X406623Y158554D01*
X406537Y158744D01*
X406465Y158862D01*
X406402Y158985D01*
X406287Y159158D01*
X406179Y159336D01*
X406095Y159446D01*
X406018Y159561D01*
X405909Y159686D01*
X405756Y159884D01*
X405581Y160063D01*
X405472Y160189D01*
X400945Y164715D01*
X400945Y171885D01*
X406015Y176955D01*
X413185Y176955D01*
X418255Y171885D01*
X418255Y164715D01*
X413728Y160189D01*
X413636Y160085D01*
X413537Y159989D01*
X413406Y159827D01*
X413268Y159671D01*
X413188Y159558D01*
X413101Y159451D01*
X412989Y159275D01*
X412870Y159105D01*
X412804Y158983D01*
X412730Y158866D01*
X412639Y158679D01*
X412540Y158496D01*
X412488Y158367D01*
X412428Y158243D01*
X412359Y158046D01*
X412282Y157853D01*
X412246Y157720D01*
X412200Y157589D01*
X412155Y157386D01*
X412100Y157185D01*
X412080Y157048D01*
X412049Y156913D01*
X412028Y156706D01*
X411997Y156500D01*
X411992Y156362D01*
X411977Y156224D01*
X411980Y156016D01*
X411973Y155808D01*
X411984Y155670D01*
X411985Y155532D01*
X412012Y155325D01*
X412029Y155118D01*
X412056Y154982D01*
X412073Y154845D01*
X412123Y154643D01*
X412164Y154439D01*
X412206Y154307D01*
X412239Y154173D01*
X412312Y153978D01*
X412376Y153780D01*
X412433Y153654D01*
X412482Y153524D01*
X412577Y153339D01*
X412663Y153149D01*
X412735Y153031D01*
X412798Y152908D01*
X412913Y152735D01*
X413021Y152556D01*
X413105Y152447D01*
X413182Y152332D01*
X413291Y152207D01*
X413444Y152009D01*
X413619Y151830D01*
X413728Y151704D01*
X416533Y148899D01*
X409600Y148899D01*
X409600Y148899D01*
G37*
%LPD*%
%LPC*%
G36*
X46415Y463245D02*
X46415Y463245D01*
X41345Y468315D01*
X41345Y475485D01*
X46415Y480555D01*
X53585Y480555D01*
X58655Y475485D01*
X58655Y468315D01*
X53585Y463245D01*
X46415Y463245D01*
G37*
%LPD*%
%LPC*%
G36*
X497599Y62399D02*
X497599Y62399D01*
X497599Y75162D01*
X498000Y74931D01*
X499195Y74014D01*
X500261Y72948D01*
X501178Y71753D01*
X501931Y70448D01*
X502508Y69056D01*
X502898Y67601D01*
X503094Y66107D01*
X503094Y62399D01*
X497599Y62399D01*
G37*
%LPD*%
%LPC*%
G36*
X497599Y50401D02*
X497599Y50401D01*
X503094Y50401D01*
X503094Y46693D01*
X502898Y45199D01*
X502508Y43744D01*
X501931Y42352D01*
X501178Y41047D01*
X500261Y39852D01*
X499195Y38786D01*
X498000Y37869D01*
X497599Y37638D01*
X497599Y50401D01*
G37*
%LPD*%
%LPC*%
G36*
X480106Y62399D02*
X480106Y62399D01*
X480106Y66107D01*
X480302Y67601D01*
X480692Y69056D01*
X481269Y70448D01*
X482022Y71753D01*
X482939Y72948D01*
X484005Y74014D01*
X485200Y74931D01*
X485601Y75162D01*
X485601Y62399D01*
X480106Y62399D01*
G37*
%LPD*%
%LPC*%
G36*
X485200Y37869D02*
X485200Y37869D01*
X484005Y38786D01*
X482939Y39852D01*
X482022Y41047D01*
X481269Y42352D01*
X480692Y43744D01*
X480302Y45199D01*
X480106Y46693D01*
X480106Y50401D01*
X485601Y50401D01*
X485601Y37638D01*
X485200Y37869D01*
G37*
%LPD*%
%LPC*%
G36*
X346939Y604499D02*
X346939Y604499D01*
X346939Y606920D01*
X347189Y608499D01*
X347684Y610020D01*
X348410Y611446D01*
X349350Y612739D01*
X350481Y613870D01*
X351101Y614321D01*
X351101Y604499D01*
X346939Y604499D01*
G37*
%LPD*%
%LPC*%
G36*
X350481Y583130D02*
X350481Y583130D01*
X349350Y584261D01*
X348410Y585554D01*
X347684Y586980D01*
X347189Y588501D01*
X346939Y590080D01*
X346939Y592501D01*
X351101Y592501D01*
X351101Y582679D01*
X350481Y583130D01*
G37*
%LPD*%
%LPC*%
G36*
X227899Y552299D02*
X227899Y552299D01*
X227899Y556915D01*
X228688Y556460D01*
X229956Y555487D01*
X231087Y554356D01*
X232060Y553088D01*
X232515Y552299D01*
X227899Y552299D01*
G37*
%LPD*%
%LPC*%
G36*
X200099Y252299D02*
X200099Y252299D01*
X200099Y256915D01*
X200888Y256460D01*
X202156Y255487D01*
X203287Y254356D01*
X204260Y253088D01*
X204715Y252299D01*
X200099Y252299D01*
G37*
%LPD*%
%LPC*%
G36*
X211285Y552299D02*
X211285Y552299D01*
X211740Y553088D01*
X212713Y554356D01*
X213844Y555487D01*
X215112Y556460D01*
X215901Y556915D01*
X215901Y552299D01*
X211285Y552299D01*
G37*
%LPD*%
%LPC*%
G36*
X183485Y252299D02*
X183485Y252299D01*
X183940Y253088D01*
X184913Y254356D01*
X186044Y255487D01*
X187312Y256460D01*
X188101Y256915D01*
X188101Y252299D01*
X183485Y252299D01*
G37*
%LPD*%
%LPC*%
G36*
X415599Y200401D02*
X415599Y200401D01*
X416533Y200401D01*
X415599Y199467D01*
X415599Y200401D01*
G37*
%LPD*%
%LPC*%
G36*
X415599Y136901D02*
X415599Y136901D01*
X416533Y136901D01*
X415599Y135967D01*
X415599Y136901D01*
G37*
%LPD*%
%LPC*%
G36*
X415599Y73401D02*
X415599Y73401D01*
X416533Y73401D01*
X415599Y72467D01*
X415599Y73401D01*
G37*
%LPD*%
%LPC*%
G36*
X402667Y200401D02*
X402667Y200401D01*
X403601Y200401D01*
X403601Y199467D01*
X402667Y200401D01*
G37*
%LPD*%
%LPC*%
G36*
X402667Y136901D02*
X402667Y136901D01*
X403601Y136901D01*
X403601Y135967D01*
X402667Y136901D01*
G37*
%LPD*%
%LPC*%
G36*
X402667Y73401D02*
X402667Y73401D01*
X403601Y73401D01*
X403601Y72467D01*
X402667Y73401D01*
G37*
%LPD*%
D10*
X829200Y231200D03*
X829200Y256600D03*
X829200Y282000D03*
X829200Y307400D03*
X829200Y332800D03*
X829200Y358200D03*
X829200Y383600D03*
X829200Y409000D03*
X829200Y434400D03*
X829200Y459800D03*
X829200Y485200D03*
X829200Y510600D03*
X829200Y536000D03*
X829200Y561400D03*
X829200Y586800D03*
X575200Y231200D03*
X575200Y256600D03*
X575200Y282000D03*
X575200Y307400D03*
X575200Y332800D03*
X575200Y358200D03*
X575200Y383600D03*
X575200Y409000D03*
X575200Y434400D03*
X575200Y459800D03*
X575200Y485200D03*
X575200Y510600D03*
X575200Y536000D03*
X575200Y561400D03*
X575200Y586800D03*
D11*
X409600Y104800D03*
X409600Y79400D03*
X409600Y168300D03*
X409600Y142900D03*
X409600Y231800D03*
X409600Y206400D03*
D12*
X465900Y357380D02*
X465900Y372620D01*
X440500Y372620D02*
X440500Y357380D01*
X415100Y357380D02*
X415100Y372620D01*
D13*
X491600Y65354D02*
X491600Y47447D01*
X541600Y47447D02*
X541600Y65354D01*
D12*
X154520Y498800D02*
X139280Y498800D01*
X139280Y473400D02*
X154520Y473400D01*
X154520Y448000D02*
X139280Y448000D01*
X139280Y422600D02*
X154520Y422600D01*
X116120Y196300D02*
X100880Y196300D01*
X100880Y170900D02*
X116120Y170900D01*
X116120Y145500D02*
X100880Y145500D01*
X100880Y120100D02*
X116120Y120100D01*
X357100Y590880D02*
X357100Y606120D01*
X382500Y606120D02*
X382500Y590880D01*
X407900Y590880D02*
X407900Y606120D01*
D14*
X349900Y546300D03*
D10*
X349900Y521300D03*
X349900Y496300D03*
X349900Y471300D03*
X349900Y446300D03*
X349900Y421300D03*
X349900Y396300D03*
X349900Y371300D03*
X221900Y546300D03*
X221900Y521300D03*
X221900Y496300D03*
X221900Y471300D03*
X221900Y446300D03*
X221900Y421300D03*
X221900Y396300D03*
X221900Y371300D03*
D14*
X322100Y246300D03*
D10*
X322100Y221300D03*
X322100Y196300D03*
X322100Y171300D03*
X322100Y146300D03*
X322100Y121300D03*
X322100Y96300D03*
X322100Y71300D03*
X194100Y246300D03*
X194100Y221300D03*
X194100Y196300D03*
X194100Y171300D03*
X194100Y146300D03*
X194100Y121300D03*
X194100Y96300D03*
X194100Y71300D03*
D11*
X50000Y548100D03*
X50000Y471900D03*
D12*
X627300Y37620D02*
X627300Y22380D01*
X652700Y22380D02*
X652700Y37620D01*
X797300Y42380D02*
X797300Y57620D01*
X822700Y57620D02*
X822700Y42380D01*
D15*
X525200Y357400D02*
X525200Y358072D01*
X525200Y357400D02*
X575200Y307400D01*
X525200Y358072D02*
X362242Y521030D01*
X350520Y521030D01*
X349900Y521300D01*
X350520Y546176D02*
X362252Y546176D01*
X574944Y333484D01*
X350520Y546176D02*
X349900Y546300D01*
X574944Y333484D02*
X575200Y332800D01*
X627300Y280700D02*
X627300Y30000D01*
X627300Y280700D02*
X575200Y332800D01*
X652700Y306100D02*
X652700Y30000D01*
X652700Y306100D02*
X575200Y383600D01*
X409016Y233934D02*
X409016Y232410D01*
X409600Y231800D01*
X415582Y364820D02*
X415100Y365000D01*
X222504Y521030D02*
X221900Y521300D01*
X414820Y365582D02*
X415100Y365000D01*
X194602Y221742D02*
X194100Y221300D01*
X409016Y233934D02*
X409600Y231800D01*
D16*
X248700Y521300D02*
X221900Y521300D01*
X248700Y521300D02*
X250000Y520000D01*
X250000Y300000D01*
X250000Y220000D01*
X196344Y220000D01*
X194602Y221742D01*
X250000Y300000D02*
X330000Y300000D01*
X341426Y300000D01*
X409016Y232410D01*
X221900Y521300D02*
X198700Y521300D01*
X170000Y550000D02*
X50000Y550000D01*
X170000Y550000D02*
X198700Y521300D01*
X415100Y365000D02*
X350100Y300000D01*
X341426Y300000D01*
D15*
X758222Y10922D02*
X797300Y50000D01*
X407478Y10922D02*
X322100Y96300D01*
X407478Y10922D02*
X758222Y10922D01*
X822700Y50000D02*
X680000Y192700D01*
X680000Y320000D01*
X591000Y409000D01*
X575200Y409000D01*
M02*
