G04 EAGLE Gerber RS-274X export*
G75*
%MOMM*%
%FSLAX34Y34*%
%LPD*%
%IN*%
%IPPOS*%
%AMOC8*
5,1,8,0,0,1.08239X$1,22.5*%
G01*
%ADD10C,0.254000*%


D10*
X0Y30000D02*
X114Y27385D01*
X456Y24791D01*
X1022Y22235D01*
X1809Y19739D01*
X2811Y17321D01*
X4019Y15000D01*
X5425Y12793D01*
X7019Y10716D01*
X8787Y8787D01*
X10716Y7019D01*
X12793Y5425D01*
X15000Y4019D01*
X17321Y2811D01*
X19739Y1809D01*
X22235Y1022D01*
X24791Y456D01*
X27385Y114D01*
X30000Y0D01*
X870000Y0D01*
X872615Y114D01*
X875209Y456D01*
X877765Y1022D01*
X880261Y1809D01*
X882679Y2811D01*
X885000Y4019D01*
X887207Y5425D01*
X889284Y7019D01*
X891213Y8787D01*
X892981Y10716D01*
X894575Y12793D01*
X895981Y15000D01*
X897189Y17321D01*
X898191Y19739D01*
X898978Y22235D01*
X899544Y24791D01*
X899886Y27385D01*
X900000Y30000D01*
X900000Y670000D01*
X899886Y672615D01*
X899544Y675209D01*
X898978Y677765D01*
X898191Y680261D01*
X897189Y682679D01*
X895981Y685000D01*
X894575Y687207D01*
X892981Y689284D01*
X891213Y691213D01*
X889284Y692981D01*
X887207Y694575D01*
X885000Y695981D01*
X882679Y697189D01*
X880261Y698191D01*
X877765Y698978D01*
X875209Y699544D01*
X872615Y699886D01*
X870000Y700000D01*
X30000Y700000D01*
X27385Y699886D01*
X24791Y699544D01*
X22235Y698978D01*
X19739Y698191D01*
X17321Y697189D01*
X15000Y695981D01*
X12793Y694575D01*
X10716Y692981D01*
X8787Y691213D01*
X7019Y689284D01*
X5425Y687207D01*
X4019Y685000D01*
X2811Y682679D01*
X1809Y680261D01*
X1022Y677765D01*
X456Y675209D01*
X114Y672615D01*
X0Y670000D01*
X0Y30000D01*
X45000Y29464D02*
X44924Y28396D01*
X44771Y27335D01*
X44543Y26288D01*
X44241Y25260D01*
X43867Y24256D01*
X43422Y23281D01*
X42908Y22341D01*
X42329Y21440D01*
X41687Y20582D01*
X40985Y19772D01*
X40228Y19015D01*
X39418Y18313D01*
X38560Y17671D01*
X37659Y17092D01*
X36719Y16578D01*
X35744Y16133D01*
X34740Y15759D01*
X33712Y15457D01*
X32665Y15229D01*
X31604Y15076D01*
X30536Y15000D01*
X29464Y15000D01*
X28396Y15076D01*
X27335Y15229D01*
X26288Y15457D01*
X25260Y15759D01*
X24256Y16133D01*
X23281Y16578D01*
X22341Y17092D01*
X21440Y17671D01*
X20582Y18313D01*
X19772Y19015D01*
X19015Y19772D01*
X18313Y20582D01*
X17671Y21440D01*
X17092Y22341D01*
X16578Y23281D01*
X16133Y24256D01*
X15759Y25260D01*
X15457Y26288D01*
X15229Y27335D01*
X15076Y28396D01*
X15000Y29464D01*
X15000Y30536D01*
X15076Y31604D01*
X15229Y32665D01*
X15457Y33712D01*
X15759Y34740D01*
X16133Y35744D01*
X16578Y36719D01*
X17092Y37659D01*
X17671Y38560D01*
X18313Y39418D01*
X19015Y40228D01*
X19772Y40985D01*
X20582Y41687D01*
X21440Y42329D01*
X22341Y42908D01*
X23281Y43422D01*
X24256Y43867D01*
X25260Y44241D01*
X26288Y44543D01*
X27335Y44771D01*
X28396Y44924D01*
X29464Y45000D01*
X30536Y45000D01*
X31604Y44924D01*
X32665Y44771D01*
X33712Y44543D01*
X34740Y44241D01*
X35744Y43867D01*
X36719Y43422D01*
X37659Y42908D01*
X38560Y42329D01*
X39418Y41687D01*
X40228Y40985D01*
X40985Y40228D01*
X41687Y39418D01*
X42329Y38560D01*
X42908Y37659D01*
X43422Y36719D01*
X43867Y35744D01*
X44241Y34740D01*
X44543Y33712D01*
X44771Y32665D01*
X44924Y31604D01*
X45000Y30536D01*
X45000Y29464D01*
X885000Y29464D02*
X884924Y28396D01*
X884771Y27335D01*
X884543Y26288D01*
X884241Y25260D01*
X883867Y24256D01*
X883422Y23281D01*
X882908Y22341D01*
X882329Y21440D01*
X881687Y20582D01*
X880985Y19772D01*
X880228Y19015D01*
X879418Y18313D01*
X878560Y17671D01*
X877659Y17092D01*
X876719Y16578D01*
X875744Y16133D01*
X874740Y15759D01*
X873712Y15457D01*
X872665Y15229D01*
X871604Y15076D01*
X870536Y15000D01*
X869464Y15000D01*
X868396Y15076D01*
X867335Y15229D01*
X866288Y15457D01*
X865260Y15759D01*
X864256Y16133D01*
X863281Y16578D01*
X862341Y17092D01*
X861440Y17671D01*
X860582Y18313D01*
X859772Y19015D01*
X859015Y19772D01*
X858313Y20582D01*
X857671Y21440D01*
X857092Y22341D01*
X856578Y23281D01*
X856133Y24256D01*
X855759Y25260D01*
X855457Y26288D01*
X855229Y27335D01*
X855076Y28396D01*
X855000Y29464D01*
X855000Y30536D01*
X855076Y31604D01*
X855229Y32665D01*
X855457Y33712D01*
X855759Y34740D01*
X856133Y35744D01*
X856578Y36719D01*
X857092Y37659D01*
X857671Y38560D01*
X858313Y39418D01*
X859015Y40228D01*
X859772Y40985D01*
X860582Y41687D01*
X861440Y42329D01*
X862341Y42908D01*
X863281Y43422D01*
X864256Y43867D01*
X865260Y44241D01*
X866288Y44543D01*
X867335Y44771D01*
X868396Y44924D01*
X869464Y45000D01*
X870536Y45000D01*
X871604Y44924D01*
X872665Y44771D01*
X873712Y44543D01*
X874740Y44241D01*
X875744Y43867D01*
X876719Y43422D01*
X877659Y42908D01*
X878560Y42329D01*
X879418Y41687D01*
X880228Y40985D01*
X880985Y40228D01*
X881687Y39418D01*
X882329Y38560D01*
X882908Y37659D01*
X883422Y36719D01*
X883867Y35744D01*
X884241Y34740D01*
X884543Y33712D01*
X884771Y32665D01*
X884924Y31604D01*
X885000Y30536D01*
X885000Y29464D01*
X45000Y669464D02*
X44924Y668396D01*
X44771Y667335D01*
X44543Y666288D01*
X44241Y665260D01*
X43867Y664256D01*
X43422Y663281D01*
X42908Y662341D01*
X42329Y661440D01*
X41687Y660582D01*
X40985Y659772D01*
X40228Y659015D01*
X39418Y658313D01*
X38560Y657671D01*
X37659Y657092D01*
X36719Y656578D01*
X35744Y656133D01*
X34740Y655759D01*
X33712Y655457D01*
X32665Y655229D01*
X31604Y655076D01*
X30536Y655000D01*
X29464Y655000D01*
X28396Y655076D01*
X27335Y655229D01*
X26288Y655457D01*
X25260Y655759D01*
X24256Y656133D01*
X23281Y656578D01*
X22341Y657092D01*
X21440Y657671D01*
X20582Y658313D01*
X19772Y659015D01*
X19015Y659772D01*
X18313Y660582D01*
X17671Y661440D01*
X17092Y662341D01*
X16578Y663281D01*
X16133Y664256D01*
X15759Y665260D01*
X15457Y666288D01*
X15229Y667335D01*
X15076Y668396D01*
X15000Y669464D01*
X15000Y670536D01*
X15076Y671604D01*
X15229Y672665D01*
X15457Y673712D01*
X15759Y674740D01*
X16133Y675744D01*
X16578Y676719D01*
X17092Y677659D01*
X17671Y678560D01*
X18313Y679418D01*
X19015Y680228D01*
X19772Y680985D01*
X20582Y681687D01*
X21440Y682329D01*
X22341Y682908D01*
X23281Y683422D01*
X24256Y683867D01*
X25260Y684241D01*
X26288Y684543D01*
X27335Y684771D01*
X28396Y684924D01*
X29464Y685000D01*
X30536Y685000D01*
X31604Y684924D01*
X32665Y684771D01*
X33712Y684543D01*
X34740Y684241D01*
X35744Y683867D01*
X36719Y683422D01*
X37659Y682908D01*
X38560Y682329D01*
X39418Y681687D01*
X40228Y680985D01*
X40985Y680228D01*
X41687Y679418D01*
X42329Y678560D01*
X42908Y677659D01*
X43422Y676719D01*
X43867Y675744D01*
X44241Y674740D01*
X44543Y673712D01*
X44771Y672665D01*
X44924Y671604D01*
X45000Y670536D01*
X45000Y669464D01*
X885000Y669464D02*
X884924Y668396D01*
X884771Y667335D01*
X884543Y666288D01*
X884241Y665260D01*
X883867Y664256D01*
X883422Y663281D01*
X882908Y662341D01*
X882329Y661440D01*
X881687Y660582D01*
X880985Y659772D01*
X880228Y659015D01*
X879418Y658313D01*
X878560Y657671D01*
X877659Y657092D01*
X876719Y656578D01*
X875744Y656133D01*
X874740Y655759D01*
X873712Y655457D01*
X872665Y655229D01*
X871604Y655076D01*
X870536Y655000D01*
X869464Y655000D01*
X868396Y655076D01*
X867335Y655229D01*
X866288Y655457D01*
X865260Y655759D01*
X864256Y656133D01*
X863281Y656578D01*
X862341Y657092D01*
X861440Y657671D01*
X860582Y658313D01*
X859772Y659015D01*
X859015Y659772D01*
X858313Y660582D01*
X857671Y661440D01*
X857092Y662341D01*
X856578Y663281D01*
X856133Y664256D01*
X855759Y665260D01*
X855457Y666288D01*
X855229Y667335D01*
X855076Y668396D01*
X855000Y669464D01*
X855000Y670536D01*
X855076Y671604D01*
X855229Y672665D01*
X855457Y673712D01*
X855759Y674740D01*
X856133Y675744D01*
X856578Y676719D01*
X857092Y677659D01*
X857671Y678560D01*
X858313Y679418D01*
X859015Y680228D01*
X859772Y680985D01*
X860582Y681687D01*
X861440Y682329D01*
X862341Y682908D01*
X863281Y683422D01*
X864256Y683867D01*
X865260Y684241D01*
X866288Y684543D01*
X867335Y684771D01*
X868396Y684924D01*
X869464Y685000D01*
X870536Y685000D01*
X871604Y684924D01*
X872665Y684771D01*
X873712Y684543D01*
X874740Y684241D01*
X875744Y683867D01*
X876719Y683422D01*
X877659Y682908D01*
X878560Y682329D01*
X879418Y681687D01*
X880228Y680985D01*
X880985Y680228D01*
X881687Y679418D01*
X882329Y678560D01*
X882908Y677659D01*
X883422Y676719D01*
X883867Y675744D01*
X884241Y674740D01*
X884543Y673712D01*
X884771Y672665D01*
X884924Y671604D01*
X885000Y670536D01*
X885000Y669464D01*
M02*
