G04 EAGLE Gerber RS-274X export*
G75*
%MOMM*%
%FSLAX34Y34*%
%LPD*%
%INSoldermask Bottom*%
%IPPOS*%
%AMOC8*
5,1,8,0,0,1.08239X$1,22.5*%
G01*
%ADD10C,3.203200*%
%ADD11C,2.133600*%
%ADD12P,1.649562X8X292.500000*%
%ADD13C,1.727200*%
%ADD14C,1.993900*%
%ADD15C,1.981200*%


D10*
X30000Y30000D03*
X870000Y30000D03*
X30000Y670000D03*
X870000Y670000D03*
D11*
X829200Y231200D03*
X829200Y256600D03*
X829200Y282000D03*
X829200Y307400D03*
X829200Y332800D03*
X829200Y358200D03*
X829200Y383600D03*
X829200Y409000D03*
X829200Y434400D03*
X829200Y459800D03*
X829200Y485200D03*
X829200Y510600D03*
X829200Y536000D03*
X829200Y561400D03*
X829200Y586800D03*
X575200Y231200D03*
X575200Y256600D03*
X575200Y282000D03*
X575200Y307400D03*
X575200Y332800D03*
X575200Y358200D03*
X575200Y383600D03*
X575200Y409000D03*
X575200Y434400D03*
X575200Y459800D03*
X575200Y485200D03*
X575200Y510600D03*
X575200Y536000D03*
X575200Y561400D03*
X575200Y586800D03*
D12*
X409600Y104800D03*
X409600Y79400D03*
X409600Y168300D03*
X409600Y142900D03*
X409600Y231800D03*
X409600Y206400D03*
D13*
X465900Y357380D02*
X465900Y372620D01*
X440500Y372620D02*
X440500Y357380D01*
X415100Y357380D02*
X415100Y372620D01*
D14*
X491600Y65354D02*
X491600Y47447D01*
X541600Y47447D02*
X541600Y65354D01*
D13*
X154520Y498800D02*
X139280Y498800D01*
X139280Y473400D02*
X154520Y473400D01*
X154520Y448000D02*
X139280Y448000D01*
X139280Y422600D02*
X154520Y422600D01*
X116120Y196300D02*
X100880Y196300D01*
X100880Y170900D02*
X116120Y170900D01*
X116120Y145500D02*
X100880Y145500D01*
X100880Y120100D02*
X116120Y120100D01*
X357100Y590880D02*
X357100Y606120D01*
X382500Y606120D02*
X382500Y590880D01*
X407900Y590880D02*
X407900Y606120D01*
D15*
X349900Y546300D03*
D11*
X349900Y521300D03*
X349900Y496300D03*
X349900Y471300D03*
X349900Y446300D03*
X349900Y421300D03*
X349900Y396300D03*
X349900Y371300D03*
X221900Y546300D03*
X221900Y521300D03*
X221900Y496300D03*
X221900Y471300D03*
X221900Y446300D03*
X221900Y421300D03*
X221900Y396300D03*
X221900Y371300D03*
D15*
X322100Y246300D03*
D11*
X322100Y221300D03*
X322100Y196300D03*
X322100Y171300D03*
X322100Y146300D03*
X322100Y121300D03*
X322100Y96300D03*
X322100Y71300D03*
X194100Y246300D03*
X194100Y221300D03*
X194100Y196300D03*
X194100Y171300D03*
X194100Y146300D03*
X194100Y121300D03*
X194100Y96300D03*
X194100Y71300D03*
D12*
X50000Y548100D03*
X50000Y471900D03*
D13*
X627300Y37620D02*
X627300Y22380D01*
X652700Y22380D02*
X652700Y37620D01*
X797300Y42380D02*
X797300Y57620D01*
X822700Y57620D02*
X822700Y42380D01*
M02*
